<svg xmlns="http://www.w3.org/2000/svg" width="129" height="40" viewBox="0 0 129 40" fill="none"><g clip-path="url(#clip0)"><path d="M9.5956 12.1264C4.93841 12.9463 1.83766 15.6909 0.448506 20.2699C0.196373 21.1045 0.145461 21.9999 0 22.8709V23.8198C0.0305264 23.9564 0.0539932 24.0944 0.0703063 24.2334C0.197738 26.0812 0.790865 27.8661 1.79402 29.4208C4.44142 33.5303 9.30953 35.4694 14.2479 34.3989C22.5853 32.6033 25.9867 22.0923 20.2482 15.7541C17.3899 12.5984 13.7485 11.3964 9.5956 12.1264ZM16.4856 28.0388C15.3607 29.4573 13.5352 30.2675 11.6005 30.2529C10.1309 30.2584 8.70336 29.7602 7.5541 28.8408C6.40483 27.9215 5.60266 26.636 5.28025 25.1969C4.66204 22.5522 5.10327 20.1361 7.06215 18.1531C9.95441 15.231 16.0008 15.6933 17.6978 20.7784C18.5633 23.3721 18.2215 25.849 16.4856 28.0388Z" fill="#FF7A59"></path><path d="M66.6019 22.759C65.0649 21.8101 63.3436 21.3965 61.6223 20.961C60.8056 20.7732 60.0201 20.4684 59.29 20.0559C58.0779 19.3259 58.267 17.7323 59.4719 16.9853C61.4113 15.7688 64.1242 16.3965 65.4721 18.3235C65.7025 18.652 65.9061 18.9999 66.1267 19.3454C67.3728 18.6155 68.5244 17.9999 69.7633 17.2846L69.6275 16.9926C68.9487 15.5182 68.042 14.2846 66.7183 13.4038C65.157 12.3649 63.4017 11.9902 61.5738 11.9926H47.9125C47.9125 11.9926 47.8204 9.17023 47.9368 7.86852C48.0725 6.31864 48.8702 5.13373 50.4387 4.7055C51.1799 4.53893 51.939 4.46618 52.6982 4.48896C53.0972 4.48326 53.4958 4.51585 53.8886 4.58628V0.364868C53.8255 0.340537 53.777 0.323506 53.7261 0.308907C52.2206 -0.133916 50.703 -0.0560567 49.1974 0.257812C45.9827 0.924479 43.9269 2.83202 43.1365 6.06317C42.802 7.40867 42.8384 10.1508 42.8384 10.1508V11.9926H33.8925C33.8925 11.9926 33.8004 9.17023 33.9167 7.86852C34.0525 6.31864 34.8501 5.13373 36.4162 4.7055C37.1583 4.53905 37.9181 4.46631 38.6782 4.48896C39.0771 4.48404 39.4756 4.51662 39.8685 4.58628V0.364868C39.8055 0.340537 39.757 0.323506 39.7061 0.308907C38.2006 -0.133916 36.6829 -0.0560567 35.1774 0.257812C31.9627 0.924479 29.9068 2.83202 29.1165 6.06317C28.7819 7.40867 28.8183 10.1508 28.8183 10.1508V11.9926H24.4011V16.3722H28.8086V34.6471H33.8173V16.3624H42.8359V34.6471H47.8447V16.3624H54.131C53.777 17.17 53.6018 18.045 53.6172 18.9271C53.6327 19.8092 53.8386 20.6774 54.2207 21.4719C54.948 22.9756 56.2087 23.5985 57.6924 24.1946C58.8827 24.6812 60.1434 24.9756 61.375 25.343C62.4272 25.6544 63.4939 25.9269 64.3545 26.669C65.2152 27.4111 65.3024 28.579 64.5097 29.3722C64.1042 29.7773 63.6103 30.0822 63.0672 30.2627C60.975 30.9075 58.3251 30.6958 56.7833 27.9318C56.6645 27.7152 56.5408 27.5011 56.4172 27.2724L52.6594 29.4403C53.9831 32.4768 56.2135 34.2627 59.4064 34.8101C61.7411 35.2092 64.0127 35.0535 66.1946 33.9732C67.3558 33.4121 68.3223 32.5139 68.969 31.3951C69.6156 30.2763 69.9126 28.9884 69.8214 27.6982C69.6275 25.4525 68.4323 23.8904 66.6019 22.759Z" fill="#FF7A59"></path><path d="M125.909 28.7639C125.298 28.7639 124.701 28.9457 124.192 29.2862C123.684 29.6268 123.288 30.1108 123.054 30.6773C122.82 31.2437 122.758 31.8671 122.877 32.4686C122.995 33.0702 123.289 33.623 123.721 34.0571C124.152 34.4912 124.702 34.7873 125.301 34.9078C125.901 35.0283 126.522 34.9679 127.087 34.7342C127.652 34.5006 128.135 34.1041 128.476 33.5949C128.816 33.0857 128.999 32.4866 129 31.8734C129.001 31.4655 128.921 31.0615 128.766 30.6844C128.611 30.3073 128.384 29.9646 128.097 29.6758C127.809 29.387 127.469 29.1579 127.093 29.0014C126.718 28.8449 126.315 28.7642 125.909 28.7639Z" fill="#FF7A59"></path><path d="M73.7756 34.6472H78.7116L78.7141 11.9927H73.7756V34.6472Z" fill="#FF7A59"></path><path d="M118.401 16.197C116.071 13.2773 113.094 11.8832 109.649 12.0048V11.9927H91.5752C91.5752 8.45982 91.5752 5.70312 91.5752 5.70312H86.6053C86.6053 8.03889 86.6053 10.124 86.6053 11.9927H82.1008V16.3722H86.6077C86.6077 26.2652 86.5738 27.8369 86.7047 28.8661C86.9617 30.9197 87.7738 32.6812 89.6139 33.7639C91.7958 35.0413 94.1232 35.2238 96.5233 34.6107V30.326C95.7962 30.361 95.0677 30.3537 94.3414 30.3041C93.1898 30.1922 92.254 29.6399 91.8831 28.4744C91.6969 27.8592 91.6029 27.2196 91.6043 26.5766C91.5922 25.163 91.5873 20.7615 91.5873 16.3576H101.028C99.4897 18.3716 98.6586 20.8396 98.664 23.3771C98.6638 24.3125 98.7753 25.2445 98.9962 26.1532C99.2378 27.2385 99.6372 28.2821 100.182 29.2506C101.31 31.3026 103.059 32.9419 105.176 33.932C107.292 34.922 109.668 35.2117 111.959 34.7591C115.002 34.197 117.399 32.3479 118.941 29.9221L115.271 27.2311L114.345 28.433C113.763 29.1228 113.029 29.6666 112.2 30.021C111.372 30.3754 110.472 30.5307 109.574 30.4744C106.643 30.3357 104.255 28.1897 103.69 25.1216C103.658 24.9464 103.641 24.7785 103.619 24.6082L120.59 24.8029C120.637 24.3706 120.662 23.9361 120.663 23.5012C120.663 21.0146 120.2 18.7177 118.883 16.8442C118.733 16.6326 118.573 16.4136 118.401 16.197ZM104 20.5766C104.369 19.6442 104.932 18.8014 105.651 18.1046C108.427 15.3771 113.874 15.9367 115.571 20.6155L104 20.5766Z" fill="#FF7A59"></path></g><defs><clipPath id="clip0"><rect width="129" height="40" fill="white"></rect></clipPath></defs></svg>