<svg xmlns="http://www.w3.org/2000/svg" id="Layer_1" data-name="Layer 1" viewBox="0 0 228.41 228.36"><defs><style>.cls-1{fill:#fff;}</style></defs><path d="M127.24,160.8A114.21,114.21,0,1,1,241.46,275,114.11,114.11,0,0,1,127.24,160.8Zm83.65-8.92a81.06,81.06,0,0,0,30-17.44v85.82c0,1.65,0,1.65,1.68,1.65h21.73v-122a2.8,2.8,0,0,0-.44-.08c-5.91,0-11.83,0-17.74,0-.79,0-1,.44-1.21,1a36.23,36.23,0,0,1-5.5,9.68c-7.32,9-16.61,15.22-27.27,19.53a1.68,1.68,0,0,0-1.3,1.87c0,5.75,0,11.51,0,17.26Z" transform="translate(-127.24 -46.66)"></path><path class="cls-1" d="M210.89,151.88v-2.76c0-5.75,0-11.51,0-17.26a1.68,1.68,0,0,1,1.3-1.87c10.66-4.31,20-10.55,27.27-19.53a36.23,36.23,0,0,0,5.5-9.68c.23-.59.42-1,1.21-1,5.91,0,11.83,0,17.74,0a2.8,2.8,0,0,1,.44.08V221.91H242.6c-1.68,0-1.68,0-1.68-1.65V134.44A81.06,81.06,0,0,1,210.89,151.88Z" transform="translate(-127.24 -46.66)"></path></svg>