<svg xmlns="http://www.w3.org/2000/svg" id="Layer_1" data-name="Layer 1" viewBox="0 0 228.41 228.41"><defs><style>.cls-1{fill:#fff;}</style></defs><circle cx="114.21" cy="114.21" r="114.21"></circle><path class="cls-1" d="M184.17,247.08c.28-1.75.48-3.41.82-5.05a60.68,60.68,0,0,1,14.45-28.2c7.13-8.06,15-15.38,22.65-22.91,5-4.89,9.94-9.8,14.58-15a23.12,23.12,0,0,0,5.59-13.68,18.35,18.35,0,0,0-3.1-12.43c-1.92-2.76-4.78-4-7.94-4.66a20.87,20.87,0,0,0-9.75.2c-4.59,1.29-7.48,4.46-9.17,8.8a26,26,0,0,0-1.65,7.9c-.09,1.29-.18,1.41-1.44,1.3-4.24-.38-8.48-.8-12.72-1.17-2.73-.24-5.46-.45-8.19-.65-.76-.06-1.29-.2-1.17-1.18a48.26,48.26,0,0,1,4.57-16.52c4.11-8,10.66-13.17,19-16.22a50.74,50.74,0,0,1,20.7-2.56c6.94.41,13.58,2.09,19.46,6,8,5.31,13.07,12.64,14.51,22.26,1.59,10.67-.84,20.48-6.49,29.57a95.85,95.85,0,0,1-16.15,19c-5.94,5.6-11.94,11.14-17.87,16.76a32.12,32.12,0,0,0-4.9,6.81H265.7v21.67Z" transform="translate(-110.79 -71.79)"></path></svg>