<svg xmlns="http://www.w3.org/2000/svg" id="Layer_1" data-name="Layer 1" viewBox="0 0 228.41 228.41"><defs><style>.cls-1{fill:#fefefe;}</style></defs><circle cx="114.21" cy="114.21" r="114.21"></circle><path class="cls-1" d="M262.4,142.92q1.47,3.9,2.93,7.78a48.15,48.15,0,0,1,.49,13l-2,5.84a35,35,0,0,1-10.78,12.15l-5.29,2.91a34.9,34.9,0,0,1,15.11,10.47,35.59,35.59,0,0,1,4.4,9.73,55.21,55.21,0,0,1,.49,12.52,6.72,6.72,0,0,0-.53,2.91l-2.46,6.81a43.9,43.9,0,0,1-7.3,9.26l-7.84,5.34A62,62,0,0,1,221.76,247a51.23,51.23,0,0,1-22.39-5.74,14.07,14.07,0,0,0-1.56-.62l-8.32-6.79-4-5.83-2.94-7.79a4.1,4.1,0,0,0-.5-2.43c0-5.35,0-5.35,5.36-5.35,6.46,0,12.92.07,19.38,0,1.86,0,2.9.31,2.9,2.39a4,4,0,0,0,1,2.67c1.25.69,1.82,2,2.74,3a12.66,12.66,0,0,0,9.6,4.46c2.33,0,4.69.25,7-.44a12.68,12.68,0,0,0,8.5-7c.46-1,.61-2.21,1.52-3a15.55,15.55,0,0,0-.43-8.91,9.22,9.22,0,0,0-4.83-7.35c-3.32-2.58-7.19-3.05-11.21-2.93-3.72-.49-7.44-.15-11.16-.19-1.48,0-2.21-.28-2.18-2,.09-5.51.1-11,0-16.55,0-1.73.73-2,2.19-2,4.46,0,8.93.12,13.37-.18,3.56-.24,7.11-1,9.36-4.3a8.92,8.92,0,0,0,2.94-6.29c.13-2.83.86-5.71-.67-8.4-.76-1.53-1-3.38-2.63-4.38a16.82,16.82,0,0,1-2.21-1.75c-4-3-11.15-2.9-16.14.15-.17.13-.36.25-.55.37a3.79,3.79,0,0,0-1.82,1.65c-.12.18-.25.36-.38.53a8.32,8.32,0,0,0-1.74,3.28,2.75,2.75,0,0,0-.43.69c0,1-.26,1.65-1.51,1.65q-12.44-.06-24.86,0c-1.24,0-1.45-.57-1.47-1.64a16.74,16.74,0,0,1,.82-5.92v0l1.44-4.29a6.47,6.47,0,0,1,1.52-3l0,0,5.23-6.88a66,66,0,0,1,11.73-7.22l7.77-2.53c.75-.6,1.73,0,2.49-.47l0,0c1.23-.77,2.68.11,3.93-.53l0,0a41.52,41.52,0,0,1,11.19,0l0,0c3.78.47,7.63.55,11.24,2a57.6,57.6,0,0,1,13.16,6.33A45.16,45.16,0,0,1,262.4,142.92Z" transform="translate(-110.79 -71.79)"></path></svg>