<svg xmlns="http://www.w3.org/2000/svg" id="Layer_1" data-name="Layer 1" viewBox="0 0 228.42 228.42"><defs><style>.cls-1{fill:#fff;}</style></defs><circle cx="114.21" cy="114.21" r="114.21"></circle><path class="cls-1" d="M186.49,217.73c2,.76,3.94,1.57,5.92,2.21A66,66,0,0,0,214,223.43a28.72,28.72,0,0,0,14.72-3.91c5.67-3.46,8.42-8.54,8.08-15.2s-3.62-11.17-9.36-14.15a36.74,36.74,0,0,0-12.5-3.61,105.82,105.82,0,0,0-24.71,0c-.86.09-1.72.23-2.71.36.21-1.82.41-3.51.62-5.21L191,159.57l2.76-21.73c.51-4,1-8,1.48-12,.09-.83.31-1.14,1.21-1.14q31.58,0,63.16,0h1v22.87H216.21c-1.49,0-1.46,0-1.65,1.44-.7,5.08-1.43,10.17-2.14,15.26-.06.42-.08.85-.1,1.07,3.08,0,6.07-.07,9.07,0,9.06.25,17.81,1.83,25.87,6.22q15.51,8.44,17.71,26c1.73,13.87-2.52,25.56-12.9,34.93a47.26,47.26,0,0,1-19.24,10.27c-9.83,2.76-19.81,3-29.88,1.69a70.92,70.92,0,0,1-18.42-4.62c-1-.4-2.3-.68-2.7-1.42s.17-2,.4-3q2-8.47,4-17C186.31,218.25,186.4,218,186.49,217.73Z" transform="translate(-109.31 -70.77)"></path></svg>