<svg xmlns="http://www.w3.org/2000/svg" id="Layer_1" data-name="Layer 1" viewBox="0 0 228.42 228.42"><defs><style>.cls-1{fill:#fff;}</style></defs><circle cx="114.21" cy="114.21" r="114.21"></circle><path class="cls-1" d="M204.22,174.3a5.39,5.39,0,0,0,.79-.49c5.28-5.21,11.74-7.82,19-8.65a39.44,39.44,0,0,1,17.76,1.69c11.66,4.1,19,12.29,22.17,24.13,2.86,10.77,2,21.35-3.07,31.36a39.72,39.72,0,0,1-27,21.35c-12.33,3-24.33,1.72-35.5-4.58-8.48-4.78-14.16-12.08-17.83-21a57.75,57.75,0,0,1-4.12-17.43,77.52,77.52,0,0,1,5.29-36.28c7.76-19,21.79-30.88,41.38-36.45a78.82,78.82,0,0,1,18.32-2.89c3.43-.15,6.88-.19,10.32-.31.83,0,1.1.23,1.1,1.11,0,6.35,0,12.69,0,19,0,.83-.21,1-1.05,1-3.46.07-6.94.17-10.39.44a54.92,54.92,0,0,0-14.87,3.18c-8.17,3-14.77,8-19,15.75a33.29,33.29,0,0,0-3.21,8.51C204.25,173.89,204.25,174,204.22,174.3ZM238,204.4c-.31-2.16-.47-4.35-.95-6.47a17.23,17.23,0,0,0-6.91-10.81c-6.4-4.43-15.9-3.57-21.67,1.91-3,2.89-5,6.28-5.15,10.6a34,34,0,0,0,2.09,12.79,20.6,20.6,0,0,0,6.08,8.91c6.17,5.1,18.3,6.09,23.76-5A29.75,29.75,0,0,0,238,204.4Z" transform="translate(-106.64 -70.78)"></path></svg>