<svg xmlns="http://www.w3.org/2000/svg" width="68" height="30" viewBox="0 0 68 30" fill="none"><path d="M6.23868 15.1168C4.44558 15.1168 2.36685 15.9404 1.24021 16.7946L2.27164 18.8689C3.17612 18.0758 4.636 17.4047 5.95306 17.4047C7.20664 17.4047 7.88897 17.8012 7.88897 18.6096C7.88897 19.1587 7.4288 19.4332 6.57191 19.54C3.33481 19.9366 0.795898 20.7907 0.795898 23.1854C0.795898 25.0767 2.20817 26.2359 4.39797 26.2359C5.96892 26.2359 7.36532 25.397 8.03179 24.2988V25.9308H10.9515V19.0824C10.9515 16.2607 8.90454 15.1168 6.23868 15.1168ZM5.14378 24.0395C4.31863 24.0395 3.90606 23.6582 3.90606 23.0176C3.90606 21.8279 5.28659 21.4313 7.80963 21.172C7.8255 22.7583 6.69886 24.0395 5.14378 24.0395ZM38.4828 17.1911V15.4218H35.5631V25.9308H38.6891V20.867C38.6891 18.4571 40.1966 17.7555 41.2597 17.7555C41.6723 17.7555 42.2277 17.8775 42.5927 18.1368L43.1639 15.3608C42.6879 15.1625 42.1801 15.1168 41.7675 15.1168C40.1648 15.1168 39.1493 15.8031 38.4828 17.1911ZM57.6674 15.1168C56.0171 15.1168 54.7794 16.0624 54.1288 16.9623C53.5258 15.7879 52.2723 15.1168 50.7489 15.1168C49.0986 15.1168 47.9561 16.0014 47.4166 17.0081V15.4218H44.4016V25.9308H47.5277V20.5162C47.5277 18.5791 48.5908 17.6487 49.5747 17.6487C50.4633 17.6487 51.2884 18.1978 51.2884 19.6315V25.9308H54.4303V20.5162C54.4303 18.5486 55.4618 17.6487 56.4932 17.6487C57.3183 17.6487 58.1911 18.2283 58.1911 19.6163V25.9308H61.3171V18.6706C61.3171 16.3065 59.6668 15.1168 57.6674 15.1168ZM21.9958 14.6439V15.4218H17.2512V14.3542C17.2512 12.9662 18.0763 12.5696 18.7904 12.5696C19.203 12.5696 19.7425 12.6611 20.1868 12.9052L21.1548 10.7851C20.5835 10.4648 19.6473 10.175 18.3937 10.175C16.3943 10.175 14.1252 11.2579 14.1252 14.6592V15.4371H12.3162V17.7555H14.1252V25.9308H17.2512V17.7402H21.9958V25.9308H25.1218V17.7402H27.9622V15.4218H25.1218V14.3542C25.1218 12.9662 25.947 12.5696 26.661 12.5696C27.4544 12.5696 28.0574 12.9052 28.0574 12.9052L29.0254 10.7851C29.0254 10.7851 28.0416 10.175 26.2643 10.175C24.2808 10.1597 21.9958 11.2426 21.9958 14.6439ZM29.8188 15.4218H32.9448V25.9308H29.8188V15.4218Z" fill="#101820"></path><path d="M48.035 0.763672C39.5932 0.763672 32.0716 6.39185 29.9453 13.6368H33.0079C34.7851 8.2374 40.8309 3.50912 48.035 3.50912C56.7943 3.50912 64.3475 9.91518 64.3475 19.8903C64.3475 22.1324 64.046 24.1458 63.4748 25.9303H66.4421L66.4739 25.8388C66.9658 23.9932 67.2038 21.9952 67.2038 19.8903C67.2038 8.77124 58.7778 0.763672 48.035 0.763672Z" fill="#4A4AF4"></path></svg>