<svg xmlns="http://www.w3.org/2000/svg" width="90" height="30" viewBox="0 0 90 30" fill="none"><rect width="90" height="30" rx="15" fill="black"></rect><path d="M12.4186 15.3372C12.4186 13.992 11.4318 13.0436 10.2289 13.0436C9.01663 13.0436 8.03928 14.0114 8.03928 15.3372C8.03928 16.6533 9.02602 17.6307 10.2289 17.6307C11.4318 17.6404 12.4186 16.692 12.4186 15.3372ZM12.4373 19.3533V18.3081C11.8359 19.0339 10.9525 19.4791 9.8906 19.4791C7.68217 19.4791 6 17.7178 6 15.3372C6 12.9759 7.73855 11.1855 9.93759 11.1855C10.9713 11.1855 11.8453 11.6307 12.4373 12.3372V11.3307H14.4202V19.3533H12.4373Z" fill="white"></path><path d="M24.062 17.5732C23.3666 17.5732 23.1787 17.3119 23.1787 16.6441V13.0828H24.4567V11.3312H23.1787V9.37639H21.1488V11.3312H18.5269V10.8474C18.5269 10.1699 18.7806 9.91833 19.4948 9.91833H19.9365V8.35059H18.9591C17.277 8.35059 16.4876 8.89252 16.4876 10.5667V11.3312H15.3599V13.0828H16.4876V19.3538H18.5175V13.0828H21.1394V17.0119C21.1394 18.6474 21.769 19.3538 23.4136 19.3538H24.4661V17.5732H24.062Z" fill="white"></path><path d="M31.3545 14.621C31.2136 13.5759 30.3584 12.9565 29.3528 12.9565C28.3567 12.9565 27.5297 13.5662 27.323 14.621H31.3545ZM27.3042 15.8694C27.4545 17.0597 28.3003 17.7275 29.3904 17.7275C30.2456 17.7275 30.9034 17.321 31.2981 16.6823H33.3844C32.8957 18.3855 31.3639 19.4791 29.3528 19.4791C26.9189 19.4791 25.2085 17.7759 25.2085 15.3565C25.2085 12.9372 27.0128 11.1855 29.3998 11.1855C31.8056 11.1855 33.5442 12.9468 33.5442 15.3565C33.5442 15.5307 33.5254 15.7049 33.4972 15.8694H27.3042Z" fill="white"></path><path d="M46.466 15.3372C46.466 14.0404 45.4793 13.0436 44.2764 13.0436C43.0641 13.0436 42.0868 14.0114 42.0868 15.3372C42.0868 16.6533 43.0735 17.6307 44.2764 17.6307C45.4793 17.6404 46.466 16.6436 46.466 15.3372ZM40.0757 11.3307H42.0586V12.3759C42.66 11.6404 43.5434 11.1855 44.6053 11.1855C46.7856 11.1855 48.4959 12.9662 48.4959 15.3275C48.4959 17.6888 46.7574 19.4888 44.5583 19.4888C43.5434 19.4888 42.707 19.0823 42.1244 18.4146V22.663H40.0757V11.3307Z" fill="white"></path><path d="M55.6476 15.3372C55.6476 13.992 54.6608 13.0436 53.4579 13.0436C52.2456 13.0436 51.2683 14.0114 51.2683 15.3372C51.2683 16.6533 52.255 17.6307 53.4579 17.6307C54.6608 17.6404 55.6476 16.692 55.6476 15.3372ZM55.6664 19.3533V18.3081C55.0649 19.0339 54.1815 19.4791 53.1196 19.4791C50.9112 19.4791 49.229 17.7178 49.229 15.3372C49.229 12.9759 50.9676 11.1855 53.1666 11.1855C54.2003 11.1855 55.0743 11.6307 55.6664 12.3372V11.3307H57.6492V19.3533H55.6664Z" fill="white"></path><path d="M36.4951 12.1146C36.4951 12.1146 37.0026 11.1855 38.2337 11.1855C38.7599 11.1855 39.1076 11.3694 39.1076 11.3694V13.421C39.1076 13.421 38.3652 12.9662 37.6792 13.0533C36.9932 13.1501 36.5609 13.7694 36.5609 14.6114V19.363H34.5122V11.3307H36.4951V12.1146Z" fill="white"></path><path d="M66.9152 11.3311L61.9063 22.6343H59.7918L61.7559 18.2698L58.4292 11.3407H60.8256L62.7709 15.9762L64.7632 11.3407H66.9152V11.3311Z" fill="white"></path><path d="M82.9101 11.1469L77.9388 8.29207C76.4821 7.45981 74.659 8.50497 74.659 10.1792V10.4695C74.659 10.7308 74.8 10.9824 75.0349 11.1082L75.9747 11.6501C76.2472 11.805 76.5949 11.6114 76.5949 11.2921V10.5663C76.5949 10.1985 76.9896 9.97594 77.3091 10.1598L81.6132 12.6276C81.9327 12.8114 81.9327 13.2663 81.6132 13.4405L77.3091 15.9082C76.9896 16.0921 76.5949 15.8598 76.5949 15.5017V15.1146C76.5949 13.4405 74.7718 12.3953 73.3151 13.2276L68.3532 16.0824C66.8966 16.9146 66.8966 19.0146 68.3532 19.8469L73.3151 22.7017C74.7718 23.534 76.5949 22.4888 76.5949 20.8146V20.5243C76.5949 20.263 76.4539 20.0211 76.219 19.8856L75.2792 19.3437C75.0067 19.1888 74.659 19.3824 74.659 19.7017V20.4276C74.659 20.7953 74.2643 21.0179 73.9448 20.834L69.6407 18.3663C69.3212 18.1824 69.3212 17.7276 69.6407 17.5437L73.9448 15.0856C74.2643 14.9017 74.659 15.134 74.659 15.4921V15.8792C74.659 17.5534 76.4821 18.5985 77.9388 17.7663L82.9007 14.9114C84.3667 14.0792 84.3667 11.9888 82.9101 11.1469Z" fill="white"></path></svg>