<svg xmlns="http://www.w3.org/2000/svg" width="54" height="31" viewBox="0 0 54 31" fill="none"><g clip-path="url(#clip0_8819_52277)"><path d="M7.20857 8.9215C8.22107 9.007 9.23357 8.4085 9.86807 7.64575C10.4913 6.86725 10.9031 5.812 10.8018 4.75C9.89957 4.79275 8.79482 5.3485 8.16257 6.12925C7.57757 6.79525 7.08032 7.89325 7.20857 8.9215ZM4.70207 22.8535C5.82257 22.8107 6.26357 22.1178 7.61357 22.1178C8.97257 22.1178 9.36857 22.8535 10.5498 22.8377C11.7738 22.813 12.5411 21.7262 13.2903 20.6102C14.1408 19.3435 14.4963 18.1173 14.5143 18.0498C14.4896 18.025 12.1518 17.116 12.1248 14.3755C12.1001 12.0805 13.9743 10.9915 14.0553 10.924C13.0001 9.331 11.3553 9.16 10.7816 9.11725L10.7861 9.1195C9.31682 9.03175 8.06132 9.9655 7.36832 9.9655C6.65957 9.9655 5.59757 9.16 4.43207 9.18475C2.92457 9.21175 1.52282 10.078 0.75557 11.455C-0.83068 14.2202 0.34157 18.3062 1.87607 20.5585C2.62757 21.67 3.52082 22.8962 4.70207 22.8535ZM32.0621 14.1708H34.3661C34.5596 13.1425 35.4956 12.4653 36.7803 12.4653C38.3418 12.4653 39.2193 13.201 39.2193 14.5623V15.487L36.0311 15.685C33.0701 15.865 31.4658 17.098 31.4658 19.2378C31.4748 21.3955 33.1263 22.8333 35.4978 22.8355C37.1021 22.8355 38.5871 22.0142 39.2598 20.7047H39.3093V22.7095H41.6718V14.4025C41.6718 11.9973 39.7728 10.438 36.8546 10.438C34.1456 10.438 32.1408 12.0108 32.0621 14.1708ZM39.2283 18.1892C39.2283 19.7485 37.9188 20.86 36.1908 20.86C34.8318 20.86 33.9633 20.1917 33.9633 19.1815C33.9633 18.1262 34.7981 17.521 36.3933 17.4265L39.2283 17.2465V18.1892ZM19.2551 6.01675V22.7073H21.8111V17.0035H25.3458C28.5768 17.0035 30.8381 14.7512 30.8381 11.4977C30.8381 8.24425 28.6128 6.01675 25.4291 6.01675H19.2551ZM28.2416 11.5068C28.2416 13.6128 26.9771 14.83 24.7473 14.83H21.8111V8.2015H24.7563C26.9748 8.2015 28.2416 9.3985 28.2416 11.5068Z" fill="black"></path><path d="M48.3458 20.4546L45.342 10.5996H42.6758L46.9958 22.7519L46.7595 23.4876C46.3703 24.7364 45.738 25.2269 44.6085 25.2269C44.406 25.2269 44.019 25.2021 43.857 25.1841V27.1889C44.01 27.2249 44.6445 27.2496 44.838 27.2496L44.8358 27.2451C47.3243 27.2451 48.4965 26.2776 49.5203 23.3571L54 10.5996H51.4013L48.3975 20.4546H48.3458Z" fill="black"></path></g><defs><clipPath id="clip0_8819_52277"><rect width="54" height="31" fill="white"></rect></clipPath></defs></svg>