<svg xmlns="http://www.w3.org/2000/svg" id="Layer_1" data-name="Layer 1" viewBox="0 0 447.25 369.82"><defs><style>.cls-1{fill:#fff;}</style></defs><path d="M450,156.72c-.31.66-.64,1.31-.94,2-2.2,5-5.94,7.89-11.45,8.28-1,.07-2.07.07-3.11.07q-129.19,0-258.39-.06a20.41,20.41,0,0,1-8.44-1.6c-4.72-2.23-7-6.47-6.92-11.72A12.44,12.44,0,0,1,168.34,142c7.92-3.7,15.92-7.23,23.89-10.82L297.91,83.56c1.7-.77,3.44-1.43,5.17-2.14h4.52c2,.83,4,1.63,5.92,2.51q62.89,28.33,125.8,56.63c5.22,2.34,9.16,5.39,10.68,11.06Z" transform="translate(-2.75 -1.49)"></path><path d="M171.41,371.3c-5-1.79-9-4.61-10.32-10.17a13,13,0,0,1,10.51-15.94,35.22,35.22,0,0,1,5.34-.34h256.4c10.05,0,13.35,2.33,16.66,11.74v2.83c-1.3,6.32-5.12,10.23-11.3,11.89Z" transform="translate(-2.75 -1.49)"></path><path d="M193.26,192.28c-1.35-.14-2.75-.22-4.12-.44a6.29,6.29,0,0,1-5.34-6,6.2,6.2,0,0,1,4.79-6.46,19,19,0,0,1,4.19-.43q112.43,0,224.85,0c.48,0,.95,0,1.42,0,4.66.12,7.65,2.62,7.76,6.48s-2.73,6.38-7.5,6.69c-.64.05-1.28.14-2.08.22v118.4c1.16,0,2.25,0,3.35,0a13.09,13.09,0,0,1,.53,26.16c-1.13.08-2.26.1-3.39.1q-112.43,0-224.85,0a22.31,22.31,0,0,1-8-1.23,12.71,12.71,0,0,1-7.55-14.06,13,13,0,0,1,12.31-10.9c1.12-.06,2.25,0,3.61,0Zm92.53,0V310.44h39V192.25ZM390.48,310.53V192.3H351.42V310.53ZM220.14,192.25V310.49h38.95V192.25Z" transform="translate(-2.75 -1.49)"></path><path d="M78.23,81c8.18-21.55,14.45-41.15,29.19-56.59,16.16-16.95,35-24.49,58.86-22.64,21.47,1.65,40.43,9,58.43,19.42,8.14,4.72,11.75,1.28,15.91-4.57,7.9-11.09,8.24-11.16,13.4.93,8.85,20.7,17.31,41.57,26.56,63.88-27.74-.62-53.78-8-81.62-8.4,3.78-6.34,5.94-11.57,10.57-15.42,2.31-1.92,3.52-4.12-.95-6.64-18.38-10.32-37.2-18.29-58.91-17.23-15.38.75-28,7.13-38.21,18.18C101.9,62.31,91.26,71.22,78.23,81Z" transform="translate(-2.75 -1.49)"></path><path d="M30.06,98.62C24.69,109.48,20.5,118,16.28,126.45a5.16,5.16,0,0,0,.46,5.71c.42.57,1.76,1.21,1.72,1.28-4.92,8.64,6.57,11.48,6.46,17-.21,10,6.91,10.18,12.64,12.06,20.87,6.86,41.87,13.31,62.84,19.83,3.4,1,6.93,1.92,9.15-2.4.48-.94,1-2.71,3.27-1.14,3.07,2.07,6.79,3.18,10.24,4.68,5.06,2.2,6.81,4.68,3.72,10.59s-5.8,4-10.23,2.59C97.79,190.57,78.87,185,60,179.18c-17.16-5.3-34.32-10.6-51.43-16.07-4.27-1.36-6.95-4.19-5.39-9.2,5.39-17.4,10.67-34.83,16.29-52.15C21.28,96.22,25.46,101.16,30.06,98.62Z" transform="translate(-2.75 -1.49)"></path><path d="M77.29,162.75c-8.94,5.21-17.7.35-22.1-6-.66-.95-2.15-1.71-1.12-3.12a2.57,2.57,0,0,1,3.44-.46c2.53,1.35,5.68,1.15,7.52,4.36C67.6,162,74.17,157.71,77.29,162.75Z" transform="translate(-2.75 -1.49)"></path><path d="M161.24,124c-12.65-5.83-25.29-11.71-37.85-17.74C110.2,99.87,97.16,93.22,84,86.9Q69.47,80,54.71,73.55c-2.27-1-5.32-2.73-7,.93-8.19,17.43-16.25,34.91-24.45,52.33-1.41,3-.61,4.48,2.32,5.84C37.05,138,48.47,143.53,59.91,149c22.22,10.65,44.38,21.42,66.68,31.88,3.69,1.72,7.53,4.4,12.11,2.62,2.34-.84,2.41-3.11,3.26-4.87,3.26-6.7,6.62-13.37,9.83-20.09,4-8.33,8-16.65,11.74-25.07C165.11,130,166.21,126.24,161.24,124Zm-13.53,21.48c-3.07,5.41-4.8,11.52-8.92,16.76-7-2.63-11.52,2.46-17.29,5-3.29,1.42-9.39-3.24-14.08-5.48C89.6,153.18,71.89,144.45,54,136c-4.73-2.23-9.14-4-7.71-10.66.7-3.27-1.4-6.5-3.39-8.1-4.29-3.47-3.73-6-.61-9.68,1.39-1.64,1.85-4.14,2.5-6.31,1.24-4.2,2.93-6.65,8.09-4.58,4,1.61,7.15-.93,9.88-3.9,2.41-2.61,4.4-3.49,8.62-1.39,21.29,10.57,43,20.27,64.51,30.44,3.46,1.63,7.9,2.78,5.45,8.91-1.15,2.87,1.74,5.93,3.23,8.84C145.59,141.52,149.6,142.09,147.71,145.43Z" transform="translate(-2.75 -1.49)"></path><path d="M87.36,112.84c10.55-4.61,19.68-.94,24.63,8.32s-.32,21.48-9.83,25.42c-8.09,3.36-20.14-2-23.72-10.44C74.77,127.42,79,116.51,87.36,112.84Z" transform="translate(-2.75 -1.49)"></path><path class="cls-1" d="M95.08,133.82c-1.56-2.27-2.39-4.09-3.76-5.33-2.56-2.31-2.51-4.67-.88-7.34,2.16-3.52,6-2.13,8.82-2.22,2.66-.09,3.52,3.71,4.8,5.93.47.83-.47,3.82-3.11,2.4a67.44,67.44,0,0,1-5.71-3.81c-.32,3,1.63,4,3.17,5.6,4.19,4.19,3.21,8.45-2.72,9.56-1.63.31-8.21,8.62-7.45-2.14.13-1.72-4.45-2.14-1.62-4.61s4.36,0,6,2C92.76,134.07,93.49,133.86,95.08,133.82Z" transform="translate(-2.75 -1.49)"></path></svg>