<svg xmlns="http://www.w3.org/2000/svg" width="19" height="19" viewBox="0 0 19 19" fill="none"><g id="Calendar"><path id="Vector" d="M9.49992 15.0415C9.6565 15.0415 9.80956 14.9951 9.93974 14.9081C10.0699 14.8211 10.1714 14.6975 10.2313 14.5528C10.2912 14.4081 10.3069 14.249 10.2764 14.0954C10.2458 13.9418 10.1704 13.8008 10.0597 13.69C9.94899 13.5793 9.80793 13.5039 9.65436 13.4734C9.5008 13.4428 9.34162 13.4585 9.19696 13.5184C9.0523 13.5784 8.92866 13.6798 8.84167 13.81C8.75468 13.9402 8.70825 14.0933 8.70825 14.2498C8.70825 14.4598 8.79166 14.6612 8.94013 14.8096C9.08859 14.9581 9.28996 15.0415 9.49992 15.0415ZM13.4583 15.0415C13.6148 15.0415 13.7679 14.9951 13.8981 14.9081C14.0283 14.8211 14.1297 14.6975 14.1897 14.5528C14.2496 14.4081 14.2653 14.249 14.2347 14.0954C14.2042 13.9418 14.1288 13.8008 14.018 13.69C13.9073 13.5793 13.7663 13.5039 13.6127 13.4734C13.4591 13.4428 13.3 13.4585 13.1553 13.5184C13.0106 13.5784 12.887 13.6798 12.8 13.81C12.713 13.9402 12.6666 14.0933 12.6666 14.2498C12.6666 14.4598 12.75 14.6612 12.8985 14.8096C13.0469 14.9581 13.2483 15.0415 13.4583 15.0415ZM13.4583 11.8748C13.6148 11.8748 13.7679 11.8284 13.8981 11.7414C14.0283 11.6544 14.1297 11.5308 14.1897 11.3861C14.2496 11.2415 14.2653 11.0823 14.2347 10.9287C14.2042 10.7752 14.1288 10.6341 14.018 10.5234C13.9073 10.4127 13.7663 10.3373 13.6127 10.3067C13.4591 10.2762 13.3 10.2918 13.1553 10.3518C13.0106 10.4117 12.887 10.5132 12.8 10.6433C12.713 10.7735 12.6666 10.9266 12.6666 11.0832C12.6666 11.2931 12.75 11.4945 12.8985 11.643C13.0469 11.7914 13.2483 11.8748 13.4583 11.8748ZM9.49992 11.8748C9.6565 11.8748 9.80956 11.8284 9.93974 11.7414C10.0699 11.6544 10.1714 11.5308 10.2313 11.3861C10.2912 11.2415 10.3069 11.0823 10.2764 10.9287C10.2458 10.7752 10.1704 10.6341 10.0597 10.5234C9.94899 10.4127 9.80793 10.3373 9.65436 10.3067C9.5008 10.2762 9.34162 10.2918 9.19696 10.3518C9.0523 10.4117 8.92866 10.5132 8.84167 10.6433C8.75468 10.7735 8.70825 10.9266 8.70825 11.0832C8.70825 11.2931 8.79166 11.4945 8.94013 11.643C9.08859 11.7914 9.28996 11.8748 9.49992 11.8748ZM15.0416 2.37484H14.2499V1.58317C14.2499 1.37321 14.1665 1.17184 14.018 1.02338C13.8696 0.874911 13.6682 0.791504 13.4583 0.791504C13.2483 0.791504 13.0469 0.874911 12.8985 1.02338C12.75 1.17184 12.6666 1.37321 12.6666 1.58317V2.37484H6.33325V1.58317C6.33325 1.37321 6.24984 1.17184 6.10138 1.02338C5.95291 0.874911 5.75155 0.791504 5.54158 0.791504C5.33162 0.791504 5.13026 0.874911 4.98179 1.02338C4.83333 1.17184 4.74992 1.37321 4.74992 1.58317V2.37484H3.95825C3.32836 2.37484 2.72427 2.62506 2.27887 3.07046C1.83347 3.51586 1.58325 4.11995 1.58325 4.74984V15.8332C1.58325 16.4631 1.83347 17.0672 2.27887 17.5125C2.72427 17.9579 3.32836 18.2082 3.95825 18.2082H15.0416C15.6715 18.2082 16.2756 17.9579 16.721 17.5125C17.1664 17.0672 17.4166 16.4631 17.4166 15.8332V4.74984C17.4166 4.11995 17.1664 3.51586 16.721 3.07046C16.2756 2.62506 15.6715 2.37484 15.0416 2.37484ZM15.8333 15.8332C15.8333 16.0431 15.7498 16.2445 15.6014 16.393C15.4529 16.5414 15.2515 16.6248 15.0416 16.6248H3.95825C3.74829 16.6248 3.54693 16.5414 3.39846 16.393C3.24999 16.2445 3.16659 16.0431 3.16659 15.8332V8.70817H15.8333V15.8332ZM15.8333 7.12484H3.16659V4.74984C3.16659 4.53987 3.24999 4.33851 3.39846 4.19004C3.54693 4.04158 3.74829 3.95817 3.95825 3.95817H4.74992V4.74984C4.74992 4.9598 4.83333 5.16116 4.98179 5.30963C5.13026 5.4581 5.33162 5.5415 5.54158 5.5415C5.75155 5.5415 5.95291 5.4581 6.10138 5.30963C6.24984 5.16116 6.33325 4.9598 6.33325 4.74984V3.95817H12.6666V4.74984C12.6666 4.9598 12.75 5.16116 12.8985 5.30963C13.0469 5.4581 13.2483 5.5415 13.4583 5.5415C13.6682 5.5415 13.8696 5.4581 14.018 5.30963C14.1665 5.16116 14.2499 4.9598 14.2499 4.74984V3.95817H15.0416C15.2515 3.95817 15.4529 4.04158 15.6014 4.19004C15.7498 4.33851 15.8333 4.53987 15.8333 4.74984V7.12484ZM5.54158 11.8748C5.69816 11.8748 5.85122 11.8284 5.98141 11.7414C6.1116 11.6544 6.21307 11.5308 6.27299 11.3861C6.33291 11.2415 6.34859 11.0823 6.31804 10.9287C6.28749 10.7752 6.21209 10.6341 6.10138 10.5234C5.99066 10.4127 5.8496 10.3373 5.69603 10.3067C5.54246 10.2762 5.38329 10.2918 5.23863 10.3518C5.09397 10.4117 4.97033 10.5132 4.88334 10.6433C4.79635 10.7735 4.74992 10.9266 4.74992 11.0832C4.74992 11.2931 4.83333 11.4945 4.98179 11.643C5.13026 11.7914 5.33162 11.8748 5.54158 11.8748ZM5.54158 15.0415C5.69816 15.0415 5.85122 14.9951 5.98141 14.9081C6.1116 14.8211 6.21307 14.6975 6.27299 14.5528C6.33291 14.4081 6.34859 14.249 6.31804 14.0954C6.28749 13.9418 6.21209 13.8008 6.10138 13.69C5.99066 13.5793 5.8496 13.5039 5.69603 13.4734C5.54246 13.4428 5.38329 13.4585 5.23863 13.5184C5.09397 13.5784 4.97033 13.6798 4.88334 13.81C4.79635 13.9402 4.74992 14.0933 4.74992 14.2498C4.74992 14.4598 4.83333 14.6612 4.98179 14.8096C5.13026 14.9581 5.33162 15.0415 5.54158 15.0415Z" fill="white"></path></g></svg>