<svg xmlns="http://www.w3.org/2000/svg" width="21" height="14" viewBox="0 0 21 14" fill="none"><path d="M21 3.2838V2.20478C21 0.968773 19.9717 -0.0332031 18.7031 -0.0332031H2.29688C1.02834 -0.0332031 0 0.968773 0 2.20478V3.2838C0 3.39414 0.091834 3.48362 0.205078 3.48362H20.7949C20.9082 3.48362 21 3.39414 21 3.2838Z" fill="black"></path><path d="M0 4.96252V11.7963C0 13.0324 1.02834 14.0343 2.29688 14.0343H18.7031C19.9717 14.0343 21 13.0324 21 11.7963V4.96252C21 4.85217 20.9082 4.7627 20.7949 4.7627H0.205078C0.091834 4.7627 0 4.85217 0 4.96252ZM5.25 10.1978C5.25 10.5509 4.95616 10.8372 4.59375 10.8372H3.9375C3.57509 10.8372 3.28125 10.5509 3.28125 10.1978V9.55837C3.28125 9.20525 3.57509 8.91895 3.9375 8.91895H4.59375C4.95616 8.91895 5.25 9.20525 5.25 9.55837V10.1978Z" fill="black"></path></svg>