<svg xmlns="http://www.w3.org/2000/svg" width="1202" height="216" viewBox="0 0 1202 216" fill="none"><g filter="url(#filter0_dd_11442_4145)"><g clip-path="url(#clip0_11442_4145)"><path d="M953 41C953 29.9543 961.954 21 973 21H1141C1152.05 21 1161 29.9543 1161 41V135C1161 146.046 1152.05 155 1141 155H973C961.954 155 953 146.046 953 135V41Z" fill="white"></path><path d="M1143.17 22H970.829C960.982 22 953 30.6485 953 41.3171V134.683C953 145.351 960.982 154 970.829 154H1143.17C1153.02 154 1161 145.351 1161 134.683V88V41.3171C1161 30.6485 1153.02 22 1143.17 22Z" fill="white"></path><path d="M1150.5 21H962.918C951.917 21 943 29.9425 943 40.9736V135.026C943 146.058 951.917 155 962.918 155H1150.5C1161.5 155 1170.41 146.058 1170.41 135.026V40.9736C1170.41 29.9425 1161.5 21 1150.5 21Z" stroke="#D6DCE5" stroke-width="0.634328"></path><path d="M1003.32 111.618C1003.32 113.543 1004.68 113.765 1005.91 113.765C1011.27 113.765 1013.04 109.698 1013.04 105.976C1013.04 101.311 1010.06 97.9414 1005.26 97.9414C1004.24 97.9414 1003.77 98.0127 1003.32 98.0403V111.618ZM1000.88 99.91C1000.88 97.6657 999.712 97.8133 998.58 97.7873V97.1436C999.55 97.189 1000.55 97.1889 1001.52 97.1889C1002.57 97.1889 1003.98 97.1436 1005.82 97.1436C1012.28 97.1436 1015.79 101.459 1015.79 105.879C1015.79 108.35 1014.35 114.564 1005.53 114.564C1004.26 114.564 1003.09 114.516 1001.93 114.516C1000.8 114.516 999.712 114.542 998.58 114.564V113.914C1000.08 113.765 1000.8 113.715 1000.88 112.019V99.91Z" fill="#231F20"></path><path d="M1019.33 99.3128C1018.66 99.3128 1018.1 98.7129 1018.1 98.0659C1018.1 97.4399 1018.69 96.8643 1019.33 96.8643C1019.97 96.8643 1020.54 97.3897 1020.54 98.0659C1020.54 98.7388 1019.99 99.3128 1019.33 99.3128ZM1016.66 113.914H1017.13C1017.82 113.914 1018.32 113.914 1018.32 113.087V106.326C1018.32 105.228 1017.95 105.078 1017.03 104.581V104.181C1018.19 103.829 1019.58 103.359 1019.7 103.281C1019.86 103.184 1020.02 103.158 1020.13 103.158C1020.26 103.158 1020.31 103.305 1020.31 103.506V113.087C1020.31 113.914 1020.86 113.914 1021.56 113.914H1021.98V114.564C1021.14 114.564 1020.26 114.515 1019.37 114.515C1018.47 114.515 1017.58 114.541 1016.66 114.564V113.914Z" fill="#231F20"></path><path d="M1024.35 106.476C1024.35 105.555 1024.08 105.304 1022.9 104.832V104.355C1023.97 104.006 1024.99 103.679 1026.18 103.158C1026.26 103.158 1026.34 103.207 1026.34 103.403V105.031C1027.75 104.006 1028.98 103.158 1030.64 103.158C1032.76 103.158 1033.51 104.704 1033.51 106.651V113.089C1033.51 113.916 1034.06 113.916 1034.75 113.916H1035.2V114.565C1034.33 114.565 1033.46 114.516 1032.57 114.516C1031.66 114.516 1030.77 114.542 1029.87 114.565V113.916H1030.32C1031.02 113.916 1031.52 113.916 1031.52 113.089V106.628C1031.52 105.203 1030.64 104.506 1029.22 104.506C1028.43 104.506 1027.17 105.153 1026.34 105.704V113.089C1026.34 113.916 1026.89 113.916 1027.59 113.916H1028.03V114.565C1027.17 114.565 1026.3 114.516 1025.39 114.516C1024.5 114.516 1023.59 114.542 1022.71 114.565V113.916H1023.16C1023.85 113.916 1024.35 113.916 1024.35 113.089V106.476Z" fill="#231F20"></path><path d="M1041.5 106.875C1042.13 106.875 1042.19 106.552 1042.19 106.254C1042.19 104.978 1041.42 103.954 1040.02 103.954C1038.52 103.954 1037.47 105.077 1037.16 106.875H1041.5ZM1037.1 107.678C1037.05 107.901 1037.05 108.274 1037.1 109.122C1037.24 111.497 1038.76 113.442 1040.75 113.442C1042.13 113.442 1043.19 112.692 1044.12 111.769L1044.46 112.119C1043.32 113.64 1041.9 114.938 1039.86 114.938C1035.9 114.938 1035.11 111.094 1035.11 109.499C1035.11 104.606 1038.39 103.158 1040.12 103.158C1042.14 103.158 1044.31 104.43 1044.34 107.074C1044.34 107.228 1044.34 107.376 1044.31 107.527L1044.08 107.678H1037.1Z" fill="#231F20"></path><path d="M1044.91 113.914H1045.59C1046.28 113.914 1046.77 113.914 1046.77 113.087V106.075C1046.77 105.305 1045.86 105.154 1045.47 104.952V104.582C1047.3 103.807 1048.3 103.158 1048.51 103.158C1048.68 103.158 1048.74 103.23 1048.74 103.483V105.727H1048.79C1049.42 104.756 1050.45 103.158 1051.97 103.158C1052.6 103.158 1053.4 103.58 1053.4 104.48C1053.4 105.154 1052.93 105.756 1052.23 105.756C1051.46 105.756 1051.46 105.154 1050.58 105.154C1050.16 105.154 1048.77 105.727 1048.77 107.228V113.087C1048.77 113.914 1049.26 113.914 1049.95 113.914H1051.36V114.565C1049.98 114.542 1048.95 114.516 1047.87 114.516C1046.85 114.516 1045.81 114.542 1044.91 114.565V113.914Z" fill="#231F20"></path><path d="M1054.5 111.096C1054.82 112.742 1055.81 114.141 1057.63 114.141C1059.09 114.141 1059.64 113.241 1059.64 112.367C1059.64 109.424 1054.22 110.368 1054.22 106.353C1054.22 104.952 1055.34 103.158 1058.07 103.158C1058.88 103.158 1059.95 103.382 1060.92 103.881L1061.09 106.427H1060.51C1060.27 104.856 1059.4 103.954 1057.79 103.954C1056.81 103.954 1055.85 104.53 1055.85 105.604C1055.85 108.526 1061.63 107.626 1061.63 111.544C1061.63 113.191 1060.32 114.938 1057.36 114.938C1056.36 114.938 1055.19 114.591 1054.32 114.093L1054.04 111.221L1054.5 111.096Z" fill="#231F20"></path><path d="M1084.1 101.658H1083.49C1083.02 98.7391 1080.95 97.5667 1078.17 97.5667C1075.29 97.5667 1071.14 99.4867 1071.14 105.475C1071.14 110.52 1074.73 114.141 1078.56 114.141C1081.03 114.141 1083.07 112.445 1083.57 109.821L1084.14 109.97L1083.57 113.616C1082.52 114.266 1079.71 114.937 1078.06 114.937C1072.24 114.937 1068.56 111.17 1068.56 105.553C1068.56 100.437 1073.11 96.7656 1077.99 96.7656C1080.01 96.7656 1081.94 97.4159 1083.86 98.0888L1084.1 101.658Z" fill="#231F20"></path><path d="M1085.01 113.914H1085.48C1086.17 113.914 1086.68 113.914 1086.68 113.087V99.1917C1086.68 97.5669 1086.3 97.5166 1085.37 97.2426V96.842C1086.35 96.5177 1087.4 96.0717 1087.92 95.7685C1088.2 95.6193 1088.39 95.4912 1088.47 95.4912C1088.62 95.4912 1088.66 95.642 1088.66 95.8447V113.087C1088.66 113.914 1089.21 113.914 1089.91 113.914H1090.33V114.564C1089.49 114.564 1088.62 114.516 1087.73 114.516C1086.82 114.516 1085.93 114.542 1085.01 114.564V113.914Z" fill="#231F20"></path><path d="M1100.99 113.189C1100.99 113.642 1101.26 113.664 1101.69 113.664C1101.99 113.664 1102.36 113.642 1102.69 113.642V114.167C1101.62 114.266 1099.57 114.79 1099.1 114.939L1098.98 114.864V112.845C1097.48 114.068 1096.33 114.939 1094.57 114.939C1093.23 114.939 1091.84 114.068 1091.84 111.973V105.581C1091.84 104.929 1091.72 104.304 1090.35 104.181V103.708C1091.24 103.68 1093.23 103.534 1093.55 103.534C1093.83 103.534 1093.83 103.708 1093.83 104.256V110.695C1093.83 111.443 1093.83 113.59 1095.99 113.59C1096.83 113.59 1097.95 112.94 1099 112.072V105.352C1099 104.854 1097.8 104.582 1096.91 104.329V103.88C1099.15 103.729 1100.55 103.534 1100.8 103.534C1100.99 103.534 1100.99 103.708 1100.99 103.983V113.189Z" fill="#231F20"></path><path d="M1105.93 111.743C1105.93 112.694 1106.84 114.289 1108.51 114.289C1111.17 114.289 1112.29 111.667 1112.29 109.445C1112.29 106.752 1110.25 104.506 1108.31 104.506C1107.39 104.506 1106.61 105.106 1105.93 105.682V111.743ZM1105.93 104.954C1106.94 104.107 1108.28 103.16 1109.65 103.16C1112.53 103.16 1114.28 105.682 1114.28 108.399C1114.28 111.667 1111.9 114.939 1108.33 114.939C1106.48 114.939 1105.51 114.341 1104.87 114.067L1104.12 114.639L1103.61 114.365C1103.82 112.895 1103.95 111.443 1103.95 109.922V99.1921C1103.95 97.5672 1103.57 97.5153 1102.64 97.2413V96.8423C1103.64 96.518 1104.67 96.0721 1105.19 95.7672C1105.47 95.6197 1105.68 95.4932 1105.74 95.4932C1105.9 95.4932 1105.93 95.644 1105.93 95.8451V104.954Z" fill="#231F20"></path><path d="M998.562 129.077H998.74C999.225 129.077 999.743 129.013 999.743 128.304V121.19C999.743 120.481 999.225 120.416 998.74 120.416H998.562V120.003C999.08 120.003 999.905 120.06 1000.57 120.06C1001.25 120.06 1002.06 120.003 1002.69 120.003V120.416H1002.49C1002.01 120.416 1001.49 120.481 1001.49 121.19V128.304C1001.49 129.013 1002.01 129.077 1002.49 129.077H1002.69V129.488C1002.04 129.488 1001.23 129.434 1000.55 129.434C999.888 129.434 999.08 129.488 998.562 129.488V129.077Z" fill="#231F20"></path><path d="M1002.62 129.427L1002.64 129.137H1002.49C1002.02 129.137 1001.44 129.053 1001.44 128.302V121.188C1001.44 120.437 1002.02 120.353 1002.49 120.353H1002.62V120.066C1002.01 120.066 1001.21 120.118 1000.57 120.118C999.919 120.118 999.143 120.067 998.609 120.066V120.353H998.739C999.224 120.353 999.806 120.437 999.806 121.188V128.302C999.806 129.053 999.224 129.137 998.739 129.137H998.609V129.427C999.143 129.419 999.903 129.372 1000.55 129.372C1001.21 129.372 1001.99 129.422 1002.62 129.427ZM1002.68 129.544C1002.04 129.544 1001.21 129.49 1000.55 129.49C999.887 129.49 999.094 129.544 998.561 129.544H998.496V129.02H998.739C999.24 129.007 999.677 128.968 999.693 128.302V121.188C999.677 120.523 999.24 120.479 998.739 120.469H998.496V119.947H998.561C999.094 119.947 999.903 119.999 1000.57 119.999C1001.23 119.999 1002.04 119.947 1002.68 119.947H1002.75V120.469H1002.49C1002.01 120.479 1001.55 120.523 1001.55 121.188V128.302C1001.55 128.968 1002.01 129.007 1002.49 129.02H1002.75V129.544H1002.68Z" fill="#231F20"></path><path d="M1012 126.811L1012.02 126.784V121.69C1012.02 120.576 1011.24 120.416 1010.84 120.416H1010.54V120.004C1011.18 120.004 1011.81 120.059 1012.44 120.059C1012.99 120.059 1013.55 120.004 1014.1 120.004V120.416H1013.91C1013.33 120.416 1012.7 120.521 1012.7 122.138V128.32C1012.7 128.795 1012.71 129.268 1012.78 129.69H1012.26L1005.29 121.895V127.488C1005.29 128.673 1005.52 129.077 1006.57 129.077H1006.79V129.487C1006.21 129.487 1005.63 129.434 1005.05 129.434C1004.43 129.434 1003.82 129.487 1003.2 129.487V129.077H1003.4C1004.32 129.077 1004.61 128.443 1004.61 127.355V121.635C1004.61 120.875 1003.98 120.416 1003.38 120.416H1003.2V120.004C1003.72 120.004 1004.24 120.059 1004.76 120.059C1005.16 120.059 1005.56 120.004 1005.97 120.004L1012 126.811Z" fill="#231F20"></path><path d="M1011.97 126.782V126.777L1011.95 126.768L1011.97 126.782ZM1012.26 129.63H1012.71C1012.65 129.221 1012.65 128.767 1012.65 128.32V122.136C1012.65 120.507 1013.33 120.354 1013.91 120.354H1014.05V120.064C1013.5 120.067 1012.97 120.118 1012.44 120.118C1011.82 120.118 1011.21 120.067 1010.61 120.064V120.354H1010.84C1011.26 120.354 1012.08 120.539 1012.08 121.689L1012.06 126.823L1012.03 126.849L1011.98 126.893L1005.97 120.064C1005.56 120.064 1005.18 120.118 1004.76 120.118C1004.25 120.118 1003.75 120.067 1003.27 120.064L1003.25 120.354H1003.38C1004.01 120.354 1004.67 120.841 1004.67 121.634V127.353C1004.67 128.441 1004.37 129.134 1003.4 129.139L1003.27 129.134V129.427C1003.85 129.421 1004.45 129.37 1005.05 129.37C1005.61 129.37 1006.18 129.421 1006.73 129.427V129.139H1006.55C1005.5 129.134 1005.22 128.671 1005.22 127.488V121.741L1012.26 129.63ZM1012.78 129.748L1012.21 129.727L1005.34 122.046V127.488C1005.35 128.671 1005.55 129.006 1006.55 129.02H1006.86V129.542H1006.79C1006.21 129.542 1005.61 129.49 1005.05 129.49C1004.43 129.49 1003.82 129.542 1003.2 129.542H1003.14V129.02H1003.4C1004.29 129.014 1004.55 128.436 1004.55 127.353V121.634C1004.55 120.912 1003.96 120.471 1003.38 120.469H1003.14V119.947H1003.2C1003.72 119.947 1004.25 120.001 1004.76 120.001C1005.16 120.001 1005.55 119.947 1006.02 119.967L1011.97 126.685V121.689C1011.95 120.609 1011.24 120.479 1010.84 120.469H1010.48V119.947H1010.54C1011.18 119.947 1011.81 120.001 1012.44 120.001C1012.99 120.001 1013.55 119.947 1014.1 119.947H1014.17V120.469H1013.91C1013.34 120.487 1012.78 120.538 1012.76 122.136V128.32C1012.76 128.79 1012.76 129.265 1012.82 129.68L1012.84 129.748H1012.78Z" fill="#231F20"></path><path d="M1016.14 120.683C1015.12 120.683 1015.07 120.928 1014.88 121.919H1014.48C1014.52 121.541 1014.59 121.16 1014.64 120.765C1014.69 120.385 1014.72 120.004 1014.72 119.613H1015.04C1015.15 120.02 1015.48 120.004 1015.85 120.004H1022.84C1023.21 120.004 1023.55 119.991 1023.58 119.584L1023.89 119.641C1023.84 120.004 1023.79 120.372 1023.74 120.74C1023.73 121.105 1023.73 121.473 1023.73 121.84L1023.32 121.992C1023.29 121.486 1023.22 120.683 1022.32 120.683H1020.09V127.911C1020.09 128.96 1020.57 129.077 1021.22 129.077H1021.48V129.486C1020.94 129.486 1019.99 129.434 1019.26 129.434C1018.45 129.434 1017.5 129.486 1016.97 129.486V129.077H1017.22C1017.98 129.077 1018.36 129.012 1018.36 127.94V120.683H1016.14Z" fill="#231F20"></path><path d="M1021.48 129.543C1020.94 129.543 1019.99 129.489 1019.26 129.489C1018.45 129.489 1017.52 129.543 1016.98 129.543H1016.92V129.019H1017.24C1017.98 129.001 1018.28 128.993 1018.29 127.939V120.741H1016.12V120.626H1018.42V127.939C1018.42 129.027 1017.98 129.139 1017.24 129.139H1017.03V129.426C1017.56 129.421 1018.49 129.373 1019.26 129.373C1019.97 129.373 1020.88 129.421 1021.41 129.426V129.139H1021.22C1020.56 129.139 1020.04 128.979 1020.04 127.91V120.626H1022.32C1023.22 120.627 1023.34 121.401 1023.37 121.905L1023.66 121.797C1023.66 121.445 1023.66 121.09 1023.69 120.73C1023.73 120.383 1023.77 120.035 1023.82 119.688L1023.63 119.653C1023.56 120.047 1023.18 120.07 1022.84 120.065H1015.79C1015.46 120.065 1015.12 120.048 1014.99 119.671H1014.77C1014.77 120.047 1014.75 120.41 1014.69 120.773C1014.65 121.146 1014.59 121.505 1014.54 121.86H1014.83C1015.01 120.918 1015.12 120.61 1016.12 120.626V120.741C1015.14 120.762 1015.15 120.929 1014.93 121.934V121.98H1014.39L1014.41 121.91C1014.46 121.531 1014.54 121.15 1014.57 120.756C1014.62 120.379 1014.65 120.001 1014.65 119.611V119.552H1015.09V119.594C1015.19 119.938 1015.43 119.94 1015.79 119.948H1022.84C1023.21 119.94 1023.5 119.933 1023.51 119.578V119.517L1023.58 119.528L1023.97 119.588L1023.95 119.646C1023.9 120.011 1023.85 120.379 1023.81 120.741C1023.77 121.106 1023.77 121.472 1023.77 121.839V121.879L1023.74 121.897L1023.26 122.072V121.99C1023.22 121.482 1023.18 120.741 1022.32 120.741H1020.15V127.91C1020.17 128.935 1020.57 129.006 1021.22 129.019H1021.53V129.543H1021.48Z" fill="#231F20"></path><path d="M1024.32 129.077H1024.52C1025 129.077 1025.52 129.013 1025.52 128.304V121.19C1025.52 120.481 1025 120.416 1024.52 120.416H1024.32V120.003C1025.15 120.003 1026.57 120.06 1027.7 120.06C1028.83 120.06 1030.24 120.003 1031.16 120.003C1031.15 120.59 1031.16 121.488 1031.19 122.085L1030.79 122.194C1030.72 121.312 1030.56 120.606 1029.14 120.606H1027.25V124.161H1028.87C1029.67 124.161 1029.85 123.703 1029.93 122.969H1030.34C1030.32 123.499 1030.3 124.028 1030.3 124.556C1030.3 125.075 1030.32 125.589 1030.34 126.105L1029.93 126.186C1029.85 125.372 1029.82 124.842 1028.88 124.842H1027.25V128.006C1027.25 128.889 1028.04 128.889 1028.9 128.889C1030.53 128.889 1031.24 128.781 1031.65 127.232L1032.03 127.328C1031.86 128.051 1031.7 128.766 1031.57 129.488C1030.71 129.488 1029.14 129.434 1027.93 129.434C1026.71 129.434 1025.1 129.488 1024.32 129.488V129.077Z" fill="#231F20"></path><path d="M1031.52 129.426C1031.65 128.74 1031.79 128.054 1031.97 127.369L1031.7 127.303C1031.29 128.824 1030.5 128.959 1028.9 128.946C1028.06 128.946 1027.2 128.946 1027.2 128.003V124.781H1028.88C1029.82 124.77 1029.92 125.344 1029.98 126.117L1030.27 126.056C1030.26 125.556 1030.24 125.052 1030.24 124.556C1030.24 124.047 1030.26 123.537 1030.27 123.022H1029.98C1029.92 123.732 1029.69 124.228 1028.87 124.219H1027.2V120.542H1029.14C1030.55 120.534 1030.78 121.264 1030.84 122.115L1031.13 122.036C1031.11 121.652 1031.1 121.163 1031.1 120.711C1031.1 120.473 1031.1 120.257 1031.1 120.064C1030.19 120.067 1028.82 120.118 1027.7 120.118C1026.59 120.118 1025.21 120.067 1024.39 120.064V120.354H1024.52C1025 120.354 1025.58 120.437 1025.58 121.186V128.303C1025.58 129.051 1025 129.132 1024.52 129.139H1024.39V129.426C1025.18 129.422 1026.75 129.37 1027.93 129.37C1029.13 129.37 1030.65 129.422 1031.52 129.426ZM1031.57 129.542C1030.71 129.542 1029.14 129.487 1027.93 129.487C1026.72 129.487 1025.1 129.542 1024.32 129.542H1024.27V129.02H1024.52C1025 129.012 1025.46 128.967 1025.46 128.303V121.186C1025.46 120.526 1025 120.481 1024.52 120.469H1024.27V119.947H1024.32C1025.15 119.947 1026.57 120.001 1027.7 120.001C1028.83 120.001 1030.24 119.947 1031.16 119.947H1031.23V120.006C1031.21 120.21 1031.21 120.452 1031.21 120.711C1031.21 121.178 1031.23 121.69 1031.24 122.078V122.127L1031.21 122.14L1030.73 122.266V122.195C1030.65 121.314 1030.53 120.674 1029.14 120.661H1027.31V124.1H1028.87C1029.64 124.094 1029.79 123.693 1029.87 122.96L1029.89 122.908H1030.4V122.967C1030.37 123.497 1030.35 124.026 1030.35 124.556C1030.35 125.068 1030.37 125.586 1030.4 126.103V126.15L1030.35 126.161L1029.89 126.254L1029.87 126.19C1029.79 125.362 1029.77 124.909 1028.88 124.898L1027.31 124.895V128.003C1027.31 128.829 1028.03 128.826 1028.9 128.829C1030.53 128.821 1031.2 128.74 1031.6 127.214L1031.62 127.159L1031.66 127.172L1032.1 127.283L1032.08 127.34C1031.91 128.057 1031.76 128.777 1031.63 129.494L1031.62 129.542H1031.57Z" fill="#231F20"></path><path d="M1035.59 124.596H1036.26C1037.62 124.596 1038.34 124.082 1038.34 122.478C1038.34 121.272 1037.57 120.495 1036.37 120.495C1035.95 120.495 1035.79 120.537 1035.59 120.55V124.596ZM1033.86 121.446C1033.86 120.453 1033.31 120.416 1032.91 120.416H1032.65V120.004C1033.09 120.004 1033.93 120.059 1034.75 120.059C1035.56 120.059 1036.23 120.004 1036.94 120.004C1038.63 120.004 1040.15 120.466 1040.15 122.397C1040.15 123.618 1039.35 124.364 1038.28 124.789L1040.59 128.263C1040.98 128.838 1041.24 128.999 1041.9 129.077V129.485C1041.46 129.485 1041.03 129.434 1040.58 129.434C1040.15 129.434 1039.73 129.485 1039.31 129.485C1038.26 128.117 1037.37 126.648 1036.48 125.084H1035.59V127.99C1035.59 129.04 1036.08 129.077 1036.71 129.077H1036.95V129.485C1036.18 129.485 1035.4 129.434 1034.62 129.434C1033.98 129.434 1033.33 129.485 1032.65 129.485V129.077H1032.91C1033.4 129.077 1033.86 128.85 1033.86 128.344V121.446Z" fill="#231F20"></path><path d="M1036.26 124.536C1037.6 124.523 1038.28 124.058 1038.3 122.479C1038.28 121.293 1037.55 120.557 1036.37 120.551C1036 120.551 1035.84 120.583 1035.66 120.602V124.536H1036.26ZM1036.26 124.652H1035.53V120.492L1035.6 120.487C1035.77 120.473 1035.95 120.437 1036.37 120.437C1037.6 120.437 1038.41 121.241 1038.41 122.479C1038.41 124.099 1037.63 124.652 1036.26 124.652ZM1035.53 125.025H1036.52L1036.53 125.054C1037.42 126.617 1038.31 128.083 1039.31 129.427C1039.72 129.427 1040.16 129.372 1040.58 129.372C1041.01 129.372 1041.43 129.417 1041.85 129.424V129.126C1041.21 129.049 1040.92 128.858 1040.54 128.295L1038.18 124.759L1038.26 124.731C1039.31 124.313 1040.11 123.588 1040.11 122.393C1040.11 120.512 1038.64 120.071 1036.94 120.066C1036.23 120.066 1035.56 120.118 1034.75 120.118C1033.96 120.118 1033.15 120.067 1032.72 120.066V120.354H1032.89C1033.32 120.354 1033.91 120.422 1033.91 121.444V128.344C1033.91 128.89 1033.41 129.137 1032.89 129.137H1032.72V129.424C1033.36 129.422 1033.98 129.372 1034.62 129.372C1035.38 129.372 1036.14 129.422 1036.89 129.424V129.137H1036.71C1036.1 129.137 1035.53 129.061 1035.53 127.99V125.025ZM1041.9 129.542C1041.45 129.542 1041.03 129.49 1040.58 129.49C1040.17 129.49 1039.73 129.542 1039.27 129.523C1038.23 128.154 1037.33 126.696 1036.45 125.143H1035.66V127.99C1035.68 129.012 1036.08 129.004 1036.71 129.02H1037V129.542H1036.95C1036.18 129.542 1035.38 129.49 1034.62 129.49C1033.98 129.49 1033.33 129.542 1032.65 129.542H1032.6V129.02H1032.89C1033.4 129.015 1033.8 128.801 1033.8 128.344V121.444C1033.8 120.481 1033.32 120.482 1032.89 120.469H1032.6V119.947H1032.65C1033.1 119.947 1033.93 119.999 1034.75 119.999C1035.56 119.999 1036.21 119.947 1036.94 119.947C1038.65 119.947 1040.22 120.422 1040.22 122.393C1040.22 123.62 1039.41 124.386 1038.38 124.812L1040.64 128.229C1041.03 128.793 1041.25 128.934 1041.92 129.02L1041.97 129.025V129.542H1041.9Z" fill="#231F20"></path><path d="M1051.1 126.811L1051.13 126.784V121.69C1051.13 120.576 1050.36 120.416 1049.95 120.416H1049.64V120.004C1050.29 120.004 1050.91 120.059 1051.55 120.059C1052.1 120.059 1052.65 120.004 1053.22 120.004V120.416H1053.01C1052.44 120.416 1051.81 120.521 1051.81 122.138V128.32C1051.81 128.795 1051.81 129.268 1051.88 129.69H1051.37L1044.39 121.895V127.488C1044.39 128.673 1044.63 129.077 1045.67 129.077H1045.91V129.487C1045.31 129.487 1044.73 129.434 1044.15 129.434C1043.55 129.434 1042.92 129.487 1042.32 129.487V129.077H1042.5C1043.44 129.077 1043.71 128.443 1043.71 127.355V121.635C1043.71 120.875 1043.1 120.416 1042.48 120.416H1042.32V120.004C1042.82 120.004 1043.35 120.059 1043.87 120.059C1044.28 120.059 1044.66 120.004 1045.07 120.004L1051.1 126.811Z" fill="#231F20"></path><path d="M1051.07 126.782V126.777V126.768V126.782ZM1051.37 129.63H1051.81C1051.76 129.223 1051.75 128.767 1051.75 128.32V122.136C1051.75 120.507 1052.43 120.358 1053.01 120.354H1053.15V120.064C1052.62 120.067 1052.09 120.118 1051.55 120.118C1050.92 120.118 1050.32 120.067 1049.71 120.064V120.354H1049.95C1050.37 120.358 1051.18 120.539 1051.18 121.689L1051.16 126.823L1051.15 126.849L1051.1 126.896L1045.07 120.064C1044.66 120.064 1044.28 120.118 1043.87 120.118C1043.37 120.118 1042.85 120.067 1042.37 120.064V120.354H1042.48C1043.13 120.358 1043.77 120.838 1043.77 121.634V127.352C1043.77 128.441 1043.47 129.134 1042.5 129.139H1042.37V129.426C1042.95 129.421 1043.56 129.37 1044.15 129.37C1044.71 129.37 1045.28 129.421 1045.84 129.426V129.139H1045.67C1044.6 129.139 1044.34 128.673 1044.34 127.488V121.741L1051.37 129.63ZM1051.89 129.748L1051.33 129.727L1044.45 122.046V127.488C1044.47 128.673 1044.65 129.006 1045.67 129.02H1045.96V129.542H1045.89C1045.31 129.542 1044.73 129.487 1044.15 129.487C1043.55 129.487 1042.92 129.542 1042.32 129.542H1042.25V129.02H1042.5C1043.39 129.015 1043.65 128.436 1043.66 127.352V121.634C1043.66 120.909 1043.06 120.471 1042.48 120.469H1042.25V119.947H1042.32C1042.82 119.947 1043.35 120.001 1043.87 120.001C1044.26 120.001 1044.66 119.947 1045.12 119.963L1051.07 126.685V121.689C1051.07 120.609 1050.34 120.476 1049.95 120.469H1049.6V119.947H1049.64C1050.29 119.947 1050.92 120.001 1051.55 120.001C1052.1 120.001 1052.65 119.947 1053.22 119.947H1053.27V120.469H1053.01C1052.46 120.484 1051.88 120.538 1051.86 122.136V128.32C1051.86 128.79 1051.88 129.26 1051.94 129.68L1051.96 129.748H1051.89Z" fill="#231F20"></path><path d="M1057.37 121.525H1057.34L1056.08 125.37H1058.62L1057.37 121.525ZM1055.4 127.543C1055.26 128.004 1055.09 128.36 1055.09 128.6C1055.09 129.011 1055.66 129.076 1056.11 129.076H1056.26V129.484C1055.71 129.458 1055.16 129.432 1054.63 129.432C1054.12 129.432 1053.64 129.458 1053.15 129.484V129.076H1053.24C1053.77 129.076 1054.22 128.764 1054.42 128.193L1056.58 121.963C1056.76 121.459 1057 120.781 1057.08 120.275C1057.52 120.128 1058.05 119.857 1058.31 119.693C1058.36 119.678 1058.38 119.667 1058.43 119.667C1058.46 119.667 1058.49 119.667 1058.52 119.706C1058.56 119.815 1058.6 119.938 1058.65 120.046L1061.14 127.151C1061.3 127.626 1061.47 128.129 1061.63 128.537C1061.81 128.917 1062.08 129.076 1062.53 129.076H1062.61V129.484C1062 129.458 1061.39 129.432 1060.74 129.432C1060.08 129.432 1059.4 129.458 1058.72 129.484V129.076H1058.86C1059.17 129.076 1059.7 129.025 1059.7 128.685C1059.7 128.506 1059.57 128.14 1059.43 127.705L1058.89 126.129H1055.82L1055.4 127.543Z" fill="#231F20"></path><path d="M1056.16 125.313H1058.54L1057.36 121.672L1056.16 125.313ZM1056 125.431L1057.29 121.47H1057.41L1058.7 125.431H1056ZM1058.77 129.422C1059.44 129.401 1060.09 129.373 1060.74 129.373C1061.37 129.373 1061.97 129.401 1062.55 129.422V129.14H1062.53C1062.06 129.145 1061.76 128.958 1061.58 128.561C1061.4 128.149 1061.24 127.645 1061.08 127.169L1058.59 120.065C1058.54 119.957 1058.51 119.835 1058.47 119.738C1058.46 119.723 1058.46 119.723 1058.46 119.723H1058.43C1058.39 119.723 1058.38 119.731 1058.34 119.743C1058.09 119.91 1057.54 120.179 1057.15 120.286C1057.05 120.801 1056.81 121.478 1056.63 121.98L1054.46 128.215C1054.27 128.806 1053.78 129.14 1053.23 129.14H1053.22V129.422C1053.69 129.401 1054.16 129.373 1054.63 129.373C1055.14 129.373 1055.68 129.401 1056.19 129.422V129.14H1056.11C1055.66 129.133 1055.05 129.086 1055.03 128.603C1055.03 128.334 1055.21 127.985 1055.34 127.528L1055.4 127.544L1055.34 127.526L1055.79 126.075H1058.94L1059.48 127.688C1059.64 128.125 1059.75 128.486 1059.75 128.686C1059.74 129.102 1059.17 129.132 1058.86 129.14H1058.77V129.422ZM1062.61 129.543C1062 129.519 1061.38 129.488 1060.74 129.488C1060.07 129.488 1059.41 129.519 1058.72 129.543L1058.65 129.548V129.016H1058.86C1059.17 129.016 1059.64 128.947 1059.64 128.686C1059.64 128.53 1059.53 128.157 1059.38 127.727L1058.86 126.19H1055.87L1055.45 127.56C1055.3 128.026 1055.14 128.384 1055.14 128.603C1055.16 128.935 1055.66 129.016 1056.11 129.016H1056.32V129.548L1056.26 129.543C1055.71 129.519 1055.16 129.488 1054.63 129.488C1054.14 129.488 1053.64 129.519 1053.15 129.543L1053.11 129.548V129.016H1053.23C1053.74 129.016 1054.16 128.726 1054.35 128.175L1056.53 121.943C1056.71 121.439 1056.95 120.762 1057.07 120.223C1057.49 120.075 1058.04 119.801 1058.3 119.637C1058.33 119.624 1058.38 119.605 1058.43 119.605C1058.46 119.603 1058.54 119.613 1058.57 119.687C1058.62 119.798 1058.65 119.918 1058.7 120.028L1061.19 127.132C1061.35 127.607 1061.51 128.108 1061.69 128.509C1061.84 128.872 1062.1 129.016 1062.53 129.016H1062.68V129.548L1062.61 129.543Z" fill="#231F20"></path><path d="M1063.21 120.683C1062.19 120.683 1062.15 120.928 1061.95 121.919H1061.55C1061.6 121.541 1061.66 121.16 1061.71 120.765C1061.76 120.385 1061.79 120.004 1061.79 119.613H1062.11C1062.23 120.02 1062.57 120.004 1062.92 120.004H1069.91C1070.28 120.004 1070.62 119.991 1070.63 119.584L1070.97 119.641C1070.91 120.004 1070.86 120.372 1070.81 120.74C1070.78 121.105 1070.78 121.473 1070.78 121.84L1070.38 121.992C1070.36 121.486 1070.3 120.683 1069.39 120.683H1067.16V127.911C1067.16 128.96 1067.64 129.077 1068.29 129.077H1068.55V129.486C1068.02 129.486 1067.06 129.434 1066.33 129.434C1065.52 129.434 1064.57 129.486 1064.04 129.486V129.077H1064.3C1065.06 129.077 1065.43 129.012 1065.43 127.94V120.683H1063.21Z" fill="#231F20"></path><path d="M1068.55 129.543C1068.01 129.543 1067.06 129.489 1066.33 129.489C1065.52 129.489 1064.59 129.543 1064.04 129.543H1063.99V129.019H1064.3C1065.06 129.001 1065.35 128.993 1065.36 127.939V120.741H1063.21V120.626H1065.49V127.939C1065.49 129.027 1065.06 129.133 1064.3 129.139H1064.1V129.428C1064.64 129.421 1065.54 129.373 1066.33 129.373C1067.04 129.373 1067.95 129.421 1068.48 129.428V129.139H1068.29C1067.63 129.133 1067.11 128.979 1067.11 127.91V120.626H1069.39C1070.3 120.627 1070.41 121.401 1070.44 121.905L1070.73 121.797C1070.73 121.445 1070.73 121.09 1070.76 120.733C1070.8 120.383 1070.84 120.036 1070.89 119.69L1070.7 119.653C1070.63 120.047 1070.25 120.07 1069.91 120.065H1062.86C1062.53 120.066 1062.19 120.049 1062.06 119.666H1061.84C1061.84 120.047 1061.82 120.41 1061.76 120.773C1061.72 121.148 1061.66 121.505 1061.61 121.86H1061.9C1062.08 120.918 1062.19 120.606 1063.21 120.626V120.741C1062.21 120.759 1062.23 120.929 1062 121.934V121.98H1061.47L1061.48 121.91C1061.53 121.531 1061.61 121.15 1061.64 120.759C1061.69 120.379 1061.72 120.001 1061.72 119.611V119.552H1062.15L1062.16 119.594C1062.26 119.938 1062.52 119.94 1062.86 119.948H1069.91C1070.28 119.94 1070.55 119.933 1070.59 119.578V119.517L1070.65 119.528L1071.04 119.588L1071.02 119.646C1070.96 120.011 1070.91 120.379 1070.88 120.741C1070.84 121.106 1070.84 121.472 1070.84 121.839V121.879L1070.81 121.897L1070.33 122.072V121.99C1070.3 121.482 1070.25 120.741 1069.39 120.741H1067.22V127.91C1067.24 128.935 1067.64 129.006 1068.29 129.019H1068.6V129.543H1068.55Z" fill="#231F20"></path><path d="M1071.46 129.077H1071.65C1072.14 129.077 1072.66 129.013 1072.66 128.304V121.19C1072.66 120.481 1072.14 120.416 1071.65 120.416H1071.46V120.003C1071.99 120.003 1072.8 120.06 1073.47 120.06C1074.14 120.06 1074.95 120.003 1075.6 120.003V120.416H1075.41C1074.92 120.416 1074.4 120.481 1074.4 121.19V128.304C1074.4 129.013 1074.92 129.077 1075.41 129.077H1075.6V129.488C1074.95 129.488 1074.13 129.434 1073.47 129.434C1072.79 129.434 1071.99 129.488 1071.46 129.488V129.077Z" fill="#231F20"></path><path d="M1075.54 129.426V129.139H1075.41C1074.92 129.139 1074.36 129.051 1074.36 128.303V121.186C1074.36 120.437 1074.92 120.354 1075.41 120.354H1075.54V120.064C1074.91 120.067 1074.13 120.118 1073.47 120.118C1072.84 120.118 1072.04 120.067 1071.53 120.064V120.354H1071.65C1072.14 120.354 1072.72 120.437 1072.72 121.186V128.303C1072.72 129.051 1072.14 129.139 1071.65 129.139H1071.53V129.426C1072.04 129.417 1072.82 129.37 1073.47 129.37C1074.11 129.37 1074.91 129.421 1075.54 129.426ZM1075.6 129.542C1074.94 129.542 1074.13 129.487 1073.47 129.487C1072.8 129.487 1071.99 129.542 1071.46 129.542H1071.41V129.02H1071.65C1072.14 129.012 1072.59 128.967 1072.59 128.303V121.186C1072.59 120.526 1072.14 120.479 1071.65 120.469H1071.41V119.947H1071.46C1071.99 119.947 1072.8 120.001 1073.47 120.001C1074.14 120.001 1074.95 119.947 1075.6 119.947H1075.65V120.469H1075.41C1074.92 120.479 1074.47 120.526 1074.47 121.186V128.303C1074.47 128.967 1074.92 129.012 1075.41 129.02H1075.65V129.542H1075.6Z" fill="#231F20"></path><path d="M1081.21 129.094C1083.83 129.094 1084.28 126.77 1084.28 124.792C1084.28 122.805 1083.22 120.402 1080.97 120.402C1078.61 120.402 1077.9 122.52 1077.9 124.338C1077.9 126.77 1079.01 129.094 1081.21 129.094ZM1081 119.804C1083.88 119.804 1086.19 121.597 1086.19 124.492C1086.19 127.615 1083.96 129.691 1081.07 129.691C1078.19 129.691 1076 127.737 1076 124.814C1076 121.993 1078.19 119.804 1081 119.804Z" fill="#231F20"></path><path d="M1077.85 124.337C1077.85 122.509 1078.56 120.34 1080.97 120.34C1083.28 120.344 1084.35 122.793 1084.35 124.791C1084.35 126.769 1083.88 129.15 1081.21 129.15V129.035C1083.78 129.033 1084.24 126.769 1084.24 124.791C1084.24 122.821 1083.17 120.463 1080.97 120.46C1078.66 120.463 1077.96 122.529 1077.96 124.337C1077.96 126.758 1079.06 129.028 1081.21 129.035V129.15C1078.96 129.147 1077.85 126.782 1077.85 124.337ZM1075.94 124.814C1075.96 121.958 1078.15 119.748 1081 119.741V119.863C1078.22 119.863 1076.05 122.02 1076.05 124.814C1076.07 127.702 1078.22 129.628 1081.07 129.63C1083.93 129.628 1086.13 127.582 1086.13 124.488C1086.13 121.63 1083.86 119.864 1081 119.863V119.741C1083.91 119.748 1086.24 121.559 1086.24 124.488C1086.24 127.643 1083.98 129.743 1081.07 129.75C1078.17 129.743 1075.96 127.765 1075.94 124.814Z" fill="#231F20"></path><path d="M1095.31 126.811L1095.34 126.784V121.69C1095.34 120.576 1094.57 120.416 1094.16 120.416H1093.87V120.004C1094.5 120.004 1095.13 120.059 1095.76 120.059C1096.33 120.059 1096.88 120.004 1097.43 120.004V120.416H1097.22C1096.65 120.416 1096.02 120.521 1096.02 122.138V128.32C1096.02 128.795 1096.04 129.268 1096.1 129.69H1095.59L1088.62 121.895V127.488C1088.62 128.673 1088.84 129.077 1089.88 129.077H1090.12V129.487C1089.54 129.487 1088.96 129.434 1088.37 129.434C1087.76 129.434 1087.13 129.487 1086.53 129.487V129.077H1086.71C1087.65 129.077 1087.94 128.443 1087.94 127.355V121.635C1087.94 120.875 1087.31 120.416 1086.69 120.416H1086.53V120.004C1087.03 120.004 1087.57 120.059 1088.08 120.059C1088.49 120.059 1088.88 120.004 1089.28 120.004L1095.31 126.811Z" fill="#231F20"></path><path d="M1095.28 126.782V126.777L1095.26 126.768L1095.28 126.782ZM1095.59 129.63H1096.04C1095.98 129.221 1095.96 128.767 1095.96 128.32V122.136C1095.96 120.505 1096.65 120.358 1097.22 120.354H1097.37V120.064C1096.83 120.067 1096.3 120.118 1095.76 120.118C1095.15 120.118 1094.54 120.067 1093.92 120.064V120.354H1094.16C1094.58 120.358 1095.41 120.542 1095.41 121.689L1095.39 126.823L1095.36 126.849L1095.31 126.896L1089.28 120.064C1088.89 120.064 1088.49 120.118 1088.08 120.118C1087.58 120.118 1087.07 120.067 1086.58 120.064V120.354H1086.69C1087.34 120.358 1087.99 120.838 1087.99 121.634V127.353C1087.99 128.441 1087.7 129.134 1086.71 129.139H1086.58V129.426C1087.18 129.421 1087.78 129.37 1088.37 129.37C1088.94 129.37 1089.49 129.421 1090.06 129.426V129.139H1089.88C1088.81 129.139 1088.55 128.673 1088.55 127.488V121.741L1095.59 129.63ZM1096.1 129.748L1095.54 129.727L1088.67 122.046V127.488C1088.68 128.673 1088.86 129.004 1089.88 129.015H1090.17V129.542H1090.12C1089.52 129.542 1088.94 129.49 1088.37 129.49C1087.76 129.49 1087.15 129.542 1086.53 129.542H1086.47V129.015H1086.71C1087.61 129.014 1087.87 128.436 1087.87 127.353V121.634C1087.87 120.909 1087.29 120.471 1086.69 120.469H1086.47V119.947H1086.53C1087.05 119.947 1087.57 120.001 1088.08 120.001C1088.49 120.001 1088.88 119.947 1089.33 119.967L1095.28 126.685V121.689C1095.28 120.609 1094.57 120.479 1094.16 120.469H1093.81V119.947H1093.87C1094.5 119.947 1095.13 120.001 1095.76 120.001C1096.31 120.001 1096.86 119.947 1097.43 119.947H1097.5V120.469H1097.22C1096.67 120.487 1096.09 120.538 1096.09 122.136V128.32C1096.09 128.79 1096.09 129.265 1096.15 129.68L1096.17 129.748H1096.1Z" fill="#231F20"></path><path d="M1101.58 121.525H1101.55L1100.29 125.37H1102.83L1101.58 121.525ZM1099.61 127.543C1099.47 128.004 1099.3 128.36 1099.3 128.6C1099.3 129.011 1099.89 129.076 1100.32 129.076H1100.47V129.484C1099.93 129.458 1099.39 129.432 1098.84 129.432C1098.33 129.432 1097.87 129.458 1097.38 129.484V129.076H1097.44C1097.98 129.076 1098.43 128.764 1098.63 128.193L1100.79 121.963C1100.97 121.459 1101.21 120.781 1101.29 120.275C1101.73 120.128 1102.28 119.857 1102.54 119.693C1102.57 119.678 1102.6 119.667 1102.64 119.667C1102.68 119.667 1102.7 119.667 1102.73 119.706C1102.78 119.815 1102.81 119.938 1102.86 120.046L1105.35 127.151C1105.51 127.626 1105.68 128.129 1105.85 128.537C1106.02 128.917 1106.31 129.076 1106.74 129.076H1106.82V129.484C1106.23 129.458 1105.61 129.432 1104.96 129.432C1104.3 129.432 1103.62 129.458 1102.93 129.484V129.076H1103.07C1103.38 129.076 1103.91 129.025 1103.91 128.685C1103.91 128.506 1103.78 128.14 1103.64 127.705L1103.12 126.129H1100.05L1099.61 127.543Z" fill="#231F20"></path><path d="M1100.37 125.311H1102.75L1101.57 121.675L1100.37 125.311ZM1100.21 125.428L1101.52 121.471H1101.63L1102.91 125.428H1100.21ZM1102.99 129.425C1103.66 129.402 1104.32 129.375 1104.97 129.375C1105.58 129.375 1106.18 129.402 1106.76 129.423V129.141H1106.74C1106.29 129.141 1105.97 128.96 1105.79 128.562C1105.61 128.15 1105.45 127.646 1105.29 127.171L1102.8 120.067C1102.77 119.958 1102.72 119.836 1102.69 119.744C1102.67 119.725 1102.67 119.725 1102.67 119.725H1102.64C1102.62 119.725 1102.6 119.733 1102.56 119.744C1102.3 119.909 1101.76 120.182 1101.36 120.287C1101.28 120.803 1101.02 121.479 1100.86 121.982L1098.69 128.217C1098.48 128.807 1098.01 129.141 1097.45 129.141H1097.43V129.423C1097.9 129.402 1098.37 129.375 1098.84 129.375C1099.35 129.375 1099.89 129.402 1100.42 129.423V129.141H1100.32C1099.89 129.135 1099.27 129.088 1099.26 128.604C1099.26 128.335 1099.42 127.988 1099.55 127.529L1099.61 127.546L1099.55 127.528L1100 126.076H1103.15L1103.7 127.69C1103.85 128.126 1103.98 128.488 1103.98 128.687C1103.95 129.104 1103.38 129.133 1103.07 129.141H1102.99V129.425ZM1106.82 129.545C1106.21 129.522 1105.6 129.491 1104.97 129.491C1104.3 129.491 1103.62 129.522 1102.93 129.545L1102.86 129.55V129.023H1103.07C1103.38 129.023 1103.85 128.948 1103.87 128.687C1103.87 128.531 1103.74 128.16 1103.59 127.729L1103.07 126.192H1100.08L1099.66 127.562C1099.53 128.029 1099.37 128.386 1099.37 128.604C1099.37 128.937 1099.87 129.023 1100.32 129.023H1100.53V129.55L1100.47 129.545C1099.94 129.522 1099.37 129.491 1098.84 129.491C1098.35 129.491 1097.87 129.522 1097.38 129.545L1097.32 129.55V129.023H1097.45C1097.96 129.018 1098.38 128.726 1098.58 128.176L1100.74 121.945C1100.92 121.44 1101.17 120.764 1101.28 120.224C1101.7 120.076 1102.25 119.802 1102.51 119.639C1102.54 119.626 1102.59 119.609 1102.64 119.609C1102.67 119.605 1102.75 119.614 1102.8 119.691C1102.83 119.798 1102.86 119.919 1102.91 120.029L1105.4 127.134C1105.56 127.609 1105.73 128.11 1105.9 128.514C1106.06 128.874 1106.31 129.018 1106.74 129.023H1106.89V129.55L1106.82 129.545Z" fill="#231F20"></path><path d="M1110.24 128.156C1110.24 128.699 1110.63 128.861 1111.05 128.916C1111.61 128.958 1112.21 128.958 1112.84 128.89C1113.41 128.824 1113.89 128.496 1114.14 128.156C1114.36 127.856 1114.47 127.478 1114.56 127.176H1114.96C1114.8 127.951 1114.62 128.714 1114.44 129.487C1113.26 129.487 1112.07 129.434 1110.88 129.434C1109.69 129.434 1108.49 129.487 1107.29 129.487V129.077H1107.49C1107.97 129.077 1108.51 129.012 1108.51 128.167V121.189C1108.51 120.481 1107.97 120.416 1107.49 120.416H1107.29V120.004C1108.02 120.004 1108.72 120.059 1109.45 120.059C1110.12 120.059 1110.8 120.004 1111.5 120.004V120.416H1111.16C1110.64 120.416 1110.24 120.429 1110.24 121.15V128.156Z" fill="#231F20"></path><path d="M1114.41 129.426C1114.55 128.689 1114.73 127.966 1114.88 127.233H1114.6C1114.52 127.533 1114.39 127.895 1114.18 128.19C1113.94 128.543 1113.42 128.874 1112.84 128.946C1112.48 128.984 1112.13 129.001 1111.8 129.001C1111.55 129.001 1111.29 128.989 1111.04 128.973C1110.61 128.923 1110.17 128.735 1110.17 128.154V121.147C1110.17 120.392 1110.66 120.354 1111.16 120.354H1111.43V120.064C1110.77 120.067 1110.11 120.118 1109.44 120.118C1108.73 120.118 1108.05 120.067 1107.36 120.064V120.354H1107.49C1107.97 120.354 1108.55 120.437 1108.55 121.185V128.166C1108.55 129.044 1107.97 129.139 1107.49 129.139H1107.36V129.426C1108.52 129.422 1109.7 129.37 1110.88 129.37C1112.05 129.37 1113.23 129.422 1114.41 129.426ZM1114.46 129.542C1113.26 129.542 1112.06 129.489 1110.88 129.489C1109.69 129.489 1108.49 129.542 1107.29 129.542H1107.24V129.02H1107.49C1107.97 129.009 1108.44 128.973 1108.44 128.166V121.185C1108.44 120.526 1107.99 120.479 1107.49 120.469H1107.24V119.947H1107.29C1108.02 119.947 1108.72 120.001 1109.44 120.001C1110.12 120.001 1110.8 119.947 1111.5 119.947H1111.55V120.469H1111.16C1110.64 120.484 1110.3 120.46 1110.3 121.147V128.154C1110.3 128.66 1110.62 128.795 1111.06 128.858C1111.29 128.874 1111.55 128.884 1111.8 128.884C1112.13 128.884 1112.48 128.868 1112.84 128.829C1113.39 128.764 1113.86 128.446 1114.08 128.122C1114.29 127.83 1114.42 127.459 1114.5 127.162V127.115H1115.02L1115.01 127.189C1114.86 127.964 1114.67 128.723 1114.5 129.5L1114.49 129.542H1114.46Z" fill="#231F20"></path><path d="M1114.56 121.056H1114.73C1114.91 121.056 1114.99 120.916 1114.99 120.691C1114.99 120.462 1114.86 120.384 1114.72 120.384H1114.56V121.056ZM1114.09 121.81V121.738C1114.25 121.716 1114.28 121.722 1114.28 121.61V120.555C1114.28 120.402 1114.26 120.352 1114.09 120.362V120.287H1114.81C1115.06 120.287 1115.3 120.409 1115.3 120.668C1115.3 120.882 1115.15 121.036 1114.96 121.098L1115.19 121.429C1115.3 121.573 1115.43 121.716 1115.51 121.764V121.81H1115.24C1115.11 121.81 1114.98 121.526 1114.72 121.153H1114.56V121.625C1114.56 121.722 1114.59 121.716 1114.77 121.738V121.81H1114.09ZM1114.78 122.215C1115.43 122.215 1115.91 121.672 1115.91 121.056C1115.91 120.439 1115.43 119.888 1114.78 119.888C1114.15 119.888 1113.65 120.439 1113.65 121.056C1113.65 121.672 1114.15 122.215 1114.78 122.215ZM1114.78 119.622C1115.61 119.622 1116.22 120.253 1116.22 121.056C1116.22 121.858 1115.61 122.481 1114.78 122.481C1113.97 122.481 1113.36 121.858 1113.36 121.056C1113.36 120.253 1113.97 119.622 1114.78 119.622Z" fill="#231F20"></path><path d="M1030.24 71.6984C1030.24 58.9931 1040.51 48.6943 1053.17 48.6943C1065.85 48.6943 1076.12 58.9931 1076.12 71.6984C1076.12 84.4037 1065.85 94.7025 1053.17 94.7025C1040.51 94.7025 1030.24 84.4037 1030.24 71.6984Z" fill="white"></path><path d="M1067.05 71.2456C1067.03 65.3527 1063.36 60.3306 1058.18 58.3409V84.1504C1063.36 82.1574 1067.03 77.1385 1067.05 71.2456ZM1048.32 84.1439V58.3425C1043.15 60.3404 1039.49 65.356 1039.47 71.2456C1039.49 77.1321 1043.15 82.1509 1048.32 84.1439ZM1053.25 49.4302C1041.24 49.4351 1031.52 59.1971 1031.5 71.2456C1031.52 83.2909 1041.24 93.053 1053.25 93.0546C1065.27 93.053 1075 83.2909 1075.02 71.2456C1075 59.1971 1065.27 49.4351 1053.25 49.4302ZM1053.2 95.114C1040.06 95.1756 1029.24 84.4958 1029.24 71.4938C1029.24 57.2853 1040.06 47.4567 1053.2 47.46H1059.36C1072.35 47.4567 1084.22 57.2788 1084.22 71.4938C1084.22 84.4893 1072.35 95.114 1059.36 95.114H1053.2Z" fill="#006699"></path></g><path d="M1141 20.5H973C961.678 20.5 952.5 29.6782 952.5 41V135C952.5 146.322 961.678 155.5 973 155.5H1141C1152.32 155.5 1161.5 146.322 1161.5 135V41C1161.5 29.6782 1152.32 20.5 1141 20.5Z" stroke="#D6DCE5"></path></g><g filter="url(#filter1_dd_11442_4145)"><rect x="41" y="21" width="208" height="134" rx="20" fill="white"></rect><rect x="40.5" y="20.5" width="209" height="135" rx="20.5" stroke="#D6DCE5"></rect><path d="M144.796 65.8316L135.107 111.289H123.391L133.081 65.8316H144.796ZM194.09 95.1838L200.259 78.1129L203.808 95.1838H194.09ZM207.163 111.289H218L208.543 65.8316H198.54C196.292 65.8316 194.396 67.1438 193.551 69.1667L175.974 111.289H188.278L190.72 104.501H205.752L207.163 111.289ZM176.584 96.447C176.635 84.4492 160.053 83.7888 160.168 78.4294C160.202 76.7964 161.752 75.0641 165.136 74.6196C166.818 74.3994 171.441 74.2311 176.69 76.6554L178.746 67.0157C175.926 65.9884 172.298 65 167.785 65C156.205 65 148.055 71.1795 147.986 80.0279C147.913 86.5713 153.804 90.2229 158.244 92.3983C162.808 94.627 164.342 96.0542 164.322 98.0469C164.292 101.099 160.681 102.442 157.312 102.496C151.42 102.589 148.001 100.9 145.276 99.6252L143.153 109.586C145.89 110.848 150.943 111.944 156.185 112C168.492 112 176.544 105.897 176.584 96.447ZM128.054 65.8316L109.072 111.289H96.6845L87.3437 75.0109C86.7761 72.7765 86.2829 71.9593 84.5584 71.0169C81.7444 69.4846 77.0927 68.0444 73 67.1524L73.2795 65.8316H93.2154C95.7556 65.8316 98.0421 67.5293 98.6183 70.4659L103.552 96.7722L115.745 65.8316H128.054Z" fill="#1434CB"></path></g><g filter="url(#filter2_dd_11442_4145)"><rect x="269" y="21" width="208" height="134" rx="20" fill="white"></rect><rect x="268.5" y="20.5" width="209" height="135" rx="20.5" stroke="#D6DCE5"></rect><path d="M387.941 60.483H357.316V115.517H387.941V60.483Z" fill="#FF5F00"></path><path d="M359.261 88C359.256 82.6998 360.457 77.468 362.773 72.7006C365.089 67.9333 368.46 63.7553 372.629 60.483C367.466 56.4246 361.265 53.9007 354.735 53.1999C348.205 52.499 341.61 53.6495 335.703 56.5197C329.796 59.39 324.816 63.8642 321.332 69.4311C317.848 74.9979 316 81.4327 316 88C316 94.5673 317.848 101.002 321.332 106.569C324.816 112.136 329.796 116.61 335.703 119.48C341.61 122.351 348.205 123.501 354.735 122.8C361.265 122.099 367.466 119.575 372.629 115.517C368.46 112.245 365.089 108.067 362.773 103.299C360.457 98.532 359.256 93.3002 359.261 88Z" fill="#EB001B"></path><path d="M429.256 88C429.256 94.5672 427.409 101.002 423.925 106.569C420.441 112.136 415.461 116.61 409.554 119.48C403.647 122.35 397.052 123.501 390.523 122.8C383.993 122.099 377.792 119.575 372.629 115.517C376.795 112.241 380.162 108.063 382.478 103.296C384.794 98.5295 385.997 93.2993 385.997 88C385.997 82.7007 384.794 77.4705 382.478 72.7039C380.162 67.9373 376.795 63.7586 372.629 60.483C377.792 56.4246 383.993 53.9007 390.523 53.1999C397.052 52.499 403.647 53.6495 409.554 56.5198C415.461 59.3901 420.441 63.8643 423.925 69.4312C427.409 74.998 429.256 81.4328 429.256 88Z" fill="#F79E1B"></path><path d="M425.917 109.688V108.561H426.371V108.332H425.214V108.561H425.669V109.688H425.917ZM428.163 109.688V108.33H427.809L427.401 109.264L426.993 108.33H426.638V109.688H426.888V108.663L427.271 109.547H427.531L427.913 108.661V109.688H428.163Z" fill="#F79E1B"></path></g><g filter="url(#filter3_dd_11442_4145)"><rect x="725" y="21" width="208" height="134" rx="20" fill="url(#paint0_linear_11442_4145)"></rect><rect x="724.5" y="20.5" width="209" height="135" rx="20.5" stroke="#D6DCE5"></rect><path d="M728 44C728 32.9543 736.954 24 748 24H857C892.346 24 921 52.6538 921 88V88C921 123.346 892.346 152 857 152H748C736.954 152 728 143.046 728 132V44Z" fill="white"></path><path d="M790.846 88.0807C790.846 95.9499 797.026 102.05 804.976 102.05C807.225 102.05 809.147 101.607 811.521 100.491V94.3453C809.435 96.4321 807.586 97.2755 805.218 97.2755C799.959 97.2755 796.226 93.4631 796.226 88.0418C796.226 82.9038 800.08 78.8491 804.976 78.8491C807.467 78.8491 809.352 79.7358 811.521 81.8593V75.7157C809.231 74.5545 807.346 74.0723 805.099 74.0723C797.189 74.0723 790.846 80.298 790.846 88.0807Z" fill="#251F1F"></path><path d="M777.445 81.5803C777.445 83.0249 778.366 83.7904 781.5 84.9495C787.44 87.1227 789.2 89.0473 789.2 93.3009C789.2 98.4821 785.392 102.089 779.967 102.089C775.994 102.089 773.105 100.526 770.698 96.9944L774.072 93.7463C775.274 96.071 777.281 97.3166 779.77 97.3166C782.101 97.3166 783.824 95.7099 783.824 93.5409C783.824 92.4164 783.301 91.4498 782.259 90.7708C781.733 90.4486 780.693 89.9664 778.65 89.2463C773.745 87.4817 772.063 85.5939 772.063 81.9047C772.063 77.5236 775.676 74.2345 780.412 74.2345C783.347 74.2345 786.032 75.2378 788.279 77.2035L785.546 80.7802C784.186 79.2557 782.901 78.6113 781.335 78.6113C779.084 78.6113 777.445 79.8936 777.445 81.5803Z" fill="#251F1F"></path><path fill-rule="evenodd" clip-rule="evenodd" d="M746.738 74.6778H739.072V101.447H746.697C750.75 101.447 753.68 100.491 756.249 98.3568C759.302 95.8288 761.108 92.0186 761.108 88.0807C761.108 80.1813 755.204 74.6778 746.738 74.6778ZM752.836 94.7887C751.195 96.2678 749.065 96.9144 745.692 96.9144H744.29V79.2146H745.692C749.065 79.2146 751.111 79.8158 752.836 81.3793C754.644 82.986 755.728 85.4771 755.728 88.0418C755.728 90.6108 754.644 93.182 752.836 94.7887Z" fill="#251F1F"></path><path d="M768.733 74.6778H763.51V101.447H768.733V74.6778Z" fill="#251F1F"></path><path d="M845.783 74.6778L852.924 92.6565L860.155 74.6778H865.814L854.249 102.135H851.44L840.081 74.6778H845.783Z" fill="#251F1F"></path><path d="M868.176 101.447H882.984V96.9144H873.394V89.6896H882.63V85.1549H873.394V79.2146H882.984V74.6778H868.176V101.447Z" fill="#251F1F"></path><path fill-rule="evenodd" clip-rule="evenodd" d="M894.184 74.6778C900.206 74.6778 903.662 77.569 903.662 82.5794C903.662 86.6795 901.493 89.3696 897.559 90.1697L905.986 101.447H899.566L892.339 90.693H891.656V101.447H886.442V74.6778H894.184ZM891.656 87.0017H893.185C896.519 87.0017 898.286 85.5528 898.286 82.8627C898.286 80.2569 896.519 78.8924 893.265 78.8924H891.656V87.0017Z" fill="#251F1F"></path><path fill-rule="evenodd" clip-rule="evenodd" d="M907.822 76.0813C907.822 75.6098 907.496 75.3525 906.927 75.3525H906.17V77.7139H906.733V76.7992L907.392 77.7139H908.082L907.306 76.7408C907.636 76.65 907.822 76.4078 907.822 76.0813ZM906.828 76.4035H906.733V75.785H906.834C907.113 75.785 907.258 75.8866 907.258 76.0899C907.258 76.2975 907.111 76.4035 906.828 76.4035Z" fill="#251F1F"></path><path fill-rule="evenodd" clip-rule="evenodd" d="M904.983 76.5288C904.983 75.3848 905.896 74.4701 907.04 74.4701C908.155 74.4701 909.072 75.4021 909.072 76.5288C909.072 77.6619 908.155 78.5875 907.04 78.5875C905.904 78.5875 904.983 77.6706 904.983 76.5288ZM905.392 76.5309C905.392 77.4695 906.129 78.2198 907.031 78.2198C907.93 78.2198 908.661 77.4608 908.661 76.5309C908.661 75.6097 907.93 74.8399 907.031 74.8399C906.123 74.8399 905.392 75.5924 905.392 76.5309Z" fill="#251F1F"></path><g filter="url(#filter4_i_11442_4145)"><path d="M827.348 102.26C819.524 102.26 813.18 95.9157 813.18 88.0919V88.0727C813.18 84.18 814.756 80.6382 817.305 78.0887C817.305 78.069 817.325 78.069 817.325 78.0498C817.344 78.0498 817.344 78.03 817.364 78.03C819.914 75.4806 823.456 73.9043 827.348 73.9043H827.368C835.192 73.9043 841.536 80.2489 841.536 88.0727V88.0919C841.536 91.9846 839.959 95.5072 837.41 98.0764C837.41 98.0956 837.391 98.0956 837.391 98.1153C837.371 98.1153 837.371 98.1345 837.352 98.1345C834.783 100.684 831.26 102.26 827.368 102.26H827.348Z" fill="url(#paint1_linear_11442_4145)"></path></g></g><g filter="url(#filter5_dd_11442_4145)"><g clip-path="url(#clip1_11442_4145)"><path d="M497 41C497 29.9543 505.954 21 517 21H685C696.046 21 705 29.9543 705 41V135C705 146.046 696.046 155 685 155H517C505.954 155 497 146.046 497 135V41Z" fill="white"></path><path d="M687.171 21H514.829C504.982 21 497 29.7796 497 40.6098V135.39C497 146.22 504.982 155 514.829 155H687.171C697.018 155 705 146.22 705 135.39V40.6098C705 29.7796 697.018 21 687.171 21Z" fill="#006FCF"></path><path d="M686.887 19.9854H504.386C493.671 19.9854 484.985 29.0708 484.985 40.2783V135.723C484.985 146.93 493.671 156.016 504.386 156.016H686.887C697.602 156.016 706.288 146.93 706.288 135.723V40.2783C706.288 29.0708 697.602 19.9854 686.887 19.9854Z" stroke="#D6DCE5" stroke-width="1.19276"></path><path fill-rule="evenodd" clip-rule="evenodd" d="M704.871 40.0174H686.077L676.253 68.213L666.001 40.0174H646.779V83.9202L627.13 40.0174H611.326L591.675 84.8729H605.344L609.19 75.9012H629.694L633.538 84.8729H659.167V53.6873L670.7 84.8729H681.377L692.911 53.6873V84.8729H704.871V91.7071H689.067L676.253 105.805L663.011 91.7071H608.762V136.563H662.585L675.826 122.037L689.067 136.563H704.871V142.115H686.077L675.826 131.009L665.573 142.115H601.928V90.853H581.424L607.054 33.1816H631.828L640.799 52.8333V33.1816H671.554L676.68 48.1335L681.805 33.1816H704.871V40.0174ZM704.871 101.533L693.338 113.921L704.871 126.309V136.563L683.941 113.921L704.871 91.7071V101.533ZM646.779 136.563V125.883H621.151V119.047H646.351V108.795H621.151V101.961H646.779V91.7071L668.136 113.921L646.779 136.563ZM613.034 66.0754L619.015 51.5514L624.994 66.0754H613.034Z" fill="white"></path></g><path d="M685 20.5H517C505.678 20.5 496.5 29.6782 496.5 41V135C496.5 146.322 505.678 155.5 517 155.5H685C696.322 155.5 705.5 146.322 705.5 135V41C705.5 29.6782 696.322 20.5 685 20.5Z" stroke="#D6DCE5"></path></g><defs><filter id="filter0_dd_11442_4145" x="912" y="0" width="290" height="216" filterUnits="userSpaceOnUse" color-interpolation-filters="sRGB"><feGaussianBlur stdDeviation="10"></feGaussianBlur><feGaussianBlur stdDeviation="20"></feGaussianBlur></filter><filter id="filter1_dd_11442_4145" x="0" y="0" width="290" height="216" filterUnits="userSpaceOnUse" color-interpolation-filters="sRGB"><feGaussianBlur stdDeviation="10"></feGaussianBlur><feGaussianBlur stdDeviation="20"></feGaussianBlur></filter><filter id="filter2_dd_11442_4145" x="228" y="0" width="290" height="216" filterUnits="userSpaceOnUse" color-interpolation-filters="sRGB"><feGaussianBlur stdDeviation="10"></feGaussianBlur><feGaussianBlur stdDeviation="20"></feGaussianBlur></filter><filter id="filter3_dd_11442_4145" x="684" y="0" width="290" height="216" filterUnits="userSpaceOnUse" color-interpolation-filters="sRGB"><feGaussianBlur stdDeviation="10"></feGaussianBlur><feGaussianBlur stdDeviation="20"></feGaussianBlur></filter><filter id="filter4_i_11442_4145" x="813.18" y="73.9043" width="29.3944" height="29.9134" filterUnits="userSpaceOnUse" color-interpolation-filters="sRGB"><feGaussianBlur stdDeviation="1.03798"></feGaussianBlur></filter><filter id="filter5_dd_11442_4145" x="456" y="0" width="290" height="216" filterUnits="userSpaceOnUse" color-interpolation-filters="sRGB"><feGaussianBlur stdDeviation="10"></feGaussianBlur><feGaussianBlur stdDeviation="20"></feGaussianBlur></filter><linearGradient id="paint0_linear_11442_4145" x1="790.438" y1="21" x2="870.634" y2="156.712" gradientUnits="userSpaceOnUse"><stop stop-color="#E05026"></stop><stop offset="1" stop-color="#F9A020"></stop></linearGradient><linearGradient id="paint1_linear_11442_4145" x1="819.927" y1="73.9043" x2="843.226" y2="93.6203" gradientUnits="userSpaceOnUse"><stop stop-color="#EF3823"></stop><stop offset="0.489583" stop-color="#F04D22"></stop><stop offset="1" stop-color="#F7911D"></stop></linearGradient><clipPath id="clip0_11442_4145"><path d="M953 41C953 29.9543 961.954 21 973 21H1141C1152.05 21 1161 29.9543 1161 41V135C1161 146.046 1152.05 155 1141 155H973C961.954 155 953 146.046 953 135V41Z" fill="white"></path></clipPath><clipPath id="clip1_11442_4145"><path d="M497 41C497 29.9543 505.954 21 517 21H685C696.046 21 705 29.9543 705 41V135C705 146.046 696.046 155 685 155H517C505.954 155 497 146.046 497 135V41Z" fill="white"></path></clipPath></defs></svg>