<svg xmlns="http://www.w3.org/2000/svg" id="Layer_2" viewBox="0 0 20.18 67.7"><g id="Layer_3"><path d="m19.18,67.7H1v-2h4.47c2,0,3.62-1.62,3.62-3.62v-12.45c0-2.15-.88-4.25-2.41-5.76l-4.14-4.09C.8,38.05-.13,35.66.01,33.21L1.72,0h16.74l1.71,33.21c.14,2.45-.79,4.84-2.53,6.57l-4.14,4.09c-1.53,1.51-2.41,3.61-2.41,5.76v12.45c0,2,1.62,3.62,3.62,3.62h4.47v2ZM2.55,22.77l-.54,10.54c-.11,1.88.6,3.72,1.94,5.04l4.14,4.09c.83.82,1.5,1.78,2,2.82.5-1.04,1.17-2,2-2.82l4.14-4.09c1.34-1.32,2.05-3.16,1.94-5.04l-.54-10.55H2.55Zm7.54-2h7.44l-.96-18.77H3.62l-.96,18.77h7.44Z" stroke-width="0"></path></g></svg>