<svg xmlns="http://www.w3.org/2000/svg" id="Layer_2" viewBox="0 0 29.8 27.35"><g id="Layer_1-2"><path d="m26.91,10.67h-1.3c-.02-5.88-4.81-10.67-10.7-10.67S4.22,4.78,4.2,10.67h-1.3c-1.59,0-2.89,1.3-2.89,2.89v4.4c0,1.59,1.3,2.89,2.89,2.89h1.47c.9,0,1.63-.73,1.63-1.63v-8.51C5.99,5.8,9.99,1.8,14.9,1.8s8.91,4,8.91,8.91v9.27c0,1.91-1.55,3.46-3.46,3.46h-2.11c-.39-1.22-1.52-2.12-2.87-2.12h-.95c-1.67,0-3.02,1.35-3.02,3.02s1.35,3.02,3.02,3.02h.95c1.35,0,2.48-.9,2.87-2.12h2.11c2.6,0,4.75-1.9,5.17-4.38h1.39c1.59,0,2.89-1.3,2.89-2.89v-4.4c0-1.6-1.3-2.89-2.89-2.89ZM4.19,19.05h-1.3c-.6,0-1.09-.49-1.09-1.09v-4.4c0-.6.49-1.09,1.09-1.09h1.3v6.58h0Zm11.19,6.5h-.95c-.67,0-1.22-.55-1.22-1.22s.55-1.22,1.22-1.22h.95c.67,0,1.22.55,1.22,1.22,0,.67-.55,1.22-1.22,1.22Zm12.62-7.59c0,.6-.49,1.09-1.09,1.09h-1.3v-6.58h1.3c.6,0,1.09.49,1.09,1.09v4.4Z" stroke-width="0"></path></g></svg>