<svg xmlns="http://www.w3.org/2000/svg" width="50" height="45" viewBox="0 0 50 45" fill="none"><g clip-path="url(#clip0_675_27250)"><path d="M3.66406 18.875V41.3535C3.66406 42.69 4.74648 43.7735 6.08164 43.7735H43.9168C45.252 43.7735 46.3344 42.69 46.3344 41.3535V18.875" stroke="#7B84FF" stroke-linejoin="round"></path><path d="M45.5753 43.1083L26.5835 26.7128C25.6769 25.9291 24.3335 25.9291 23.4242 26.7128L4.42969 43.1083" stroke="#7B84FF" stroke-linejoin="round"></path><path d="M31.9113 31.3164L46.3344 18.8671L26.5789 1.81437C25.6723 1.03062 24.3289 1.03062 23.4196 1.81437L3.66406 18.8699L18.0871 31.3191" stroke="#7B84FF" stroke-linejoin="round"></path><path fill-rule="evenodd" clip-rule="evenodd" d="M40.9827 8.72469V23.4922L31.8508 31.2664L26.5788 26.7152C25.6667 25.9314 24.3261 25.9314 23.4195 26.7152L18.1475 31.2664L9.01562 23.4922V8.72469C9.01562 7.38819 10.1008 6.30469 11.4332 6.30469H38.5623C39.8975 6.30469 40.9799 7.39094 40.9799 8.72469H40.9827ZM23.0762 19.0704L22.4114 18.2454C21.9059 17.6239 21.6312 16.8566 21.6312 16.0619V14.5439C21.6312 12.7206 20.3455 11.2026 18.6422 10.8286V10.1054C18.6422 9.65713 18.2823 9.29688 17.8345 9.29688C17.3867 9.29688 17.0268 9.65713 17.0268 10.1054V10.8286C15.3235 11.2054 14.0378 12.7234 14.0378 14.5439V16.0619C14.0378 16.8566 13.763 17.6239 13.2575 18.2454L12.5927 19.0704C12.1312 19.6479 12.535 20.5031 13.2713 20.5031H22.4004C23.1367 20.5031 23.5405 19.6506 23.079 19.0704H23.0762ZM16.8343 21.3965H18.8288C19.2766 21.3965 19.6365 21.7567 19.6365 22.205C19.6365 22.6532 19.2766 23.0135 18.8288 23.0135H16.8343C16.3865 23.0135 16.0266 22.6532 16.0266 22.205C16.0266 21.7567 16.3865 21.3965 16.8343 21.3965ZM25.9854 11.5C25.9854 11.2239 26.2092 11 26.4854 11H32.9524C33.2285 11 33.4524 11.2239 33.4524 11.5C33.4524 11.7761 33.2285 12 32.9524 12H26.4854C26.2092 12 25.9854 11.7761 25.9854 11.5ZM26.4854 15.0488C26.2092 15.0488 25.9854 15.2727 25.9854 15.5488C25.9854 15.825 26.2092 16.0488 26.4854 16.0488H35.554C35.8302 16.0488 36.054 15.825 36.054 15.5488C36.054 15.2727 35.8302 15.0488 35.554 15.0488H26.4854Z" fill="#7B84FF"></path></g><defs><clipPath id="clip0_675_27250"><rect width="50" height="44" fill="white" transform="translate(0 0.5)"></rect></clipPath></defs></svg>