<svg xmlns="http://www.w3.org/2000/svg" width="50" height="45" viewBox="0 0 50 45" fill="none"><g clip-path="url(#clip0_672_26972)"><path d="M26.7434 1.36719H2.46866C1.5583 1.36719 0.820312 2.10592 0.820312 3.01719V41.9792C0.820312 42.8905 1.5583 43.6292 2.46866 43.6292H26.7434C27.6537 43.6292 28.3917 42.8905 28.3917 41.9792V3.01719C28.3917 2.10592 27.6537 1.36719 26.7434 1.36719Z" stroke="#FFC72C" stroke-linejoin="round"></path><path d="M24.8098 3.67188H4.4114C3.80449 3.67188 3.3125 4.16436 3.3125 4.77187V22.3966C3.3125 23.0041 3.80449 23.4966 4.4114 23.4966H24.8098C25.4167 23.4966 25.9087 23.0041 25.9087 22.3966V4.77187C25.9087 4.16436 25.4167 3.67188 24.8098 3.67188Z" stroke="#FFC72C" stroke-linejoin="round"></path><path d="M3.74219 27.1562H17.5059" stroke="#FFC72C" stroke-linecap="round" stroke-linejoin="round"></path><path d="M25.2147 29.625H3.74219V32.0945H25.2147V29.625Z" fill="#FFC72C" stroke="#FFC72C" stroke-linecap="round" stroke-linejoin="round"></path><path d="M3.74219 39.1875H5.62406" stroke="#FFC72C" stroke-linecap="round" stroke-linejoin="round"></path><path d="M7.94531 39.1875H16.1788" stroke="#FFC72C" stroke-linecap="round" stroke-linejoin="round"></path><path fill-rule="evenodd" clip-rule="evenodd" d="M19.4855 12.4608C19.1751 10.5935 17.6201 8.51727 15.0267 8.30827C12.8509 8.13502 11.186 9.13877 10.2575 11.1105C8.88934 11.4708 7.66406 12.9475 7.66406 14.4325C7.66406 16.198 8.99099 17.771 10.752 17.771H11.1888L18.5514 17.7738H18.5542L18.6751 17.771C20.4388 17.771 21.5569 16.8195 21.5569 15.1585C21.5569 13.6763 20.7273 12.876 19.4827 12.4608H19.4855ZM14.6558 11.0638C14.6805 11.0748 14.6998 11.0913 14.7163 11.1133L17.1531 14.2015C17.241 14.3143 17.1613 14.482 17.0157 14.482H15.4031V16.4373C15.4031 16.5335 15.3234 16.6105 15.23 16.6105H13.9251C13.8289 16.6105 13.752 16.5308 13.752 16.4373V14.4793H12.1448C12.1119 14.4793 12.0816 14.471 12.0514 14.4518C12.024 14.4353 12.002 14.4105 11.9882 14.3803C11.9745 14.35 11.969 14.317 11.9718 14.2868C11.9745 14.2538 11.9882 14.2235 12.0075 14.1988L14.4443 11.1133C14.4608 11.0913 14.48 11.0748 14.5047 11.0638C14.5294 11.0528 14.5542 11.0473 14.5816 11.0473C14.6091 11.0473 14.6338 11.0528 14.6586 11.0638H14.6558Z" fill="#FFC72C"></path><path d="M47.297 41.9973H27.8438V3.00781H47.297C48.5086 3.00781 49.4948 3.99506 49.4948 5.20781V39.7973C49.4948 41.0101 48.5086 41.9973 47.297 41.9973ZM28.9427 40.8973H47.297C47.9042 40.8973 48.3959 40.4051 48.3959 39.7973V5.20781C48.3959 4.60006 47.9042 4.10781 47.297 4.10781H28.9427V40.8973Z" fill="#FFC72C"></path><path fill-rule="evenodd" clip-rule="evenodd" d="M28.3984 3.55469H47.3023C48.2116 3.55469 48.9506 4.29444 48.9506 5.20469V39.7942C48.9506 40.7044 48.2116 41.4442 47.3023 41.4442H28.3984V3.55469ZM31.2502 8.29102C31.2502 8.01487 31.4741 7.79102 31.7502 7.79102H40.8162C41.0923 7.79102 41.3162 8.01487 41.3162 8.29102C41.3162 8.56716 41.0923 8.79102 40.8162 8.79102H31.7502C31.4741 8.79102 31.2502 8.56716 31.2502 8.29102ZM31.47 11.7949C31.1938 11.7949 30.97 12.0188 30.97 12.2949C30.97 12.5711 31.1938 12.7949 31.47 12.7949H43.97C44.2461 12.7949 44.47 12.5711 44.47 12.2949C44.47 12.0188 44.2461 11.7949 43.97 11.7949H31.47ZM31.2502 26.8613C31.2502 26.5852 31.4741 26.3613 31.7502 26.3613H40.8162C41.0923 26.3613 41.3162 26.5852 41.3162 26.8613C41.3162 27.1375 41.0923 27.3613 40.8162 27.3613H31.7502C31.4741 27.3613 31.2502 27.1375 31.2502 26.8613ZM31.47 30.3652C31.1938 30.3652 30.97 30.5891 30.97 30.8652C30.97 31.1414 31.1938 31.3652 31.47 31.3652H43.97C44.2461 31.3652 44.47 31.1414 44.47 30.8652C44.47 30.5891 44.2461 30.3652 43.97 30.3652H31.47Z" fill="#FFC72C"></path></g><defs><clipPath id="clip0_672_26972"><rect width="50" height="44" fill="white" transform="translate(0 0.5)"></rect></clipPath></defs></svg>