<svg xmlns="http://www.w3.org/2000/svg" width="50" height="45" viewBox="0 0 50 45" fill="none"><path d="M10.9754 7.73438H2.54679C1.63643 7.73438 0.898438 8.47311 0.898438 9.38438V14.3344C0.898438 15.2456 1.63643 15.9844 2.54679 15.9844H10.9754C11.8857 15.9844 12.6237 15.2456 12.6237 14.3344V9.38438C12.6237 8.47311 11.8857 7.73438 10.9754 7.73438Z" fill="#65577D" stroke="#65577D" stroke-linejoin="round"></path><path d="M10.9754 18.375H2.54679C1.63643 18.375 0.898438 19.1137 0.898438 20.025V24.975C0.898438 25.8863 1.63643 26.625 2.54679 26.625H10.9754C11.8857 26.625 12.6237 25.8863 12.6237 24.975V20.025C12.6237 19.1137 11.8857 18.375 10.9754 18.375Z" fill="#65577D" stroke="#65577D" stroke-linejoin="round"></path><path d="M10.9754 29.0156H2.54679C1.63643 29.0156 0.898438 29.7544 0.898438 30.6656V35.6156C0.898438 36.5269 1.63643 37.2656 2.54679 37.2656H10.9754C11.8857 37.2656 12.6237 36.5269 12.6237 35.6156V30.6656C12.6237 29.7544 11.8857 29.0156 10.9754 29.0156Z" fill="#65577D" stroke="#65577D" stroke-linejoin="round"></path><path d="M30.5476 23.9922H27.6823C27.3788 23.9922 27.1328 24.2384 27.1328 24.5422V34.8079C27.1328 35.1117 27.3788 35.3579 27.6823 35.3579H30.5476C30.8511 35.3579 31.0971 35.1117 31.0971 34.8079V24.5422C31.0971 24.2384 30.8511 23.9922 30.5476 23.9922Z" fill="#65577D"></path><path d="M30.5502 24.5453V34.8111H27.6848V24.5453H30.5502ZM30.5502 23.4453H27.6848C27.0777 23.4453 26.5859 23.9376 26.5859 24.5453V34.8111C26.5859 35.4188 27.0777 35.9111 27.6848 35.9111H30.5502C31.1574 35.9111 31.6491 35.4188 31.6491 34.8111V24.5453C31.6491 23.9376 31.1574 23.4453 30.5502 23.4453Z" fill="#65577D"></path><path d="M23.5398 29.8438H20.6745C20.371 29.8438 20.125 30.09 20.125 30.3937V34.813C20.125 35.1168 20.371 35.363 20.6745 35.363H23.5398C23.8433 35.363 24.0893 35.1168 24.0893 34.813V30.3937C24.0893 30.09 23.8433 29.8438 23.5398 29.8438Z" fill="#65577D"></path><path d="M23.5424 30.3891V34.8083H20.677V30.3891H23.5424ZM23.5424 29.2891H20.677C20.0699 29.2891 19.5781 29.7813 19.5781 30.3891V34.8083C19.5781 35.4161 20.0699 35.9083 20.677 35.9083H23.5424C24.1496 35.9083 24.6413 35.4161 24.6413 34.8083V30.3891C24.6413 29.7813 24.1496 29.2891 23.5424 29.2891Z" fill="#65577D"></path><path d="M37.5476 26.0781H34.6823C34.3788 26.0781 34.1328 26.3244 34.1328 26.6281V34.8121C34.1328 35.1159 34.3788 35.3621 34.6823 35.3621H37.5476C37.8511 35.3621 38.0971 35.1159 38.0971 34.8121V26.6281C38.0971 26.3244 37.8511 26.0781 37.5476 26.0781Z" fill="#65577D"></path><path d="M37.5502 26.6312V34.8152H34.6848V26.6312H37.5502ZM37.5502 25.5312H34.6848C34.0777 25.5312 33.5859 26.0235 33.5859 26.6312V34.8152C33.5859 35.423 34.0777 35.9152 34.6848 35.9152H37.5502C38.1574 35.9152 38.6491 35.423 38.6491 34.8152V26.6312C38.6491 26.0235 38.1574 25.5312 37.5502 25.5312Z" fill="#65577D"></path><path d="M44.5555 19.2031H41.6901C41.3866 19.2031 41.1406 19.4494 41.1406 19.7531V34.8121C41.1406 35.1159 41.3866 35.3621 41.6901 35.3621H44.5555C44.8589 35.3621 45.1049 35.1159 45.1049 34.8121V19.7531C45.1049 19.4494 44.8589 19.2031 44.5555 19.2031Z" fill="#65577D"></path><path d="M44.558 19.7484V34.8074H41.6927V19.7484H44.558ZM44.558 18.6484H41.6927C41.0855 18.6484 40.5938 19.1407 40.5938 19.7484V34.8074C40.5938 35.4152 41.0855 35.9074 41.6927 35.9074H44.558C45.1652 35.9074 45.6569 35.4152 45.6569 34.8074V19.7484C45.6569 19.1407 45.1652 18.6484 44.558 18.6484Z" fill="#65577D"></path><path d="M47.4515 6H17.7812C16.8708 6 16.1328 6.73873 16.1328 7.65V37.35C16.1328 38.2613 16.8708 39 17.7812 39H47.4515C48.3619 39 49.0998 38.2613 49.0998 37.35V7.65C49.0998 6.73873 48.3619 6 47.4515 6Z" stroke="#65577D" stroke-linejoin="round"></path><path d="M21.2812 24.3517L28.2867 17.5784L35.2922 20.2679L42.8472 12.3672" stroke="#65577D" stroke-linecap="round" stroke-linejoin="round"></path><path d="M44.6373 10.1965L41.434 10.9527C41.25 10.9967 41.1868 11.2277 41.3241 11.357L43.923 13.8402C44.0604 13.9722 44.2884 13.898 44.3214 13.711L44.9258 10.4715C44.9588 10.301 44.8049 10.1552 44.6373 10.1937V10.1965Z" fill="#65577D"></path></svg>