<svg xmlns="http://www.w3.org/2000/svg" width="50" height="45" viewBox="0 0 50 45" fill="none"><g clip-path="url(#clip0_672_26987)"><path d="M41.6308 28.6905C42.4559 28.2966 42.8128 27.2926 42.4281 26.4479L31.0952 1.56719C30.7105 0.722532 29.7297 0.357095 28.9047 0.750967L1.5486 13.8103C0.723536 14.2041 0.366576 15.2082 0.751311 16.0528L12.0842 40.9335C12.4689 41.7782 13.4497 42.1436 14.2748 41.7498L21.1138 38.4849" stroke="#FFC72C" stroke-linejoin="round"></path><path d="M2.51562 19.2372L32.5706 4.89062" stroke="#FFC72C"></path><path d="M16.5179 31.6428C17.7624 29.5362 18.6471 27.6153 19.1773 25.8771C19.702 24.1278 19.724 22.7243 19.2432 21.6668C18.9465 21.0143 18.5427 20.5699 18.0344 20.3337C17.5317 20.0834 16.919 20.1312 16.1938 20.4771C15.4492 20.8315 14.996 21.3462 14.8366 22.0212C14.6718 22.6849 14.7624 23.4499 15.1058 24.319L13.669 25.0053C13.158 23.6834 13.0976 22.5134 13.4877 21.4896C13.8723 20.4574 14.6196 19.6756 15.7267 19.1468C16.7817 18.6434 17.7487 18.5337 18.6278 18.8178C19.5069 19.1018 20.1883 19.7712 20.6718 20.8287C21.0701 21.7006 21.1965 22.7215 21.0564 23.8887C20.9218 25.0418 20.6141 26.2034 20.1361 27.3734C19.6635 28.5265 19.1141 29.5784 18.4822 30.529L24.1992 27.8009L24.7569 29.0271L17.0124 32.7228L16.5207 31.6428H16.5179Z" fill="#FFC72C"></path><path d="M28.5909 14.5587L29.0854 27.0378L27.5525 27.7691L27.1898 15.4053L21.2832 18.2262L20.6953 16.9353L28.0717 13.4141L28.5937 14.5587H28.5909Z" fill="#FFC72C"></path><mask id="path-5-inside-1_672_26987" fill="white"><path fill-rule="evenodd" clip-rule="evenodd" d="M18.1302 27H48.3499C48.9568 27 49.4488 27.5037 49.4488 28.125V43.3125C49.4488 43.9338 48.9568 44.4375 48.3499 44.4375H18.1302C17.5232 44.4375 17.0312 43.9338 17.0312 43.3125V28.125C17.0312 27.5037 17.5232 27 18.1302 27ZM20.8774 30.4375C20.6013 30.4375 20.3774 30.6614 20.3774 30.9375C20.3774 31.2136 20.6013 31.4375 20.8774 31.4375H25.273C25.5492 31.4375 25.773 31.2136 25.773 30.9375C25.773 30.6614 25.5492 30.4375 25.273 30.4375H20.8774ZM26.9707 30.9375C26.9707 30.6614 27.1946 30.4375 27.4707 30.4375H31.8663C32.1425 30.4375 32.3663 30.6614 32.3663 30.9375C32.3663 31.2136 32.1425 31.4375 31.8663 31.4375H27.4707C27.1946 31.4375 26.9707 31.2136 26.9707 30.9375ZM34.0642 30.4375C33.7881 30.4375 33.5642 30.6614 33.5642 30.9375C33.5642 31.2136 33.7881 31.4375 34.0642 31.4375H38.4598C38.736 31.4375 38.9598 31.2136 38.9598 30.9375C38.9598 30.6614 38.736 30.4375 38.4598 30.4375H34.0642ZM40.1577 30.9375C40.1577 30.6614 40.3816 30.4375 40.6577 30.4375H45.0533C45.3295 30.4375 45.5533 30.6614 45.5533 30.9375C45.5533 31.2136 45.3295 31.4375 45.0533 31.4375H40.6577C40.3816 31.4375 40.1577 31.2136 40.1577 30.9375ZM20.8774 36.0625C20.6013 36.0625 20.3774 36.2864 20.3774 36.5625C20.3774 36.8386 20.6013 37.0625 20.8774 37.0625H29.9434C30.2195 37.0625 30.4434 36.8386 30.4434 36.5625C30.4434 36.2864 30.2195 36.0625 29.9434 36.0625H20.8774ZM20.3774 39.9375C20.3774 39.6614 20.6013 39.4375 20.8774 39.4375H35.0258C35.3019 39.4375 35.5258 39.6614 35.5258 39.9375C35.5258 40.2136 35.3019 40.4375 35.0258 40.4375H20.8774C20.6013 40.4375 20.3774 40.2136 20.3774 39.9375ZM46.1522 38.5312C46.1522 39.7739 45.1682 40.7812 43.9544 40.7812C42.7406 40.7812 41.7566 39.7739 41.7566 38.5312C41.7566 37.2886 42.7406 36.2812 43.9544 36.2812C45.1682 36.2812 46.1522 37.2886 46.1522 38.5312Z"></path></mask><path fill-rule="evenodd" clip-rule="evenodd" d="M18.1302 27H48.3499C48.9568 27 49.4488 27.5037 49.4488 28.125V43.3125C49.4488 43.9338 48.9568 44.4375 48.3499 44.4375H18.1302C17.5232 44.4375 17.0312 43.9338 17.0312 43.3125V28.125C17.0312 27.5037 17.5232 27 18.1302 27ZM20.8774 30.4375C20.6013 30.4375 20.3774 30.6614 20.3774 30.9375C20.3774 31.2136 20.6013 31.4375 20.8774 31.4375H25.273C25.5492 31.4375 25.773 31.2136 25.773 30.9375C25.773 30.6614 25.5492 30.4375 25.273 30.4375H20.8774ZM26.9707 30.9375C26.9707 30.6614 27.1946 30.4375 27.4707 30.4375H31.8663C32.1425 30.4375 32.3663 30.6614 32.3663 30.9375C32.3663 31.2136 32.1425 31.4375 31.8663 31.4375H27.4707C27.1946 31.4375 26.9707 31.2136 26.9707 30.9375ZM34.0642 30.4375C33.7881 30.4375 33.5642 30.6614 33.5642 30.9375C33.5642 31.2136 33.7881 31.4375 34.0642 31.4375H38.4598C38.736 31.4375 38.9598 31.2136 38.9598 30.9375C38.9598 30.6614 38.736 30.4375 38.4598 30.4375H34.0642ZM40.1577 30.9375C40.1577 30.6614 40.3816 30.4375 40.6577 30.4375H45.0533C45.3295 30.4375 45.5533 30.6614 45.5533 30.9375C45.5533 31.2136 45.3295 31.4375 45.0533 31.4375H40.6577C40.3816 31.4375 40.1577 31.2136 40.1577 30.9375ZM20.8774 36.0625C20.6013 36.0625 20.3774 36.2864 20.3774 36.5625C20.3774 36.8386 20.6013 37.0625 20.8774 37.0625H29.9434C30.2195 37.0625 30.4434 36.8386 30.4434 36.5625C30.4434 36.2864 30.2195 36.0625 29.9434 36.0625H20.8774ZM20.3774 39.9375C20.3774 39.6614 20.6013 39.4375 20.8774 39.4375H35.0258C35.3019 39.4375 35.5258 39.6614 35.5258 39.9375C35.5258 40.2136 35.3019 40.4375 35.0258 40.4375H20.8774C20.6013 40.4375 20.3774 40.2136 20.3774 39.9375ZM46.1522 38.5312C46.1522 39.7739 45.1682 40.7812 43.9544 40.7812C42.7406 40.7812 41.7566 39.7739 41.7566 38.5312C41.7566 37.2886 42.7406 36.2812 43.9544 36.2812C45.1682 36.2812 46.1522 37.2886 46.1522 38.5312Z" fill="#FFC72C"></path><path d="M48.3499 26H18.1302V28H48.3499V26ZM50.4488 28.125C50.4488 26.9737 49.5311 26 48.3499 26V28C48.3826 28 48.4488 28.0337 48.4488 28.125H50.4488ZM50.4488 43.3125V28.125H48.4488V43.3125H50.4488ZM48.3499 45.4375C49.5311 45.4375 50.4488 44.4638 50.4488 43.3125H48.4488C48.4488 43.4038 48.3826 43.4375 48.3499 43.4375V45.4375ZM18.1302 45.4375H48.3499V43.4375H18.1302V45.4375ZM16.0312 43.3125C16.0312 44.4638 16.949 45.4375 18.1302 45.4375V43.4375C18.0975 43.4375 18.0312 43.4038 18.0312 43.3125H16.0312ZM16.0312 28.125V43.3125H18.0312V28.125H16.0312ZM18.1302 26C16.949 26 16.0312 26.9737 16.0312 28.125H18.0312C18.0312 28.0337 18.0975 28 18.1302 28V26ZM21.3774 30.9375C21.3774 31.2136 21.1536 31.4375 20.8774 31.4375V29.4375C20.049 29.4375 19.3774 30.1091 19.3774 30.9375H21.3774ZM20.8774 30.4375C21.1536 30.4375 21.3774 30.6614 21.3774 30.9375H19.3774C19.3774 31.7659 20.049 32.4375 20.8774 32.4375V30.4375ZM25.273 30.4375H20.8774V32.4375H25.273V30.4375ZM24.773 30.9375C24.773 30.6614 24.9969 30.4375 25.273 30.4375V32.4375C26.1015 32.4375 26.773 31.7659 26.773 30.9375H24.773ZM25.273 31.4375C24.9969 31.4375 24.773 31.2136 24.773 30.9375H26.773C26.773 30.1091 26.1015 29.4375 25.273 29.4375V31.4375ZM20.8774 31.4375H25.273V29.4375H20.8774V31.4375ZM27.4707 29.4375C26.6423 29.4375 25.9707 30.1091 25.9707 30.9375H27.9707C27.9707 31.2136 27.7468 31.4375 27.4707 31.4375V29.4375ZM31.8663 29.4375H27.4707V31.4375H31.8663V29.4375ZM33.3663 30.9375C33.3663 30.1091 32.6947 29.4375 31.8663 29.4375V31.4375C31.5902 31.4375 31.3663 31.2136 31.3663 30.9375H33.3663ZM31.8663 32.4375C32.6947 32.4375 33.3663 31.7659 33.3663 30.9375H31.3663C31.3663 30.6614 31.5902 30.4375 31.8663 30.4375V32.4375ZM27.4707 32.4375H31.8663V30.4375H27.4707V32.4375ZM25.9707 30.9375C25.9707 31.7659 26.6423 32.4375 27.4707 32.4375V30.4375C27.7468 30.4375 27.9707 30.6614 27.9707 30.9375H25.9707ZM34.5642 30.9375C34.5642 31.2136 34.3404 31.4375 34.0642 31.4375V29.4375C33.2358 29.4375 32.5642 30.1091 32.5642 30.9375H34.5642ZM34.0642 30.4375C34.3404 30.4375 34.5642 30.6614 34.5642 30.9375H32.5642C32.5642 31.7659 33.2358 32.4375 34.0642 32.4375V30.4375ZM38.4598 30.4375H34.0642V32.4375H38.4598V30.4375ZM37.9598 30.9375C37.9598 30.6614 38.1837 30.4375 38.4598 30.4375V32.4375C39.2882 32.4375 39.9598 31.7659 39.9598 30.9375H37.9598ZM38.4598 31.4375C38.1837 31.4375 37.9598 31.2136 37.9598 30.9375H39.9598C39.9598 30.1091 39.2882 29.4375 38.4598 29.4375V31.4375ZM34.0642 31.4375H38.4598V29.4375H34.0642V31.4375ZM40.6577 29.4375C39.8293 29.4375 39.1577 30.1091 39.1577 30.9375H41.1577C41.1577 31.2136 40.9339 31.4375 40.6577 31.4375V29.4375ZM45.0533 29.4375H40.6577V31.4375H45.0533V29.4375ZM46.5533 30.9375C46.5533 30.1091 45.8817 29.4375 45.0533 29.4375V31.4375C44.7772 31.4375 44.5533 31.2136 44.5533 30.9375H46.5533ZM45.0533 32.4375C45.8817 32.4375 46.5533 31.7659 46.5533 30.9375H44.5533C44.5533 30.6614 44.7772 30.4375 45.0533 30.4375V32.4375ZM40.6577 32.4375H45.0533V30.4375H40.6577V32.4375ZM39.1577 30.9375C39.1577 31.7659 39.8293 32.4375 40.6577 32.4375V30.4375C40.9339 30.4375 41.1577 30.6614 41.1577 30.9375H39.1577ZM21.3774 36.5625C21.3774 36.8386 21.1536 37.0625 20.8774 37.0625V35.0625C20.049 35.0625 19.3774 35.7341 19.3774 36.5625H21.3774ZM20.8774 36.0625C21.1536 36.0625 21.3774 36.2864 21.3774 36.5625H19.3774C19.3774 37.3909 20.049 38.0625 20.8774 38.0625V36.0625ZM29.9434 36.0625H20.8774V38.0625H29.9434V36.0625ZM29.4434 36.5625C29.4434 36.2864 29.6672 36.0625 29.9434 36.0625V38.0625C30.7718 38.0625 31.4434 37.3909 31.4434 36.5625H29.4434ZM29.9434 37.0625C29.6672 37.0625 29.4434 36.8386 29.4434 36.5625H31.4434C31.4434 35.7341 30.7718 35.0625 29.9434 35.0625V37.0625ZM20.8774 37.0625H29.9434V35.0625H20.8774V37.0625ZM20.8774 38.4375C20.049 38.4375 19.3774 39.1091 19.3774 39.9375H21.3774C21.3774 40.2136 21.1536 40.4375 20.8774 40.4375V38.4375ZM35.0258 38.4375H20.8774V40.4375H35.0258V38.4375ZM36.5258 39.9375C36.5258 39.1091 35.8542 38.4375 35.0258 38.4375V40.4375C34.7497 40.4375 34.5258 40.2136 34.5258 39.9375H36.5258ZM35.0258 41.4375C35.8542 41.4375 36.5258 40.7659 36.5258 39.9375H34.5258C34.5258 39.6614 34.7497 39.4375 35.0258 39.4375V41.4375ZM20.8774 41.4375H35.0258V39.4375H20.8774V41.4375ZM19.3774 39.9375C19.3774 40.7659 20.049 41.4375 20.8774 41.4375V39.4375C21.1536 39.4375 21.3774 39.6614 21.3774 39.9375H19.3774ZM43.9544 41.7812C45.7425 41.7812 47.1522 40.3039 47.1522 38.5312H45.1522C45.1522 39.2439 44.5939 39.7812 43.9544 39.7812V41.7812ZM40.7566 38.5312C40.7566 40.3039 42.1663 41.7812 43.9544 41.7812V39.7812C43.3149 39.7812 42.7566 39.2439 42.7566 38.5312H40.7566ZM43.9544 35.2812C42.1663 35.2812 40.7566 36.7586 40.7566 38.5312H42.7566C42.7566 37.8186 43.3149 37.2812 43.9544 37.2812V35.2812ZM47.1522 38.5312C47.1522 36.7586 45.7425 35.2812 43.9544 35.2812V37.2812C44.5939 37.2812 45.1522 37.8186 45.1522 38.5312H47.1522Z" fill="#FFC72C" mask="url(#path-5-inside-1_672_26987)"></path></g><defs><clipPath id="clip0_672_26987"><rect width="50" height="45" fill="white"></rect></clipPath></defs></svg>