<svg xmlns="http://www.w3.org/2000/svg" width="139" height="26" viewBox="0 0 139 26" fill="none"><path d="M12.4266 2.0573C12.6258 1.44433 13.493 1.44433 13.6921 2.0573L15.7699 8.45193C15.8589 8.72606 16.1144 8.91166 16.4026 8.91166H23.1264C23.7709 8.91166 24.0388 9.7364 23.5174 10.1152L18.0778 14.0673C17.8446 14.2368 17.7471 14.5371 17.8361 14.8112L19.9139 21.2058C20.113 21.8188 19.4115 22.3285 18.89 21.9497L13.4504 17.9976C13.2172 17.8282 12.9015 17.8282 12.6683 17.9976L7.2287 21.9497C6.70728 22.3285 6.00571 21.8188 6.20487 21.2058L8.28262 14.8112C8.37169 14.5371 8.27411 14.2368 8.04092 14.0673L2.60132 10.1152C2.0799 9.7364 2.34787 8.91166 2.99239 8.91166H9.71611C10.0043 8.91166 10.2598 8.72606 10.3489 8.45193L12.4266 2.0573Z" fill="#FAAE4B"></path><path d="M40.5638 2.0573C40.763 1.44433 41.6302 1.44433 41.8293 2.0573L43.9071 8.45193C43.9961 8.72606 44.2516 8.91166 44.5398 8.91166H51.2636C51.9081 8.91166 52.176 9.7364 51.6546 10.1152L46.215 14.0673C45.9818 14.2368 45.8843 14.5371 45.9733 14.8112L48.0511 21.2058C48.2502 21.8188 47.5487 22.3285 47.0272 21.9497L41.5876 17.9976C41.3545 17.8282 41.0387 17.8282 40.8055 17.9976L35.3659 21.9497C34.8445 22.3285 34.1429 21.8188 34.3421 21.2058L36.4198 14.8112C36.5089 14.5371 36.4113 14.2368 36.1781 14.0673L30.7385 10.1152C30.2171 9.7364 30.4851 8.91166 31.1296 8.91166H37.8533C38.1415 8.91166 38.397 8.72606 38.4861 8.45193L40.5638 2.0573Z" fill="#FAAE4B"></path><path d="M68.7015 2.0573C68.9007 1.44433 69.7679 1.44433 69.967 2.0573L72.0448 8.45193C72.1338 8.72606 72.3893 8.91166 72.6775 8.91166H79.4013C80.0458 8.91166 80.3137 9.7364 79.7923 10.1152L74.3527 14.0673C74.1195 14.2368 74.022 14.5371 74.111 14.8112L76.1888 21.2058C76.3879 21.8188 75.6864 22.3285 75.1649 21.9497L69.7253 17.9976C69.4922 17.8282 69.1764 17.8282 68.9432 17.9976L63.5036 21.9497C62.9822 22.3285 62.2806 21.8188 62.4798 21.2058L64.5575 14.8112C64.6466 14.5371 64.549 14.2368 64.3158 14.0673L58.8762 10.1152C58.3548 9.7364 58.6228 8.91166 59.2673 8.91166H65.991C66.2792 8.91166 66.5347 8.72606 66.6238 8.45193L68.7015 2.0573Z" fill="#FAAE4B"></path><path d="M96.8392 2.0573C97.0384 1.44433 97.9056 1.44433 98.1047 2.0573L100.182 8.45193C100.272 8.72606 100.527 8.91166 100.815 8.91166H107.539C108.183 8.91166 108.451 9.7364 107.93 10.1152L102.49 14.0673C102.257 14.2368 102.16 14.5371 102.249 14.8112L104.326 21.2058C104.526 21.8188 103.824 22.3285 103.303 21.9497L97.863 17.9976C97.6298 17.8282 97.3141 17.8282 97.0809 17.9976L91.6413 21.9497C91.1199 22.3285 90.4183 21.8188 90.6175 21.2058L92.6952 14.8112C92.7843 14.5371 92.6867 14.2368 92.4535 14.0673L87.0139 10.1152C86.4925 9.7364 86.7605 8.91166 87.405 8.91166H94.1287C94.4169 8.91166 94.6724 8.72606 94.7615 8.45193L96.8392 2.0573Z" fill="#FAAE4B"></path><path d="M124.976 2.0573C125.176 1.44433 126.043 1.44433 126.242 2.0573L128.32 8.45193C128.409 8.72606 128.664 8.91166 128.952 8.91166H135.676C136.321 8.91166 136.589 9.7364 136.067 10.1152L130.628 14.0673C130.394 14.2368 130.297 14.5371 130.386 14.8112L132.464 21.2058C132.663 21.8188 131.961 22.3285 131.44 21.9497L126 17.9976C125.767 17.8282 125.451 17.8282 125.218 17.9976L119.779 21.9497C119.257 22.3285 118.556 21.8188 118.755 21.2058L120.832 14.8112C120.921 14.5371 120.824 14.2368 120.591 14.0673L115.151 10.1152C114.63 9.7364 114.898 8.91166 115.542 8.91166H122.266C122.554 8.91166 122.81 8.72606 122.899 8.45193L124.976 2.0573Z" fill="#FAAE4B"></path></svg>