<svg xmlns="http://www.w3.org/2000/svg" width="40" height="40" viewBox="0 0 40 40" fill="none"><rect x="0.209961" y="-0.00488281" width="39.6238" height="39.6238" rx="12.0186" fill="#C1A6FB"></rect><path d="M18.5066 24.5465L12.0617 21.617C11.8444 21.518 11.5872 21.5613 11.4149 21.7266C11.2415 21.8918 11.1864 22.1461 11.2755 22.3681L12.3605 25.0802L11.2755 27.7923C11.187 28.0144 11.2415 28.2681 11.4149 28.4339C11.5256 28.5399 11.6715 28.5956 11.8192 28.5956C11.9012 28.5956 11.9838 28.5786 12.0617 28.5428L18.5066 25.6134C18.7151 25.5185 18.8499 25.3099 18.8499 25.0802C18.8499 24.8505 18.7157 24.6414 18.5066 24.5465ZM12.9048 26.8725L13.5347 25.2976C13.5903 25.1581 13.5903 25.0023 13.5347 24.8628L12.9048 23.288L16.8473 25.0808L12.9048 26.8736V26.8725Z" fill="white"></path><path d="M25.2947 18.0493C27.2334 18.0493 28.81 16.4726 28.81 14.5339C28.81 12.5952 27.2334 11.0186 25.2947 11.0186C23.3559 11.0186 21.7793 12.5952 21.7793 14.5339C21.7793 16.4726 23.3559 18.0493 25.2947 18.0493ZM25.2947 12.1903C26.5871 12.1903 27.6382 13.2414 27.6382 14.5339C27.6382 15.8264 26.5871 16.8775 25.2947 16.8775C24.0022 16.8775 22.9511 15.8264 22.9511 14.5339C22.9511 13.2414 24.0022 12.1903 25.2947 12.1903Z" fill="white"></path><path d="M25.5878 19.2208H14.4558C13.325 19.2208 12.4052 18.301 12.4052 17.1702C12.4052 16.0394 13.325 15.1196 14.4558 15.1196H19.1933L19.0217 15.2913C18.7926 15.5203 18.7926 15.8906 19.0217 16.1197C19.1359 16.234 19.2859 16.2914 19.4359 16.2914C19.5859 16.2914 19.7359 16.234 19.8501 16.1197L21.0219 14.9479C21.251 14.7188 21.251 14.3486 21.0219 14.1195L19.8501 12.9477C19.621 12.7186 19.2508 12.7186 19.0217 12.9477C18.7926 13.1768 18.7926 13.5471 19.0217 13.7761L19.1933 13.9478H14.4558C12.6794 13.9478 11.2334 15.3932 11.2334 17.1702C11.2334 18.9472 12.6794 20.3926 14.4558 20.3926H25.5878C26.7185 20.3926 27.6384 21.3125 27.6384 22.4433C27.6384 23.574 26.7185 24.4939 25.5878 24.4939H20.0218C19.6978 24.4939 19.4359 24.7558 19.4359 25.0798C19.4359 25.4038 19.6978 25.6657 20.0218 25.6657H25.5878C27.3642 25.6657 28.8102 24.2197 28.8102 22.4433C28.8102 20.6668 27.3642 19.2208 25.5878 19.2208Z" fill="white"></path><path d="M25.2948 16.2912C26.2639 16.2912 27.0525 15.5026 27.0525 14.5336C27.0525 13.5645 26.2639 12.7759 25.2948 12.7759C24.3257 12.7759 23.5371 13.5645 23.5371 14.5336C23.5371 15.5026 24.3257 16.2912 25.2948 16.2912ZM25.2948 13.9477C25.6182 13.9477 25.8807 14.2107 25.8807 14.5336C25.8807 14.8564 25.6182 15.1195 25.2948 15.1195C24.9714 15.1195 24.7089 14.8564 24.7089 14.5336C24.7089 14.2107 24.9714 13.9477 25.2948 13.9477Z" fill="white"></path></svg>