<svg xmlns="http://www.w3.org/2000/svg" width="41" height="40" viewBox="0 0 41 40" fill="none"><rect x="0.771484" y="0.260254" width="39.457" height="39.457" rx="11.968" fill="#AFF9DA"></rect><path d="M16.8052 16.8774C16.8052 16.5552 17.0664 16.2939 17.3886 16.2939H20.5002C20.8224 16.2939 21.0836 16.5552 21.0836 16.8774C21.0836 17.1996 20.8224 17.4608 20.5002 17.4608H17.3886C17.0664 17.4608 16.8052 17.1996 16.8052 16.8774Z" fill="white"></path><path d="M16.8052 19.9887C16.8052 19.6665 17.0664 19.4053 17.3886 19.4053H23.6118C23.934 19.4053 24.1952 19.6665 24.1952 19.9887C24.1952 20.3109 23.934 20.5721 23.6118 20.5721H17.3886C17.0664 20.5721 16.8052 20.3109 16.8052 19.9887Z" fill="white"></path><path fill-rule="evenodd" clip-rule="evenodd" d="M18.9182 11.626H22.0821C23.1491 11.626 23.9857 11.626 24.6581 11.6809C25.3427 11.7368 25.9083 11.8526 26.4203 12.1135C27.262 12.5423 27.9462 13.2266 28.3751 14.0682C28.6359 14.5802 28.7517 15.1458 28.8077 15.8305C28.8626 16.5029 28.8626 17.3394 28.8626 18.4065V19.3538V19.4681C28.8627 20.6727 28.8629 21.4076 28.6819 22.0249C28.2533 23.4867 27.11 24.6299 25.6482 25.0586C25.031 25.2396 24.2961 25.2394 23.0914 25.2393C23.0538 25.2393 23.0157 25.2393 22.9771 25.2393H22.5502L22.5033 25.2393C21.8287 25.2436 21.1716 25.4543 20.6202 25.8428L20.5819 25.8701L18.551 27.3207C17.3807 28.1566 15.8427 26.9494 16.3769 25.614C16.4487 25.4345 16.3165 25.2393 16.1232 25.2393H15.6551C13.7125 25.2393 12.1377 23.6645 12.1377 21.7218V18.4065C12.1377 17.3394 12.1377 16.5029 12.1926 15.8305C12.2486 15.1458 12.3644 14.5802 12.6252 14.0682C13.054 13.2266 13.7383 12.5423 14.58 12.1135C15.0919 11.8526 15.6575 11.7368 16.3422 11.6809C17.0146 11.626 17.8512 11.626 18.9182 11.626ZM16.4372 12.8439C15.8247 12.8939 15.4298 12.9901 15.1097 13.1532C14.4876 13.4701 13.9819 13.9759 13.6649 14.598C13.5018 14.918 13.4056 15.313 13.3556 15.9255C13.305 16.5448 13.3045 17.3338 13.3045 18.4326V21.7218C13.3045 23.0201 14.3569 24.0724 15.6551 24.0724H16.1232C17.142 24.0724 17.8387 25.1014 17.4603 26.0473C17.3589 26.3007 17.6508 26.5298 17.8728 26.3712L19.948 24.889C20.6941 24.3633 21.5831 24.0783 22.4958 24.0725L22.5502 24.0724H22.9771C24.3322 24.0724 24.8846 24.0665 25.3199 23.9388C26.4004 23.622 27.2453 22.777 27.5622 21.6965C27.6898 21.2613 27.6957 20.7088 27.6957 19.3538V18.4326C27.6957 17.3338 27.6953 16.5448 27.6447 15.9255C27.5946 15.313 27.4985 14.918 27.3354 14.598C27.0184 13.9759 26.5126 13.4701 25.8906 13.1532C25.5705 12.9901 25.1756 12.8939 24.563 12.8439C23.9438 12.7933 23.1547 12.7928 22.0559 12.7928H18.9443C17.8455 12.7928 17.0565 12.7933 16.4372 12.8439Z" fill="white"></path></svg>