<svg xmlns="http://www.w3.org/2000/svg" width="41" height="41" viewBox="0 0 41 41" fill="none"><rect x="0.858398" y="0.437012" width="39.6321" height="39.6321" rx="12.0211" fill="#FEC640"></rect><path fill-rule="evenodd" clip-rule="evenodd" d="M27.7069 15.5651V24.9414H13.6425C13.3191 24.9414 13.0565 25.2039 13.0565 25.5274C13.0565 25.8509 13.3191 26.1134 13.6425 26.1134H28.293C28.6164 26.1134 28.879 25.8509 28.879 25.5274V15.5651C28.879 15.2416 28.6164 14.9791 28.293 14.9791C27.9695 14.9791 27.7069 15.2416 27.7069 15.5651ZM27.0606 15.5651C27.0606 14.9181 26.5355 14.3931 25.8885 14.3931H13.5822C12.9358 14.3931 12.4102 14.9181 12.4102 15.5651V23.1833C12.4102 23.8303 12.9358 24.3553 13.5822 24.3553H25.8885C26.5355 24.3553 27.0606 23.8303 27.0606 23.1833V15.5651ZM25.8885 15.5651V23.1833H13.5822V15.5651H25.8885ZM25.3025 18.0557C25.3025 17.7322 25.0406 17.4697 24.7165 17.4697C24.3127 17.4697 23.984 17.1415 23.984 16.7371C23.984 16.4137 23.722 16.1511 23.398 16.1511H16.0728C15.7493 16.1511 15.4867 16.4137 15.4867 16.7371C15.4867 17.1415 15.1586 17.4697 14.7542 17.4697C14.4307 17.4697 14.1682 17.7322 14.1682 18.0557V20.6927C14.1682 21.0162 14.4307 21.2788 14.7542 21.2788C15.1586 21.2788 15.4867 21.6069 15.4867 22.0113C15.4867 22.3348 15.7493 22.5973 16.0728 22.5973H23.398C23.722 22.5973 23.984 22.3348 23.984 22.0113C23.984 21.6069 24.3127 21.2788 24.7165 21.2788C25.0406 21.2788 25.3025 21.0162 25.3025 20.6927V18.0557ZM24.1305 18.5497V20.1987C23.5509 20.3863 23.0921 20.8451 22.9039 21.4253H16.5668C16.3792 20.8451 15.9204 20.3863 15.3402 20.1987V18.5497C15.9204 18.3622 16.3792 17.9033 16.5674 17.3231C16.5668 17.3231 22.9045 17.3231 22.9045 17.3231C23.0921 17.9033 23.5503 18.3622 24.1305 18.5497ZM19.7957 17.9092C18.987 17.9092 18.3307 18.5655 18.3307 19.3742C18.3307 20.1829 18.987 20.8392 19.7957 20.8392C20.6044 20.8392 21.2608 20.1829 21.2608 19.3742C21.2608 18.5655 20.6044 17.9092 19.7957 17.9092ZM19.7957 19.0812C19.9575 19.0812 20.0887 19.2125 20.0887 19.3742C20.0887 19.5359 19.9575 19.6672 19.7957 19.6672C19.634 19.6672 19.5027 19.5359 19.5027 19.3742C19.5027 19.2125 19.634 19.0812 19.7957 19.0812Z" fill="white"></path></svg>