<svg xmlns="http://www.w3.org/2000/svg" width="41" height="41" viewBox="0 0 41 41" fill="none"><rect x="0.437988" y="0.437012" width="39.6321" height="39.6321" rx="12.0211" fill="#C1A6FB"></rect><g clip-path="url(#clip0_25483_2285)"><path d="M21.9735 12.4399H20.0982C19.8391 12.4399 19.6294 12.6497 19.6294 12.9088C19.6294 13.1678 19.8391 13.3776 20.0982 13.3776H21.9735C22.2326 13.3776 22.4423 13.1678 22.4423 12.9088C22.4423 12.6497 22.2326 12.4399 21.9735 12.4399Z" fill="white"></path><path d="M24.0047 10.877H16.5037C15.4698 10.877 14.6284 11.7183 14.6284 12.7522V27.7542C14.6284 28.7881 15.4698 29.6295 16.5037 29.6295H24.0047C25.0386 29.6295 25.8799 28.7881 25.8799 27.7542V12.7522C25.8799 11.7183 25.0386 10.877 24.0047 10.877ZM24.9423 27.7542C24.9423 28.2721 24.5226 28.6918 24.0047 28.6918H16.5037C15.9858 28.6918 15.566 28.2721 15.566 27.7542V12.7522C15.566 12.2343 15.9858 11.8146 16.5037 11.8146H24.0047C24.5226 11.8146 24.9423 12.2343 24.9423 12.7522V27.7542Z" fill="white"></path><path d="M20.254 28.0671C20.7719 28.0671 21.1917 27.6474 21.1917 27.1295C21.1917 26.6117 20.7719 26.1919 20.254 26.1919C19.7362 26.1919 19.3164 26.6117 19.3164 27.1295C19.3164 27.6474 19.7362 28.0671 20.254 28.0671Z" fill="white"></path><path d="M18.5352 13.3776C18.7941 13.3776 19.004 13.1677 19.004 12.9088C19.004 12.6498 18.7941 12.4399 18.5352 12.4399C18.2763 12.4399 18.0664 12.6498 18.0664 12.9088C18.0664 13.1677 18.2763 13.3776 18.5352 13.3776Z" fill="white"></path></g><defs><clipPath id="clip0_25483_2285"><rect width="18.7525" height="18.7525" fill="white" transform="translate(10.8779 10.877)"></rect></clipPath></defs></svg>