<svg xmlns="http://www.w3.org/2000/svg" width="41" height="41" viewBox="0 0 41 41" fill="none"><rect x="0.555664" y="0.934082" width="39.6623" height="39.6623" rx="12.0303" fill="#AFF9DA"></rect><path fill-rule="evenodd" clip-rule="evenodd" d="M12.5674 16.8555C12.5674 14.6963 14.3178 12.9458 16.4771 12.9458H24.2966C26.4559 12.9458 28.2064 14.6963 28.2064 16.8555V24.675C28.2064 26.8343 26.4559 28.5848 24.2966 28.5848H16.4771C14.3178 28.5848 12.5674 26.8343 12.5674 24.675V16.8555ZM16.4771 14.5097C15.1816 14.5097 14.1313 15.56 14.1313 16.8555V24.675C14.1313 25.9707 15.1816 27.0209 16.4771 27.0209H24.2966C25.5922 27.0209 26.6425 25.9707 26.6425 24.675V16.8555C26.6425 15.56 25.5922 14.5097 24.2966 14.5097H16.4771Z" fill="white"></path><path fill-rule="evenodd" clip-rule="evenodd" d="M23.5149 21.5479C23.9467 21.5479 24.2968 21.8979 24.2968 22.3298V23.8937C24.2968 24.3256 23.9467 24.6756 23.5149 24.6756C23.083 24.6756 22.7329 24.3256 22.7329 23.8937V22.3298C22.7329 21.8979 23.083 21.5479 23.5149 21.5479Z" fill="white"></path><path fill-rule="evenodd" clip-rule="evenodd" d="M17.259 16.856C17.6909 16.856 18.0409 17.2061 18.0409 17.6379V23.8935C18.0409 24.3254 17.6909 24.6755 17.259 24.6755C16.8271 24.6755 16.4771 24.3254 16.4771 23.8935V17.6379C16.4771 17.2061 16.8271 16.856 17.259 16.856Z" fill="white"></path><path fill-rule="evenodd" clip-rule="evenodd" d="M20.3869 19.2021C20.8188 19.2021 21.1689 19.5522 21.1689 19.9841V23.8938C21.1689 24.3257 20.8188 24.6758 20.3869 24.6758C19.9551 24.6758 19.605 24.3257 19.605 23.8938V19.9841C19.605 19.5522 19.9551 19.2021 20.3869 19.2021Z" fill="white"></path></svg>