<svg xmlns="http://www.w3.org/2000/svg" width="40" height="41" viewBox="0 0 40 41" fill="none"><rect x="0.0224609" y="0.963379" width="39.6238" height="39.6238" rx="12.0186" fill="#FEC640"></rect><path d="M27.9959 26.7365L25.6715 22.0872C26.4323 20.9651 26.8773 19.6122 26.8773 18.1572C26.8773 14.2858 23.7277 11.1362 19.8563 11.1362C15.985 11.1362 12.8354 14.2858 12.8354 18.1572C12.8354 19.6122 13.2804 20.9652 14.0413 22.0875L11.7166 26.7365C11.6315 26.9068 11.6407 27.109 11.7407 27.2709C11.8408 27.4328 12.0176 27.5315 12.208 27.5315H14.875L16.4752 29.6651C16.5796 29.8041 16.7426 29.8848 16.9146 29.8848C17.1424 29.8848 17.322 29.7489 17.4059 29.5811L19.6099 25.1733C19.6917 25.1762 19.7738 25.1782 19.8563 25.1782C19.9389 25.1782 20.021 25.1762 20.1028 25.1733L22.3068 29.5811C22.3905 29.7486 22.5701 29.8848 22.7981 29.8848C22.9699 29.8848 23.1331 29.8041 23.2374 29.6651L24.8377 27.5315H27.5047C27.6951 27.5315 27.8719 27.4328 27.9719 27.2709C28.072 27.109 28.0812 26.9068 27.9959 26.7365ZM16.8209 28.2949L15.589 26.6527C15.4853 26.5143 15.3225 26.433 15.1496 26.433H13.0967L14.8012 23.0243C15.769 24.029 17.0323 24.7472 18.45 25.0366L16.8209 28.2949ZM13.9339 18.1572C13.9339 14.8916 16.5907 12.2348 19.8563 12.2348C23.122 12.2348 25.7788 14.8916 25.7788 18.1572C25.7788 21.4228 23.122 24.0797 19.8563 24.0797C16.5907 24.0797 13.9339 21.4228 13.9339 18.1572ZM24.5629 26.433C24.3902 26.433 24.2274 26.5143 24.1235 26.6527L22.8918 28.2949L21.2626 25.0366C22.6804 24.7471 23.9439 24.029 24.9117 23.024L26.6159 26.4328H24.5629V26.433Z" fill="white" stroke="white" stroke-width="0.220571"></path><path d="M22.6603 19.0675L24.1943 17.2366C24.3158 17.0915 24.3542 16.8941 24.2957 16.7142C24.2372 16.5341 24.0901 16.3969 23.9066 16.351L21.5895 15.7714L20.322 13.7467C20.2216 13.5862 20.0457 13.4888 19.8564 13.4888C19.6672 13.4888 19.4912 13.5862 19.3908 13.7467L18.1236 15.7714L15.8067 16.351C15.623 16.3969 15.476 16.5341 15.4175 16.714C15.3591 16.8941 15.3973 17.0915 15.5189 17.2366L17.0528 19.0675L16.8878 21.4501C16.8748 21.6389 16.9597 21.8212 17.1128 21.9324C17.3452 22.1014 17.5817 22.0214 17.641 21.9975L19.8564 21.1047L22.0718 21.9977C22.2473 22.0683 22.4469 22.0437 22.5999 21.9326C22.7531 21.8213 22.8381 21.6391 22.8251 21.4502L22.6603 19.0675ZM21.676 18.5317C21.5848 18.6407 21.5393 18.7805 21.5492 18.9223L21.6686 20.6507L20.0618 20.003C19.8837 19.9312 19.7275 19.9721 19.6512 20.003L18.0444 20.6507L18.1641 18.9224C18.1738 18.7807 18.1284 18.6407 18.0371 18.5317L16.9245 17.2038L18.6051 16.7834C18.743 16.7489 18.862 16.6624 18.9374 16.542L19.8566 15.0734L20.7759 16.542C20.8513 16.6624 20.9703 16.7489 21.1082 16.7834L22.7887 17.2038L21.676 18.5317Z" fill="white" stroke="white" stroke-width="0.220571"></path></svg>