<svg xmlns="http://www.w3.org/2000/svg" width="40" height="41" viewBox="0 0 40 41" fill="none"><rect x="0.275391" y="0.437012" width="39.6321" height="39.6321" rx="12.0211" fill="#C1A6FB"></rect><g clip-path="url(#clip0_25483_2257)"><path d="M26.7117 15.2904H25.715L25.715 16.3938H23.4017C22.8281 16.3938 22.2696 16.4906 21.7443 16.6761V14.6298L22.8477 14.6298V13.6331L20.0916 10.877L17.3355 13.6331V14.6298L18.4388 14.6298V21.0921C17.9203 20.9079 17.3625 20.8072 16.7815 20.8072H14.4681V19.7038H13.4714L10.7153 22.46L13.4714 25.2161H14.4681V24.1127H16.7815C17.6954 24.1127 18.4388 24.8562 18.4388 25.77V29.6295H21.7443L21.7443 25.77V21.3566C21.7443 20.4428 22.4878 19.6993 23.4017 19.6993H25.715V20.8026H26.7117L29.4678 18.0465L26.7117 15.2904ZM20.0916 12.4309L21.1917 13.531H20.6456V17.2277C20.254 17.4904 19.8656 17.8372 19.5376 18.2419V13.531H18.9915L20.0916 12.4309ZM20.6455 28.5307H19.5376V25.77C19.5376 24.2503 18.3012 23.0139 16.7815 23.0139H13.3694V23.5601L12.2692 22.4599L13.3694 21.3598V21.906H16.7815C18.9122 21.906 20.6456 23.6394 20.6456 25.77L20.6455 28.5307ZM23.4017 18.6005C21.8819 18.6005 20.6456 19.8369 20.6456 21.3566V22.6596C20.3299 22.2683 19.9563 21.9256 19.5376 21.6449V21.3566C19.491 19.3006 21.3205 17.4463 23.4017 17.4926H26.8139L26.8138 16.9464L27.914 18.0466L26.8138 19.1467V18.6005L23.4017 18.6005Z" fill="white"></path></g><defs><clipPath id="clip0_25483_2257"><rect width="18.7525" height="18.7525" fill="white" transform="translate(10.7153 10.877)"></rect></clipPath></defs></svg>