<svg xmlns="http://www.w3.org/2000/svg" width="40" height="41" viewBox="0 0 40 41" fill="none"><rect x="0.0205078" y="0.437012" width="39.6321" height="39.6321" rx="12.0211" fill="#FEC640"></rect><path fill-rule="evenodd" clip-rule="evenodd" d="M14.758 14.589C14.6501 14.589 14.5627 14.6765 14.5627 14.7844V27.286C14.5627 27.3939 14.6501 27.4814 14.758 27.4814H24.9156C25.0235 27.4814 25.1109 27.3939 25.1109 27.286V14.7844C25.1109 14.6765 25.0235 14.589 24.9156 14.589H14.758ZM13.3906 14.7844C13.3906 14.0292 14.0028 13.417 14.758 13.417H24.9156C25.6708 13.417 26.283 14.0292 26.283 14.7844V27.286C26.283 28.0412 25.6708 28.6534 24.9156 28.6534H14.758C14.0028 28.6534 13.3906 28.0412 13.3906 27.286V14.7844Z" fill="white"></path><path fill-rule="evenodd" clip-rule="evenodd" d="M17.4928 11.854C17.8164 11.854 18.0788 12.1164 18.0788 12.44V14.7841C18.0788 15.1077 17.8164 15.3701 17.4928 15.3701C17.1691 15.3701 16.9067 15.1077 16.9067 14.7841V12.44C16.9067 12.1164 17.1691 11.854 17.4928 11.854Z" fill="white"></path><path fill-rule="evenodd" clip-rule="evenodd" d="M22.1807 11.854C22.5044 11.854 22.7668 12.1164 22.7668 12.44V14.7841C22.7668 15.1077 22.5044 15.3701 22.1807 15.3701C21.8571 15.3701 21.5947 15.1077 21.5947 14.7841V12.44C21.5947 12.1164 21.8571 11.854 22.1807 11.854Z" fill="white"></path><path fill-rule="evenodd" clip-rule="evenodd" d="M16.1255 18.3004C16.1255 17.9767 16.3879 17.7144 16.7115 17.7144H22.9623C23.286 17.7144 23.5484 17.9767 23.5484 18.3004C23.5484 18.624 23.286 18.8864 22.9623 18.8864H16.7115C16.3879 18.8864 16.1255 18.624 16.1255 18.3004Z" fill="white"></path><path fill-rule="evenodd" clip-rule="evenodd" d="M16.1255 21.4254C16.1255 21.1017 16.3879 20.8394 16.7115 20.8394H21.3996C21.7233 20.8394 21.9857 21.1017 21.9857 21.4254C21.9857 21.749 21.7233 22.0114 21.3996 22.0114H16.7115C16.3879 22.0114 16.1255 21.749 16.1255 21.4254Z" fill="white"></path><path fill-rule="evenodd" clip-rule="evenodd" d="M16.1255 24.5513C16.1255 24.2277 16.3879 23.9653 16.7115 23.9653H19.8369C20.1606 23.9653 20.4229 24.2277 20.4229 24.5513C20.4229 24.875 20.1606 25.1374 19.8369 25.1374H16.7115C16.3879 25.1374 16.1255 24.875 16.1255 24.5513Z" fill="white"></path></svg>