<svg xmlns="http://www.w3.org/2000/svg" width="40" height="41" viewBox="0 0 40 41" fill="none"><rect x="0.356934" y="0.468262" width="39.6321" height="39.6321" rx="12.0211" fill="#AFF9DA"></rect><g clip-path="url(#clip0_25483_2270)"><path d="M28.9633 23.5076H28.6703V21.1636C28.6699 20.8529 28.5463 20.555 28.3266 20.3353C28.1069 20.1156 27.809 19.992 27.4983 19.9915V15.0104C27.4979 14.6997 27.3743 14.4018 27.1546 14.1821C26.9349 13.9624 26.637 13.8388 26.3263 13.8384H14.0199C13.7092 13.8388 13.4113 13.9624 13.1916 14.1821C12.9719 14.4018 12.8483 14.6997 12.8479 15.0104V19.9915C12.5372 19.992 12.2393 20.1156 12.0196 20.3353C11.7999 20.555 11.6763 20.8529 11.6759 21.1636V23.5076H11.3829C11.3051 23.5076 11.2306 23.5385 11.1757 23.5935C11.1207 23.6484 11.0898 23.7229 11.0898 23.8007V24.9727C11.0898 25.0504 11.1207 25.1249 11.1757 25.1799C11.2306 25.2348 11.3051 25.2657 11.3829 25.2657H11.6759V26.4377C11.6759 26.5154 11.7067 26.59 11.7617 26.6449C11.8166 26.6999 11.8912 26.7307 11.9689 26.7307H12.8479C12.9156 26.7308 12.9812 26.7073 13.0336 26.6644C13.086 26.6214 13.1218 26.5616 13.135 26.4952L13.3812 25.2657H26.965L27.2111 26.4952C27.2244 26.5616 27.2602 26.6214 27.3126 26.6644C27.3649 26.7073 27.4306 26.7308 27.4983 26.7307H28.3773C28.455 26.7307 28.5296 26.6999 28.5845 26.6449C28.6395 26.59 28.6703 26.5154 28.6703 26.4377V25.2657H28.9633C29.041 25.2657 29.1156 25.2348 29.1705 25.1799C29.2255 25.1249 29.2563 25.0504 29.2563 24.9727V23.8007C29.2563 23.7229 29.2255 23.6484 29.1705 23.5935C29.1156 23.5385 29.041 23.5076 28.9633 23.5076ZM13.4339 15.0104C13.4341 14.8551 13.4959 14.7061 13.6058 14.5963C13.7156 14.4864 13.8646 14.4246 14.0199 14.4244H26.3263C26.4816 14.4246 26.6306 14.4864 26.7404 14.5963C26.8503 14.7061 26.9121 14.8551 26.9123 15.0104V19.9915H26.3263V18.8195C26.3259 18.5088 26.2022 18.2109 25.9825 17.9912C25.7628 17.7715 25.4649 17.6479 25.1542 17.6475H21.6381C21.3274 17.6479 21.0295 17.7715 20.8098 17.9912C20.5901 18.2109 20.4665 18.5088 20.4661 18.8195V19.9915H19.8801V18.8195C19.8797 18.5088 19.7561 18.2109 19.5364 17.9912C19.3166 17.7715 19.0188 17.6479 18.7081 17.6475H15.192C14.8812 17.6479 14.5834 17.7715 14.3637 17.9912C14.1439 18.2109 14.0203 18.5088 14.0199 18.8195V19.9915H13.4339V15.0104ZM25.7402 18.8195V19.9915H21.0521V18.8195C21.0523 18.6642 21.1141 18.5152 21.224 18.4054C21.3338 18.2955 21.4828 18.2337 21.6381 18.2335H25.1542C25.3096 18.2337 25.4585 18.2955 25.5684 18.4054C25.6782 18.5152 25.74 18.6642 25.7402 18.8195ZM19.2941 18.8195V19.9915H14.6059V18.8195C14.6061 18.6642 14.668 18.5152 14.7778 18.4054C14.8877 18.2955 15.0366 18.2337 15.192 18.2335H18.7081C18.8634 18.2337 19.0123 18.2955 19.1222 18.4054C19.2321 18.5152 19.2939 18.6642 19.2941 18.8195ZM12.2619 21.1636C12.2621 21.0082 12.3239 20.8593 12.4337 20.7494C12.5436 20.6396 12.6925 20.5778 12.8479 20.5776H27.4983C27.6537 20.5778 27.8026 20.6396 27.9124 20.7494C28.0223 20.8593 28.0841 21.0082 28.0843 21.1636V23.5076H12.2619V21.1636ZM12.6076 26.1447H12.2619V25.2657H12.7834L12.6076 26.1447ZM28.0843 26.1447H27.7386L27.5628 25.2657H28.0843V26.1447ZM28.6703 24.6797H11.6759V24.0937H28.6703V24.6797Z" fill="white" stroke="white" stroke-width="0.441236"></path></g><defs><clipPath id="clip0_25483_2270"><rect width="18.7525" height="18.7525" fill="white" transform="translate(10.7969 10.9077)"></rect></clipPath></defs></svg>