<svg xmlns="http://www.w3.org/2000/svg" width="41" height="41" viewBox="0 0 41 41" fill="none"><rect x="0.938965" y="0.468262" width="39.6321" height="39.6321" rx="12.0211" fill="#C1A6FB"></rect><path d="M25.9941 22.0768L21.306 17.3887C21.0013 17.084 20.5051 17.084 20.2004 17.3887L15.5122 22.0768C15.2075 22.3816 15.2075 22.8777 15.5122 23.1824C15.817 23.4872 16.3131 23.4872 16.6179 23.1824L20.7551 19.0452L24.8924 23.1824C25.0448 23.3309 25.244 23.409 25.4433 23.409C25.6425 23.409 25.8417 23.3309 25.9941 23.1785C26.3027 22.8738 26.3027 22.3816 25.9941 22.0768Z" fill="white"></path><path d="M25.9941 27.547L21.306 22.8589C21.0013 22.5542 20.5051 22.5542 20.2004 22.8589L15.5122 27.547C15.2075 27.8518 15.2075 28.3479 15.5122 28.6527C15.817 28.9574 16.3131 28.9574 16.6179 28.6527L20.7551 24.5154L24.8924 28.6527C25.0448 28.8011 25.244 28.8793 25.4433 28.8793C25.6425 28.8793 25.8417 28.8011 25.9941 28.6488C26.3027 28.344 26.3027 27.8518 25.9941 27.547Z" fill="white"></path><path d="M25.9941 16.6076L21.306 11.9195C21.0013 11.6147 20.5051 11.6147 20.2004 11.9195L15.5122 16.6076C15.2075 16.9123 15.2075 17.4085 15.5122 17.7132C15.817 18.0179 16.3131 18.0179 16.6179 17.7132L20.7551 13.5759L24.8924 17.7132C25.0448 17.8617 25.244 17.9398 25.4433 17.9398C25.6425 17.9398 25.8417 17.8617 25.9941 17.7093C26.3027 17.4046 26.3027 16.9123 25.9941 16.6076Z" fill="white"></path></svg>