<svg xmlns="http://www.w3.org/2000/svg" width="54" height="54" viewBox="0 0 54 54" fill="none"><rect x="0.0605469" y="0.0377197" width="53.0778" height="53.0778" rx="16.0994" fill="#C1A6FB"></rect><path fill-rule="evenodd" clip-rule="evenodd" d="M34.6552 24.2271C31.1349 24.2271 28.2778 27.0841 28.2778 30.6044C28.2778 34.1247 31.1349 36.9818 34.6552 36.9818C38.1755 36.9818 41.0326 34.1247 41.0326 30.6044C41.0326 27.0841 38.1755 24.2271 34.6552 24.2271ZM34.6552 26.241C37.0638 26.241 39.0187 28.1958 39.0187 30.6044C39.0187 33.013 37.0638 34.9679 34.6552 34.9679C32.2466 34.9679 30.2917 33.013 30.2917 30.6044C30.2917 28.1958 32.2466 26.241 34.6552 26.241Z" fill="white"></path><path fill-rule="evenodd" clip-rule="evenodd" d="M32.044 31.9874L33.3866 33.33C33.5907 33.5341 33.87 33.6401 34.1573 33.624C34.4433 33.6066 34.7104 33.4696 34.8877 33.2441L37.4587 30.003C37.8038 29.5667 37.73 28.933 37.2949 28.5879C36.8599 28.2429 36.2249 28.3154 35.8798 28.7517L34.0123 31.108L33.4685 30.5642C33.0751 30.1708 32.4374 30.1708 32.044 30.5642C31.652 30.9563 31.652 31.5953 32.044 31.9874Z" fill="white"></path><path fill-rule="evenodd" clip-rule="evenodd" d="M38.3473 25.9536C38.3473 23.3959 38.3473 21.7848 38.3473 19.8635C38.3473 18.8848 37.9579 17.945 37.2665 17.2522C36.5737 16.5607 35.6339 16.1714 34.6551 16.1714C30.0057 16.1714 20.5081 16.1714 15.8587 16.1714C14.8799 16.1714 13.9401 16.5607 13.2473 17.2522C12.5559 17.945 12.1665 18.8848 12.1665 19.8635V31.947C12.1665 32.9257 12.5559 33.8655 13.2473 34.5583C13.9401 35.2498 14.8799 35.6391 15.8587 35.6391H31.1039C31.6598 35.6391 32.1109 35.188 32.1109 34.6322C32.1109 34.0763 31.6598 33.6252 31.1039 33.6252C26.1054 33.6252 19.7509 33.6252 15.8587 33.6252C15.4129 33.6252 14.9873 33.448 14.6718 33.1338C14.3576 32.8183 14.1804 32.3927 14.1804 31.947C14.1804 28.6656 14.1804 23.1449 14.1804 19.8635C14.1804 19.4178 14.3576 18.9922 14.6718 18.6767C14.9873 18.3625 15.4129 18.1853 15.8587 18.1853H34.6551C35.1008 18.1853 35.5265 18.3625 35.842 18.6767C36.1561 18.9922 36.3334 19.4178 36.3334 19.8635V25.9536C36.3334 26.5094 36.7845 26.9605 37.3403 26.9605C37.8961 26.9605 38.3473 26.5094 38.3473 25.9536Z" fill="white"></path><path fill-rule="evenodd" clip-rule="evenodd" d="M37.3403 21.542H13.1735C12.6176 21.542 12.1665 21.9931 12.1665 22.5489C12.1665 23.1048 12.6176 23.5559 13.1735 23.5559H37.3403C37.8961 23.5559 38.3473 23.1048 38.3473 22.5489C38.3473 21.9931 37.8961 21.542 37.3403 21.542Z" fill="white"></path><path fill-rule="evenodd" clip-rule="evenodd" d="M21.2304 29.5975H17.2013C16.6455 29.5975 16.1943 30.0486 16.1943 30.6045C16.1943 31.1603 16.6455 31.6114 17.2013 31.6114H21.2304C21.7863 31.6114 22.2374 31.1603 22.2374 30.6045C22.2374 30.0486 21.7863 29.5975 21.2304 29.5975Z" fill="white"></path></svg>