<svg xmlns="http://www.w3.org/2000/svg" width="41" height="41" viewBox="0 0 41 41" fill="none"><rect x="0.742188" y="0.79541" width="39.7906" height="39.7906" rx="12.0692" fill="#C1A6FB"></rect><path d="M18.6205 28.76C18.2843 28.76 17.9481 28.4238 17.9481 28.0876V24.7255L12.9723 22.6411C12.7706 22.5738 12.5688 22.3049 12.5688 22.1031C12.5688 21.9014 12.7033 21.6324 12.9051 21.498L27.6981 12.7566C27.8998 12.6221 28.1688 12.6221 28.4377 12.7566C28.6395 12.8911 28.7739 13.1601 28.7067 13.429L26.6895 27.5497C26.6895 27.7514 26.555 27.9531 26.3533 28.0203C26.1515 28.1548 25.9498 28.1548 25.7481 28.0876L21.4447 26.2721L19.0912 28.6255C18.9567 28.6928 18.8223 28.76 18.6205 28.76ZM19.293 25.3307V26.4738L20.0998 25.6669L19.293 25.3307ZM18.6878 23.5824L25.4791 26.4738L27.1602 14.5721L14.7206 21.9014L17.343 22.9773L21.5119 18.8083C21.7809 18.5394 22.1843 18.5394 22.4533 18.8083C22.7222 19.0773 22.7222 19.4807 22.4533 19.7497L18.6878 23.5824Z" fill="white"></path></svg>