<svg xmlns="http://www.w3.org/2000/svg" width="41" height="41" viewBox="0 0 41 41" fill="none"><rect x="0.758301" y="0.578613" width="39.87" height="39.87" rx="12.0933" fill="#C1A6FB"></rect><path d="M15.1906 28.3729C15.8856 28.3703 16.5602 28.1375 17.1088 27.7108C17.6575 27.2842 18.0494 26.6877 18.2231 26.0148H23.1626C23.313 26.6315 23.6446 27.1891 24.1148 27.6156C24.585 28.0422 25.1721 28.3181 25.8006 28.408C26.429 28.4978 27.07 28.3973 27.6408 28.1195C28.2116 27.8417 28.6861 27.3993 29.0032 26.8494C29.3203 26.2994 29.4655 25.6671 29.4199 25.0339C29.3744 24.4007 29.1402 23.7957 28.7477 23.2968C28.3551 22.7979 27.8221 22.428 27.2174 22.2347C26.6127 22.0415 25.964 22.0338 25.3549 22.2127L22.9064 18.0254C23.3491 17.5869 23.6515 17.0267 23.7752 16.416C23.899 15.8053 23.8384 15.1716 23.6013 14.5953C23.3642 14.019 22.9613 13.5262 22.4436 13.1794C21.9259 12.8326 21.3168 12.6475 20.6937 12.6475C20.0705 12.6475 19.4614 12.8326 18.9437 13.1794C18.426 13.5262 18.0231 14.019 17.786 14.5953C17.5489 15.1716 17.4884 15.8053 17.6121 16.416C17.7358 17.0267 18.0382 17.5869 18.4809 18.0254L16.0379 22.215C15.7628 22.1327 15.4777 22.0887 15.1906 22.0845C14.3567 22.0845 13.5569 22.4158 12.9673 23.0054C12.3776 23.5951 12.0464 24.3948 12.0464 25.2287C12.0464 26.0626 12.3776 26.8623 12.9673 27.452C13.5569 28.0416 14.3567 28.3729 15.1906 28.3729ZM26.1952 23.6566C26.5061 23.6566 26.81 23.7488 27.0686 23.9216C27.3271 24.0943 27.5286 24.3398 27.6476 24.6271C27.7666 24.9144 27.7977 25.2305 27.7371 25.5354C27.6764 25.8404 27.5267 26.1205 27.3068 26.3403C27.0869 26.5602 26.8068 26.7099 26.5019 26.7706C26.1969 26.8313 25.8808 26.8001 25.5936 26.6811C25.3063 26.5621 25.0608 26.3606 24.888 26.1021C24.7153 25.8436 24.6231 25.5396 24.6231 25.2287C24.6231 24.8118 24.7887 24.4119 25.0835 24.1171C25.3784 23.8223 25.7782 23.6566 26.1952 23.6566ZM20.6929 14.2241C21.0038 14.2241 21.3077 14.3163 21.5663 14.489C21.8248 14.6618 22.0263 14.9073 22.1453 15.1946C22.2643 15.4818 22.2954 15.7979 22.2347 16.1029C22.1741 16.4078 22.0244 16.688 21.8045 16.9078C21.5846 17.1277 21.3045 17.2774 20.9996 17.3381C20.6946 17.3987 20.3785 17.3676 20.0913 17.2486C19.804 17.1296 19.5585 16.9281 19.3857 16.6696C19.213 16.4111 19.1208 16.1071 19.1208 15.7962C19.1208 15.3792 19.2864 14.9794 19.5812 14.6846C19.8761 14.3897 20.2759 14.2241 20.6929 14.2241ZM19.8455 18.8099C20.1206 18.8922 20.4057 18.9361 20.6929 18.9404C20.9812 18.9365 21.2675 18.892 21.5434 18.8083L23.9895 22.9924C23.5882 23.3925 23.3025 23.8936 23.1626 24.4427H18.2231C18.0843 23.8961 17.8008 23.3971 17.4025 22.9979L19.8455 18.8099ZM15.1906 23.6566C15.5015 23.6566 15.8054 23.7488 16.064 23.9216C16.3225 24.0943 16.524 24.3398 16.643 24.6271C16.762 24.9144 16.7931 25.2305 16.7324 25.5354C16.6718 25.8404 16.5221 26.1205 16.3022 26.3403C16.0823 26.5602 15.8022 26.7099 15.4973 26.7706C15.1923 26.8313 14.8762 26.8001 14.5889 26.6811C14.3017 26.5621 14.0562 26.3606 13.8834 26.1021C13.7107 25.8436 13.6185 25.5396 13.6185 25.2287C13.6185 24.8118 13.7841 24.4119 14.0789 24.1171C14.3738 23.8223 14.7736 23.6566 15.1906 23.6566Z" fill="white"></path></svg>