<svg xmlns="http://www.w3.org/2000/svg" width="44" height="45" viewBox="0 0 44 45" fill="none"><circle cx="21.7493" cy="22.5" r="21.7493" fill="#C1A6FB"></circle><path d="M29.5385 31.0989H14.9715C14.73 31.0989 14.4984 31.003 14.3277 30.8322C14.157 30.6615 14.061 30.4299 14.061 30.1885V13.8006C14.061 13.5591 14.157 13.3275 14.3277 13.1568C14.4984 12.9861 14.73 12.8901 14.9715 12.8901H29.5385C29.7799 12.8901 30.0115 12.9861 30.1823 13.1568C30.353 13.3275 30.4489 13.5591 30.4489 13.8006V30.1885C30.4489 30.4299 30.353 30.6615 30.1823 30.8322C30.0115 31.003 29.7799 31.0989 29.5385 31.0989ZM28.628 29.278V14.711H15.8819V29.278H28.628ZM18.6132 17.4423H25.8967V19.2632H18.6132V17.4423ZM18.6132 21.0841H25.8967V22.905H18.6132V21.0841ZM18.6132 24.7258H25.8967V26.5467H18.6132V24.7258Z" fill="white"></path></svg>