<svg xmlns="http://www.w3.org/2000/svg" width="43" height="43" viewBox="0 0 43 43" fill="none"><rect x="1.00178" y="0.976386" width="40.9427" height="40.7287" rx="20.3644" fill="white" stroke="#1A1A1A" stroke-width="1.31383"></rect><path d="M16.9595 27.2905V25.3254L21.5511 21.0739C21.9416 20.696 22.2691 20.3558 22.5337 20.0535C22.8024 19.7512 23.0061 19.4551 23.1446 19.1654C23.2832 18.8715 23.3525 18.5544 23.3525 18.2143C23.3525 17.8364 23.2664 17.511 23.0943 17.238C22.9221 16.9609 22.6869 16.7489 22.3888 16.6019C22.0907 16.4507 21.7527 16.3751 21.3747 16.3751C20.98 16.3751 20.6357 16.4549 20.3418 16.6145C20.0479 16.7741 19.8211 17.0029 19.6615 17.301C19.502 17.5992 19.4222 17.954 19.4222 18.3655H16.8335C16.8335 17.5215 17.0246 16.7888 17.4067 16.1673C17.7888 15.5458 18.3242 15.0651 19.0128 14.7249C19.7014 14.3848 20.4951 14.2147 21.3936 14.2147C22.3174 14.2147 23.1215 14.3785 23.806 14.706C24.4946 15.0294 25.03 15.4787 25.4121 16.0539C25.7942 16.6292 25.9853 17.2884 25.9853 18.0317C25.9853 18.5188 25.8887 18.9995 25.6956 19.474C25.5066 19.9485 25.1686 20.4755 24.6815 21.055C24.1944 21.6302 23.5079 22.321 22.6219 23.1272L20.7386 24.9727V25.0608H26.1553V27.2905H16.9595Z" fill="#1A1A1A"></path></svg>