<svg xmlns="http://www.w3.org/2000/svg" width="45" height="45" viewBox="0 0 45 45" fill="none"><circle cx="22.5326" cy="22.5" r="21.7493" fill="#FEC640"></circle><g clip-path="url(#clip0_25483_1531)"><path d="M22.5552 11.1184C22.9246 11.1184 23.1835 11.1189 23.3735 11.1399C23.565 11.1611 23.6398 11.1993 23.6772 11.2366C23.7145 11.2738 23.7531 11.348 23.7749 11.5383C23.7966 11.7275 23.7981 11.985 23.7993 12.3528V12.3538C23.8005 12.6061 23.8005 12.8137 23.8188 12.9758C23.8373 13.1389 23.8772 13.2931 23.9839 13.4172C24.0907 13.5414 24.2377 13.6039 24.397 13.6467C24.5552 13.6893 24.7611 13.7213 25.0122 13.76C25.7777 13.8814 26.5075 14.106 27.2202 14.4202V14.4192C27.3916 14.4958 27.48 14.5817 27.522 14.6653C27.5625 14.7462 27.5765 14.8605 27.5249 15.0354C27.3353 15.6723 27.1717 16.2928 26.9712 16.9133C26.9252 17.0547 26.884 17.1513 26.8442 17.2161C26.8057 17.2788 26.7768 17.2977 26.7603 17.3049C26.7439 17.312 26.7104 17.3202 26.6382 17.3049C26.5637 17.2892 26.4642 17.2523 26.3286 17.1868C25.1594 16.6244 23.9298 16.3873 22.6392 16.4563H22.6382C22.3035 16.476 21.9525 16.5217 21.6108 16.6711C21.0104 16.9342 20.6381 17.41 20.562 17.9456C20.4858 18.4822 20.7125 19.0389 21.2271 19.4495C21.7188 19.8409 22.2711 20.1182 22.8354 20.3518V20.3528C23.7989 20.7526 24.753 21.1305 25.6499 21.6262C28.3548 23.1215 29.1313 26.4437 27.397 28.8127L27.2212 29.0393C26.5134 29.9034 25.5944 30.4833 24.5103 30.7786H24.5093C24.2418 30.8521 24.014 30.9681 23.8608 31.1643C23.7061 31.3626 23.6516 31.6107 23.6646 31.8958V31.8967C23.6836 32.3909 23.6597 32.8743 23.6597 33.3879C23.6597 33.5762 23.6124 33.6862 23.5522 33.7493C23.4929 33.8113 23.3893 33.8615 23.2065 33.8655H23.2056C22.9393 33.8726 22.6716 33.8756 22.4038 33.8762L21.6011 33.8704C21.4044 33.8663 21.2953 33.8098 21.2319 33.7405C21.1658 33.6681 21.1169 33.5464 21.1147 33.3479V33.3469L21.1099 32.8C21.1087 32.6171 21.1084 32.433 21.106 32.2502C21.1036 32.0523 21.1003 31.885 21.0825 31.7512C21.0645 31.6162 21.0276 31.4845 20.937 31.3762C20.8457 31.2673 20.7229 31.2098 20.5933 31.1711C20.5294 31.1521 20.4568 31.1358 20.3765 31.1204L20.1128 31.0754C19.1296 30.9187 18.1806 30.697 17.2983 30.2698H17.2974C16.9336 30.0914 16.8111 29.9884 16.7651 29.8879C16.7197 29.7881 16.7239 29.6327 16.8296 29.2493C16.983 28.6933 17.1351 28.1414 17.3062 27.595C17.3551 27.4399 17.3976 27.3333 17.439 27.262C17.4796 27.192 17.5081 27.1738 17.521 27.1682C17.5329 27.163 17.5635 27.1544 17.6382 27.1731C17.7152 27.1923 17.8185 27.2355 17.9614 27.3098C18.8655 27.7791 19.8161 28.0666 20.8013 28.2258L21.2251 28.2864C21.9807 28.3814 22.7256 28.3068 23.4331 27.9963C24.1194 27.6953 24.5323 27.1372 24.6157 26.5188C24.6937 25.9397 24.4794 25.333 23.9771 24.8665L23.8726 24.7747C23.4956 24.4591 23.0669 24.2337 22.6323 24.0432C21.6511 23.6087 20.6858 23.2891 19.7798 22.8079L19.395 22.5901C18.5781 22.1009 17.9236 21.5284 17.4878 20.842C17.0541 20.1589 16.8296 19.3522 16.8892 18.3782C16.9562 17.2687 17.3029 16.3793 17.8774 15.676C18.3815 15.0591 19.0693 14.5747 19.9214 14.2131L20.2964 14.0657C20.5093 13.9885 20.6848 13.926 20.8188 13.8635C20.9547 13.8003 21.0755 13.7253 21.1626 13.6077C21.2507 13.4887 21.2856 13.3512 21.3022 13.2024C21.3185 13.0571 21.3196 12.8747 21.3208 12.6526C21.3259 12.321 21.316 12.0427 21.3257 11.7317V11.7307C21.3304 11.5624 21.3405 11.4432 21.3599 11.3567C21.3786 11.2731 21.4027 11.2362 21.4224 11.2161C21.4419 11.1962 21.478 11.1725 21.5601 11.1536C21.6024 11.1438 21.6528 11.1358 21.7134 11.1301L21.9292 11.1184C22.1366 11.1137 22.3379 11.1184 22.5552 11.1184Z" fill="white" stroke="#FEC640" stroke-width="0.434916"></path></g><defs><clipPath id="clip0_25483_1531"><rect width="23.1955" height="23.1955" fill="white" transform="translate(10.9316 10.8987)"></rect></clipPath></defs></svg>