<svg xmlns="http://www.w3.org/2000/svg" width="43" height="43" viewBox="0 0 43 43" fill="none"><rect x="0.925116" y="1.29816" width="40.9427" height="40.7287" rx="20.3644" fill="white" stroke="#1A1A1A" stroke-width="1.31383"></rect><path d="M21.3905 27.7884C20.4499 27.7884 19.6122 27.6268 18.8774 27.3034C18.1468 26.9759 17.5694 26.5266 17.1453 25.9555C16.7254 25.3803 16.5091 24.7168 16.4965 23.9652H19.2427C19.2595 24.2801 19.3624 24.5573 19.5513 24.7966C19.7445 25.0318 20.0006 25.2144 20.3197 25.3446C20.6389 25.4748 20.9979 25.5398 21.3968 25.5398C21.8125 25.5398 22.1799 25.4664 22.499 25.3194C22.8182 25.1724 23.068 24.9688 23.2486 24.7084C23.4291 24.4481 23.5194 24.1479 23.5194 23.8077C23.5194 23.4634 23.4228 23.159 23.2297 22.8944C23.0407 22.6257 22.7678 22.4158 22.4109 22.2646C22.0581 22.1134 21.6382 22.0378 21.1512 22.0378H19.9481V20.0349H21.1512C21.5627 20.0349 21.9259 19.9635 22.2408 19.8208C22.5599 19.678 22.8077 19.4806 22.984 19.2287C23.1604 18.9726 23.2486 18.6744 23.2486 18.3343C23.2486 18.011 23.1709 17.7275 23.0155 17.484C22.8644 17.2363 22.6502 17.0431 22.3731 16.9045C22.1001 16.766 21.781 16.6967 21.4157 16.6967C21.0462 16.6967 20.7082 16.7639 20.4016 16.8982C20.0951 17.0284 19.8495 17.2153 19.6647 17.4588C19.4799 17.7023 19.3813 17.9879 19.3687 18.3154H16.7548C16.7674 17.5722 16.9794 16.9171 17.3909 16.3503C17.8024 15.7834 18.3567 15.3404 19.0537 15.0213C19.755 14.6979 20.5465 14.5363 21.4283 14.5363C22.3185 14.5363 23.0974 14.6979 23.7651 15.0213C24.4327 15.3446 24.9513 15.7813 25.3208 16.3314C25.6945 16.8772 25.8793 17.4903 25.8751 18.1705C25.8793 18.8928 25.6546 19.4953 25.2011 19.9782C24.7518 20.4611 24.1661 20.7676 23.4438 20.8978V20.9986C24.3928 21.1204 25.115 21.45 25.6105 21.9875C26.1102 22.5207 26.358 23.1884 26.3538 23.9904C26.358 24.7252 26.1459 25.3782 25.7176 25.9492C25.2935 26.5203 24.7077 26.9696 23.9603 27.2971C23.2129 27.6247 22.3563 27.7884 21.3905 27.7884Z" fill="#1A1A1A"></path></svg>