<svg xmlns="http://www.w3.org/2000/svg" id="Layer_2" viewBox="0 0 86 94"><g id="Layer_1-2"><path d="M72.5,8h-3.5v-3.5c0-2.49-2.01-4.5-4.5-4.5s-4.5,2.01-4.5,4.5v3.5H26v-3.5c0-2.49-2.01-4.5-4.5-4.5s-4.5,2.01-4.5,4.5v3.5h-3.5C6.06,8,0,14.06,0,21.5v59c0,7.44,6.06,13.5,13.5,13.5h59c7.44,0,13.5-6.06,13.5-13.5V21.5c0-7.44-6.06-13.5-13.5-13.5ZM77,80.5c0,2.48-2.02,4.5-4.5,4.5H13.5c-2.48,0-4.5-2.02-4.5-4.5v-38h68v38ZM77,33.5H9v-12c0-2.48,2.02-4.5,4.5-4.5h3.5v4.5c0,2.49,2.01,4.5,4.5,4.5s4.5-2.01,4.5-4.5v-4.5h34v4.5c0,2.49,2.01,4.5,4.5,4.5s4.5-2.01,4.5-4.5v-4.5h3.5c2.48,0,4.5,2.02,4.5,4.5v12ZM21.5,60c2.49,0,4.5-2.01,4.5-4.5s-2.01-4.5-4.5-4.5-4.5,2.01-4.5,4.5,2.01,4.5,4.5,4.5ZM43,60c2.49,0,4.5-2.01,4.5-4.5s-2.01-4.5-4.5-4.5-4.5,2.01-4.5,4.5,2.01,4.5,4.5,4.5ZM64.5,60c2.49,0,4.5-2.01,4.5-4.5s-2.01-4.5-4.5-4.5-4.5,2.01-4.5,4.5,2.01,4.5,4.5,4.5ZM21.5,77c2.49,0,4.5-2.01,4.5-4.5s-2.01-4.5-4.5-4.5-4.5,2.01-4.5,4.5,2.01,4.5,4.5,4.5ZM43,77c2.49,0,4.5-2.01,4.5-4.5s-2.01-4.5-4.5-4.5-4.5,2.01-4.5,4.5,2.01,4.5,4.5,4.5ZM64.5,77c2.49,0,4.5-2.01,4.5-4.5s-2.01-4.5-4.5-4.5-4.5,2.01-4.5,4.5,2.01,4.5,4.5,4.5Z" stroke-width="0"></path></g></svg>