<svg xmlns="http://www.w3.org/2000/svg" id="Layer_2" viewBox="0 0 62.92 70.34"><g id="Layer_5"><path d="m62.92,51.08l-2.03,3.32-10.2-6.04.69,10.94-3.37-.64-.59-12.23-14.4-8.51.2,16.73,10.34,6.68-1.19,3.12-9.06-6.09.1,11.98h-3.91l.1-11.98-9.06,6.09-1.19-3.12,10.35-6.68.2-16.73-14.4,8.51-.59,12.23-3.37.64.69-10.94-10.2,6.04-2.03-3.32,10.45-5.89L.59,40.34l2.13-2.52,11.04,5.54,14.5-8.22-14.5-8.22-11.04,5.59-2.13-2.52,9.85-4.85L0,19.26l2.03-3.37,10.2,6.09-.69-10.94,3.37.59.59,12.28,14.4,8.51-.2-16.73-10.35-6.68,1.19-3.17,9.06,6.09-.1-11.93h3.91l-.1,11.93,9.06-6.09,1.19,3.17-10.34,6.68-.2,16.73,14.4-8.51.59-12.28,3.37-.59-.69,10.94,10.2-6.09,2.03,3.37-10.45,5.89,9.85,4.85-2.13,2.52-11.04-5.59-14.5,8.22,14.5,8.22,11.04-5.54,2.13,2.52-9.85,4.85,10.45,5.89Z" stroke-width="0"></path></g></svg>