<svg xmlns="http://www.w3.org/2000/svg" width="28" height="28" viewBox="0 0 28 28" fill="none"><path d="M2.80008 28.0008H19.6005V25.2007H2.80008V8.40023H0V25.2007C0 26.7449 1.25584 28.0008 2.80008 28.0008Z" fill="#F4F4F4"></path><path d="M25.1999 0H8.39945C6.85521 0 5.59938 1.25583 5.59938 2.80008V19.6005C5.59938 21.1448 6.85521 22.4006 8.39945 22.4006H25.1999C26.7442 22.4006 28 21.1448 28 19.6005V2.80008C28 1.25583 26.7442 0 25.1999 0ZM22.3998 12.6004H18.1997V16.8005H15.3996V12.6004H11.1995V9.80027H15.3996V5.60016H18.1997V9.80027H22.3998V12.6004Z" fill="#F4F4F4"></path></svg>