<svg xmlns="http://www.w3.org/2000/svg" width="28" height="25" viewBox="0 0 28 25" fill="none"><path d="M0 3.5C0 2.57174 0.368749 1.6815 1.02513 1.02513C1.6815 0.368749 2.57174 0 3.5 0H24.5C25.4283 0 26.3185 0.368749 26.9749 1.02513C27.6313 1.6815 28 2.57174 28 3.5V21C28 21.9283 27.6313 22.8185 26.9749 23.4749C26.3185 24.1313 25.4283 24.5 24.5 24.5H3.5C2.57174 24.5 1.6815 24.1313 1.02513 23.4749C0.368749 22.8185 0 21.9283 0 21V3.5V3.5ZM1.75 19.25V21C1.75 21.4641 1.93437 21.9092 2.26256 22.2374C2.59075 22.5656 3.03587 22.75 3.5 22.75H24.5C24.9641 22.75 25.4092 22.5656 25.7374 22.2374C26.0656 21.9092 26.25 21.4641 26.25 21V14.875L19.6403 11.4677C19.4761 11.3855 19.2903 11.357 19.1091 11.3862C18.9279 11.4154 18.7605 11.5009 18.6305 11.6305L12.138 18.123L7.483 15.022C7.31493 14.9101 7.11333 14.8598 6.91239 14.8796C6.71145 14.8993 6.52353 14.988 6.3805 15.1305L1.75 19.25ZM10.5 7.875C10.5 7.17881 10.2234 6.51113 9.73116 6.01884C9.23887 5.52656 8.57119 5.25 7.875 5.25C7.17881 5.25 6.51113 5.52656 6.01884 6.01884C5.52656 6.51113 5.25 7.17881 5.25 7.875C5.25 8.57119 5.52656 9.23887 6.01884 9.73116C6.51113 10.2234 7.17881 10.5 7.875 10.5C8.57119 10.5 9.23887 10.2234 9.73116 9.73116C10.2234 9.23887 10.5 8.57119 10.5 7.875Z" fill="#F4F4F4"></path></svg>