<svg xmlns="http://www.w3.org/2000/svg" width="26" height="29" viewBox="0 0 26 29" fill="none"><path d="M6.36364 0.0996094C6.02609 0.0996094 5.70237 0.2337 5.46368 0.472383C5.225 0.711065 5.09091 1.03479 5.09091 1.37234C5.09091 1.70988 5.225 2.03361 5.46368 2.27229C5.70237 2.51097 6.02609 2.64506 6.36364 2.64506H16.5455C16.883 2.64506 17.2067 2.51097 17.4454 2.27229C17.6841 2.03361 17.8182 1.70988 17.8182 1.37234C17.8182 1.03479 17.6841 0.711065 17.4454 0.472383C17.2067 0.2337 16.883 0.0996094 16.5455 0.0996094L6.36364 0.0996094ZM0 16.6451C0 13.6071 1.20681 10.6936 3.35496 8.54548C5.5031 6.39733 8.41661 5.19052 11.4545 5.19052C14.4925 5.19052 17.406 6.39733 19.5541 8.54548C21.7023 10.6936 22.9091 13.6071 22.9091 16.6451C22.9091 19.683 21.7023 22.5965 19.5541 24.7446C17.406 26.8928 14.4925 28.0996 11.4545 28.0996C8.41661 28.0996 5.5031 26.8928 3.35496 24.7446C1.20681 22.5965 0 19.683 0 16.6451V16.6451ZM10.1818 19.1905C10.1818 19.5281 10.3159 19.8518 10.5546 20.0905C10.7933 20.3292 11.117 20.4632 11.4545 20.4632C11.7921 20.4632 12.1158 20.3292 12.3545 20.0905C12.5932 19.8518 12.7273 19.5281 12.7273 19.1905V11.5542C12.7273 11.2166 12.5932 10.8929 12.3545 10.6542C12.1158 10.4155 11.7921 10.2814 11.4545 10.2814C11.117 10.2814 10.7933 10.4155 10.5546 10.6542C10.3159 10.8929 10.1818 11.2166 10.1818 11.5542V19.1905ZM25.0829 9.90725C24.8446 10.1462 24.5211 10.2807 24.1836 10.2812C23.8461 10.2816 23.5223 10.1481 23.2833 9.90979L20.7327 7.36943C20.611 7.25219 20.5139 7.11189 20.447 6.95671C20.38 6.80153 20.3447 6.63458 20.343 6.46559C20.3413 6.29661 20.3733 6.12898 20.437 5.97248C20.5008 5.81599 20.5951 5.67376 20.7144 5.55409C20.8338 5.43443 20.9757 5.33972 21.132 5.27551C21.2884 5.21129 21.4559 5.17885 21.6249 5.18008C21.7939 5.1813 21.9609 5.21617 22.1163 5.28264C22.2717 5.34912 22.4122 5.44586 22.5298 5.56725L25.0804 8.10761C25.3193 8.34594 25.4538 8.66942 25.4543 9.0069C25.4548 9.34438 25.3212 9.66824 25.0829 9.90725V9.90725Z" fill="#F4F4F4"></path></svg>