<svg xmlns="http://www.w3.org/2000/svg" width="28" height="28" viewBox="0 0 28 28" fill="none"><path d="M17.9807 25.1988H6.29969C4.36919 25.1988 2.79986 23.6294 2.79986 21.6989C2.79986 19.7684 4.36919 18.1991 6.29969 18.1991H16.0992C18.8011 18.1991 20.999 16.0012 20.999 13.2994C20.999 10.5975 18.8011 8.39959 16.0992 8.39959H9.29415C8.78002 9.40738 8.14337 10.3478 7.39864 11.1995H16.0992C17.257 11.1995 18.1991 12.1416 18.1991 13.2994C18.1991 14.4571 17.257 15.3992 16.0992 15.3992H6.29969C2.82646 15.3992 0 18.2257 0 21.6989C0 25.1722 2.82646 27.9986 6.29969 27.9986H19.7292C19.0423 27.1345 18.4557 26.1952 17.9807 25.1988ZM4.19979 0C1.88431 0 0 1.88431 0 4.19979C0 8.66278 4.19979 11.1995 4.19979 11.1995C4.19979 11.1995 8.39959 8.66138 8.39959 4.19979C8.39959 1.88431 6.51528 0 4.19979 0ZM4.19979 6.29969C3.92394 6.2996 3.65081 6.24518 3.39598 6.13953C3.14116 6.03388 2.90965 5.87907 2.71465 5.68395C2.51966 5.48882 2.36501 5.2572 2.25953 5.00231C2.15405 4.74742 2.09981 4.47425 2.0999 4.1984C2.09999 3.92254 2.15441 3.64941 2.26006 3.39458C2.36571 3.13976 2.52052 2.90825 2.71564 2.71325C2.91077 2.51826 3.14239 2.36361 3.39728 2.25813C3.65217 2.15265 3.92534 2.09841 4.20119 2.0985C4.75831 2.09868 5.29253 2.32017 5.68634 2.71424C6.08014 3.10831 6.30128 3.64268 6.30109 4.19979C6.30091 4.75691 6.07942 5.29113 5.68535 5.68494C5.29128 6.07874 4.75691 6.29988 4.19979 6.29969Z" fill="#F4F4F4"></path><path d="M23.8002 16.7992C21.4847 16.7992 19.6004 18.6835 19.6004 20.999C19.6004 25.462 23.8002 27.9986 23.8002 27.9986C23.8002 27.9986 28 25.4606 28 20.999C28 18.6835 26.1157 16.7992 23.8002 16.7992ZM23.8002 23.0989C23.5243 23.0988 23.2512 23.0444 22.9964 22.9387C22.7416 22.8331 22.5101 22.6782 22.3151 22.4831C22.1201 22.288 21.9654 22.0564 21.8599 21.8015C21.7545 21.5466 21.7002 21.2734 21.7003 20.9976C21.7004 20.7217 21.7548 20.4486 21.8605 20.1938C21.9661 19.9389 22.1209 19.7074 22.3161 19.5124C22.5112 19.3174 22.7428 19.1628 22.9977 19.0573C23.2526 18.9518 23.5257 18.8976 23.8016 18.8977C24.3587 18.8979 24.8929 19.1194 25.2867 19.5134C25.6806 19.9075 25.9017 20.4419 25.9015 20.999C25.9013 21.5561 25.6798 22.0903 25.2858 22.4841C24.8917 22.8779 24.3573 23.0991 23.8002 23.0989Z" fill="#F4F4F4"></path></svg>