<svg xmlns="http://www.w3.org/2000/svg" width="30" height="30" viewBox="0 0 30 30" fill="none"><path d="M14.884 11.6791C12.9824 11.6791 11.4478 13.2141 11.4478 15.1161C11.4478 17.0181 12.9824 18.5531 14.884 18.5531C16.7856 18.5531 18.3203 17.0181 18.3203 15.1161C18.3203 13.2141 16.7856 11.6791 14.884 11.6791ZM14.884 17.3499C13.6543 17.3499 12.6507 16.3461 12.6507 15.1161C12.6507 13.8861 13.6543 12.8823 14.884 12.8823C16.1138 12.8823 17.1173 13.8861 17.1173 15.1161C17.1173 16.3461 16.1138 17.3499 14.884 17.3499ZM18.461 10.7373C18.017 10.7373 17.6585 11.0959 17.6585 11.54C17.6585 11.9841 18.017 12.3427 18.461 12.3427C18.905 12.3427 19.2635 11.9858 19.2635 11.54C19.2637 11.4346 19.243 11.3301 19.2027 11.2327C19.1624 11.1352 19.1033 11.0467 19.0288 10.9721C18.9542 10.8976 18.8657 10.8384 18.7683 10.7981C18.6709 10.7578 18.5664 10.7372 18.461 10.7373Z" fill="white"></path><path d="M21.7492 15C21.7492 14.0679 21.7577 13.1442 21.7053 12.2137C21.653 11.133 21.4065 10.1739 20.6162 9.38358C19.8242 8.59161 18.8668 8.34675 17.7861 8.29441C16.854 8.24206 15.9303 8.2505 14.9999 8.2505C14.0678 8.2505 13.1441 8.24206 12.2137 8.29441C11.133 8.34675 10.1738 8.5933 9.38356 9.38358C8.5916 10.1756 8.34675 11.133 8.29441 12.2137C8.24206 13.1459 8.2505 14.0696 8.2505 15C8.2505 15.9304 8.24206 16.8558 8.29441 17.7863C8.34675 18.867 8.59329 19.8261 9.38356 20.6164C10.1755 21.4084 11.133 21.6532 12.2137 21.7056C13.1458 21.7579 14.0694 21.7495 14.9999 21.7495C15.932 21.7495 16.8557 21.7579 17.7861 21.7056C18.8668 21.6532 19.8259 21.4067 20.6162 20.6164C21.4081 19.8244 21.653 18.867 21.7053 17.7863C21.7594 16.8558 21.7492 15.9321 21.7492 15ZM20.2633 18.9818C20.14 19.2891 19.9914 19.5188 19.7533 19.7552C19.5152 19.9933 19.2873 20.1419 18.9799 20.2652C18.0917 20.6181 15.9826 20.5387 14.9982 20.5387C14.0137 20.5387 11.903 20.6181 11.0148 20.2669C10.7074 20.1436 10.4778 19.995 10.2414 19.7569C10.0033 19.5188 9.85468 19.2908 9.73141 18.9835C9.38018 18.0936 9.45955 15.9845 9.45955 15C9.45955 14.0155 9.38018 11.9047 9.73141 11.0165C9.85468 10.7092 10.0033 10.4795 10.2414 10.2431C10.4795 10.0067 10.7074 9.8564 11.0148 9.73313C11.903 9.38189 14.0137 9.46126 14.9982 9.46126C15.9826 9.46126 18.0934 9.38189 18.9816 9.73313C19.2889 9.8564 19.5186 10.005 19.755 10.2431C19.9931 10.4812 20.1417 10.7092 20.265 11.0165C20.6162 11.9047 20.5368 14.0155 20.5368 15C20.5368 15.9845 20.6162 18.0936 20.2633 18.9818Z" fill="white"></path><circle cx="15" cy="15" r="14.5" stroke="#31293F"></circle></svg>