<svg xmlns="http://www.w3.org/2000/svg" width="67" height="30" viewBox="0 0 67 30" fill="none"><g clip-path="url(#clip0_11419_15606)"><path d="M60.568 0H6.432C2.8797 0 0 2.321 0 5.18409V24.8159C0 27.679 2.8797 30 6.432 30H60.568C64.1203 30 67 27.679 67 24.8159V5.18409C67 2.321 64.1203 0 60.568 0Z" fill="#FFB3C7"></path><path d="M55.659 17.484C55.4903 17.4844 55.3234 17.518 55.1677 17.583C55.0121 17.648 54.8708 17.7431 54.752 17.8628C54.6332 17.9825 54.5392 18.1245 54.4754 18.2807C54.4116 18.4368 54.3792 18.604 54.3802 18.7727C54.3789 18.9414 54.4109 19.1087 54.4744 19.2649C54.5379 19.4212 54.6317 19.5634 54.7502 19.6833C54.8688 19.8033 55.0099 19.8987 55.1655 19.9639C55.321 20.0292 55.4879 20.0632 55.6565 20.0638C55.999 20.0638 56.3274 19.9278 56.5695 19.6857C56.8116 19.4435 56.9476 19.1151 56.9476 18.7727C56.9476 18.4303 56.8116 18.1019 56.5695 17.8597C56.3274 17.6176 55.999 17.4816 55.6565 17.4816L55.659 17.484ZM51.4495 16.4875C51.4656 16.1188 51.3711 15.7537 51.1779 15.4392C50.9848 15.1248 50.702 14.8753 50.3659 14.723C50.0297 14.5706 49.6557 14.5224 49.2919 14.5845C48.9282 14.6466 48.5913 14.8162 48.3247 15.0714C48.0582 15.3267 47.8741 15.6558 47.7963 16.0166C47.7184 16.3773 47.7503 16.7531 47.8879 17.0955C48.0255 17.4379 48.2624 17.7314 48.5682 17.938C48.874 18.1446 49.2346 18.2549 49.6036 18.2548C50.0826 18.2647 50.5459 18.0841 50.892 17.7528C51.238 17.4215 51.4385 16.9664 51.4495 16.4875ZM51.4495 13.0511H53.4867V19.9239H51.4495V19.4821C50.8551 19.8928 50.1494 20.112 49.4269 20.1105C48.4821 20.0859 47.5842 19.6932 46.9246 19.0163C46.265 18.3393 45.8959 17.4314 45.8959 16.4863C45.8959 15.5411 46.265 14.6332 46.9246 13.9563C47.5842 13.2793 48.4821 12.8866 49.4269 12.8621C50.1496 12.8614 50.8553 13.0815 51.4495 13.4929V13.0511ZM35.139 13.947V13.0535H33.0502V19.9264H35.1439V16.7133C35.1439 15.6308 36.3049 15.0515 37.1075 15.0515H37.1321V13.0535C36.7554 13.0447 36.3815 13.1204 36.0379 13.275C35.6943 13.4296 35.3896 13.6592 35.1464 13.947H35.139ZM29.9476 16.4875C29.9638 16.1188 29.8692 15.7537 29.6761 15.4392C29.483 15.1248 29.2002 14.8753 28.864 14.723C28.5279 14.5706 28.1539 14.5224 27.7901 14.5845C27.4263 14.6466 27.0895 14.8162 26.8229 15.0714C26.5564 15.3267 26.3723 15.6558 26.2945 16.0166C26.2166 16.3773 26.2485 16.7531 26.3861 17.0955C26.5237 17.4379 26.7606 17.7314 27.0664 17.938C27.3722 18.1446 27.7328 18.2549 28.1018 18.2548C28.5808 18.2647 29.0441 18.0841 29.3902 17.7528C29.7362 17.4215 29.9367 16.9664 29.9476 16.4875ZM29.9476 13.0511H31.9874V19.9239H29.9501V19.4821C29.3552 19.8916 28.6498 20.1108 27.9275 20.1105C26.9827 20.0859 26.0848 19.6932 25.4252 19.0163C24.7656 18.3393 24.3965 17.4314 24.3965 16.4863C24.3965 15.5411 24.7656 14.6332 25.4252 13.9563C26.0848 13.2793 26.9827 12.8866 27.9275 12.8621C28.6503 12.8614 29.3559 13.0815 29.9501 13.4929L29.9476 13.0511ZM42.2204 12.867C41.4055 12.867 40.6347 13.1124 40.1193 13.8267V13.0535H38.0894V19.9264H40.1438V16.3132C40.1438 15.2676 40.8385 14.7545 41.6755 14.7545C42.5689 14.7545 43.0868 15.2946 43.0868 16.2985V19.9215H45.1216V15.5547C45.1241 13.9543 43.8625 12.867 42.2228 12.867H42.2204ZM21.3739 19.9215H23.5069V10H21.3739V19.9215ZM12 19.9215H14.2606V10H12.0025V19.9239L12 19.9215ZM19.9036 10C19.9099 11.0468 19.7091 12.0846 19.3127 13.0535C18.9163 14.0224 18.3321 14.9033 17.5939 15.6456L20.7161 19.9411H17.9253L14.5331 15.2774L15.4094 14.6146C16.1241 14.0774 16.7029 13.3801 17.0993 12.5787C17.4958 11.7773 17.6988 10.8941 17.6921 10H19.9012H19.9036Z" fill="#0A0B09"></path></g><defs><clipPath id="clip0_11419_15606"><rect width="67" height="30" fill="white"></rect></clipPath></defs></svg>