<svg xmlns="http://www.w3.org/2000/svg" width="30" height="30" viewBox="0 0 30 30" fill="none"><g clip-path="url(#clip0_7074_18605)"><path d="M9 9.64394C9 9.23989 9.13514 8.90656 9.40541 8.64394C9.67567 8.38131 10.027 8.25 10.4595 8.25C10.8842 8.25 11.2278 8.37928 11.4903 8.63788C11.7606 8.90454 11.8958 9.25201 11.8958 9.6803C11.8958 10.0682 11.7645 10.3914 11.5019 10.65C11.2317 10.9167 10.8764 11.05 10.4363 11.05H10.4247C10 11.05 9.65637 10.9167 9.39382 10.65C9.13127 10.3833 9 10.048 9 9.64394ZM9.15058 20.25V12.153H11.722V20.25H9.15058ZM13.1467 20.25H15.7181V15.7288C15.7181 15.4459 15.749 15.2278 15.8108 15.0742C15.9189 14.7995 16.083 14.5672 16.3031 14.3773C16.5232 14.1874 16.7992 14.0924 17.1313 14.0924C17.9961 14.0924 18.4286 14.7025 18.4286 15.9227V20.25H21V15.6076C21 14.4116 20.7297 13.5045 20.1892 12.8864C19.6486 12.2682 18.9344 11.9591 18.0463 11.9591C17.0502 11.9591 16.2741 12.4076 15.7181 13.3045V13.3288H15.7066L15.7181 13.3045V12.153H13.1467C13.1622 12.4116 13.1699 13.2156 13.1699 14.5651C13.1699 15.9146 13.1622 17.8096 13.1467 20.25Z" fill="white"></path></g><circle cx="15" cy="15" r="14.5" stroke="#31293F"></circle><defs><clipPath id="clip0_7074_18605"><rect width="12" height="12" fill="white" transform="translate(9 8.25)"></rect></clipPath></defs></svg>