<svg xmlns="http://www.w3.org/2000/svg" width="52" height="30" viewBox="0 0 52 30" fill="none"><path d="M19.5 15C19.5 10.097 21.863 5.757 25.5 3.02C22.991 1.132 19.882 0 16.5 0C8.216 0 1.5 6.716 1.5 15C1.5 23.284 8.216 30 16.5 30C19.882 30 22.991 28.867 25.5 26.98C21.863 24.242 19.5 19.903 19.5 15Z" fill="#F44336"></path><path d="M34.5 0C31.118 0 28.009 1.132 25.5 3.02C29.137 5.757 31.5 10.097 31.5 15C31.5 19.903 29.137 24.242 25.5 26.98C28.009 28.868 31.118 30 34.5 30C42.784 30 49.5 23.284 49.5 15C49.5 6.716 42.784 0 34.5 0Z" fill="#FF9800"></path><path d="M25.5 26.9795C28.8137 26.9795 31.5 21.6159 31.5 14.9995C31.5 8.38316 28.8137 3.01953 25.5 3.01953C22.1863 3.01953 19.5 8.38316 19.5 14.9995C19.5 21.6159 22.1863 26.9795 25.5 26.9795Z" fill="#FF7300"></path></svg>