<svg xmlns="http://www.w3.org/2000/svg" width="70" height="70"><path d="M0 0 C23.1 0 46.2 0 70 0 C70 23.1 70 46.2 70 70 C46.9 70 23.8 70 0 70 C0 46.9 0 23.8 0 0 Z " fill="#402376" transform="translate(0,0)"></path><path d="M0 0 C7.63283391 1.70479539 15.70795074 4.52448326 20.8984375 10.65625 C24.35212709 16.54925882 23.390625 20.56593407 23.390625 27.875 C0.290625 27.875 -22.809375 27.875 -46.609375 27.875 C-46.609375 21.37028663 -46.5474005 17.14105359 -42.609375 11.875 C-36.74756414 7.20534071 -29.22386998 1.875 -21.609375 1.875 C-21.609375 2.535 -21.609375 3.195 -21.609375 3.875 C-17.00565387 5.40957371 -12.41105506 5.56706979 -7.609375 4.875 C-6.805 3.988125 -6.000625 3.10125 -5.171875 2.1875 C-2.609375 -0.125 -2.609375 -0.125 0 0 Z " fill="#CACED5" transform="translate(46.609375,42.125)"></path><path d="M0 0 C1.59134766 -0.02126953 1.59134766 -0.02126953 3.21484375 -0.04296875 C6.0625 0.1875 6.0625 0.1875 9.0625 2.1875 C9.0625 3.5075 9.0625 4.8275 9.0625 6.1875 C9.7225 6.1875 10.3825 6.1875 11.0625 6.1875 C11.0625 7.8375 11.0625 9.4875 11.0625 11.1875 C11.7225 11.1875 12.3825 11.1875 13.0625 11.1875 C13.0625 12.1775 13.0625 13.1675 13.0625 14.1875 C12.4025 14.1875 11.7425 14.1875 11.0625 14.1875 C11.3925 15.8375 11.7225 17.4875 12.0625 19.1875 C11.4025 19.1875 10.7425 19.1875 10.0625 19.1875 C9.8459375 20.0846875 9.8459375 20.0846875 9.625 21 C9.1752561 22.74900404 8.63357659 24.47427023 8.0625 26.1875 C8.33821139 28.19625442 8.66485737 30.19928687 9.0625 32.1875 C6.73456996 34.75625039 4.87481629 36.06252826 1.421875 36.59375 C-6.06864787 36.83408763 -6.06864787 36.83408763 -9.625 34.1875 C-10.058125 33.5275 -10.49125 32.8675 -10.9375 32.1875 C-9.6175 30.5375 -8.2975 28.8875 -6.9375 27.1875 C-6.40125 27.6825 -5.865 28.1775 -5.3125 28.6875 C-2.34391555 30.56239544 -0.38437573 30.42251425 3.0625 30.1875 C1.94875 30.084375 0.835 29.98125 -0.3125 29.875 C-2.106875 29.5346875 -2.106875 29.5346875 -3.9375 29.1875 C-5.9375 26.1875 -5.9375 26.1875 -5.9375 23.1875 C-7.2575 22.8575 -8.5775 22.5275 -9.9375 22.1875 C-9.9375 21.5275 -9.9375 20.8675 -9.9375 20.1875 C-10.5975 20.1875 -11.2575 20.1875 -11.9375 20.1875 C-13.41660576 17.83833202 -13.96559996 16.55279953 -13.75 13.75 C-12.84545311 10.89719827 -11.52070863 8.72063381 -9.9375 6.1875 C-9.4115625 4.82625 -9.4115625 4.82625 -8.875 3.4375 C-7.14247427 -0.72056176 -4.07416428 0.0246919 0 0 Z " fill="#9C6A65" transform="translate(34.9375,11.8125)"></path><path d="M0 0 C5.45381378 5.82993886 7.37277045 13.15963064 8 21 C7.67 21.99 7.34 22.98 7 24 C10.63 23.67 14.26 23.34 18 23 C17.34 22.67 16.68 22.34 16 22 C16 21.01 16 20.02 16 19 C14.68 19 13.36 19 12 19 C10.85193622 9.58997722 10.85193622 9.58997722 11 5 C13.25 5 13.25 5 16 6 C20.88214241 11.83361425 20 17.36582957 20 25 C12.74 25 5.48 25 -2 25 C-0.68 24.67 0.64 24.34 2 24 C1.71125 23.38125 1.4225 22.7625 1.125 22.125 C-1.37913272 15.16907577 -2.27265831 8.36177429 -2 1 C-1.34 0.67 -0.68 0.34 0 0 Z " fill="#DBE4EB" transform="translate(50,45)"></path><path d="M0 0 C1.09570312 0.00902344 2.19140625 0.01804687 3.3203125 0.02734375 C4.16335937 0.03894531 5.00640625 0.05054688 5.875 0.0625 C5.875 0.3925 5.875 0.7225 5.875 1.0625 C3.565 1.0625 1.255 1.0625 -1.125 1.0625 C-1.125 1.7225 -1.125 2.3825 -1.125 3.0625 C-1.764375 3.330625 -2.40375 3.59875 -3.0625 3.875 C-5.45631686 4.94917752 -5.45631686 4.94917752 -6.125 8.0625 C-2.495 8.3925 1.135 8.7225 4.875 9.0625 C5.205 10.7125 5.535 12.3625 5.875 14.0625 C3.4 13.5675 3.4 13.5675 0.875 13.0625 C-0.115 14.5475 -0.115 14.5475 -1.125 16.0625 C-1.125 15.4025 -1.125 14.7425 -1.125 14.0625 C-2.07375 14.083125 -3.0225 14.10375 -4 14.125 C-7.125 14.0625 -7.125 14.0625 -9.125 13.0625 C-8.465 15.0425 -7.805 17.0225 -7.125 19.0625 C-4.155 19.0625 -1.185 19.0625 1.875 19.0625 C1.875 19.7225 1.875 20.3825 1.875 21.0625 C-0.105 21.3925 -2.085 21.7225 -4.125 22.0625 C-4.455 23.3825 -4.785 24.7025 -5.125 26.0625 C-5.455 25.0725 -5.785 24.0825 -6.125 23.0625 C-8.14008358 22.32926204 -8.14008358 22.32926204 -10.125 22.0625 C-10.125 21.4025 -10.125 20.7425 -10.125 20.0625 C-10.785 20.0625 -11.445 20.0625 -12.125 20.0625 C-13.60410576 17.71333202 -14.15309996 16.42779953 -13.9375 13.625 C-13.03295311 10.77219827 -11.70820863 8.59563381 -10.125 6.0625 C-9.5990625 4.70125 -9.5990625 4.70125 -9.0625 3.3125 C-7.29388216 -0.93218282 -4.13057023 -0.04394224 0 0 Z " fill="#713D34" transform="translate(35.125,11.9375)"></path><path d="M0 0 C6.12096691 1.05486051 10.75506674 2.65217026 16 6 C15.814375 6.825 15.62875 7.65 15.4375 8.5 C14.9225916 12.61926719 15.36507072 15.90823355 16 20 C16.99 20.33 17.98 20.66 19 21 C19 21.99 19 22.98 19 24 C19.99 24.33 20.98 24.66 22 25 C21 26 21 26 18.49609375 26.09765625 C17.48675781 26.08605469 16.47742188 26.07445313 15.4375 26.0625 C14.42558594 26.05347656 13.41367187 26.04445313 12.37109375 26.03515625 C11.19740234 26.01775391 11.19740234 26.01775391 10 26 C9.97421875 25.40574219 9.9484375 24.81148437 9.921875 24.19921875 C9.38507656 16.35464149 8.01571657 7.61097632 2.25 1.8125 C1.5075 1.214375 0.765 0.61625 0 0 Z " fill="#BCC1CA" transform="translate(47,43)"></path><path d="M0 0 C2.97 0 5.94 0 9 0 C10.75163456 3.77222089 11.22490027 6.666639 11.125 10.8125 C11.10695313 11.78832031 11.08890625 12.76414062 11.0703125 13.76953125 C11.04710938 14.50558594 11.02390625 15.24164063 11 16 C10.01 16.33 9.02 16.66 8 17 C8.33 14.69 8.66 12.38 9 10 C5.93448401 9.20497132 2.85676844 8.55067798 -0.25 7.9375 C-1.14203125 7.76089844 -2.0340625 7.58429687 -2.953125 7.40234375 C-3.62859375 7.26957031 -4.3040625 7.13679688 -5 7 C-4.67 5.68 -4.34 4.36 -4 3 C-2.68 2.67 -1.36 2.34 0 2 C0 1.34 0 0.68 0 0 Z " fill="#A66A58" transform="translate(34,13)"></path><path d="M0 0 C0.99 0 1.98 0 3 0 C6.01995798 6.28151261 6.01995798 6.28151261 5.9375 9.25 C4.66268508 11.62965451 3.29319511 12.57704303 1 14 C-2.70820907 14.6053106 -6.28306578 14.53582511 -10 14 C-12.6875 12 -12.6875 12 -14 10 C-12.68 8.35 -11.36 6.7 -10 5 C-9.195625 5.7425 -9.195625 5.7425 -8.375 6.5 C-5.40641555 8.37489544 -3.44687573 8.23501425 0 8 C-2.31 7.67 -4.62 7.34 -7 7 C-6.34 6.67 -5.68 6.34 -5 6 C-5 5.34 -5 4.68 -5 4 C-2.61435923 4.57584432 -0.33317216 5.22227595 2 6 C2 4.35 2 2.7 2 1 C1.34 0.67 0.68 0.34 0 0 Z " fill="#8B5347" transform="translate(38,34)"></path><path d="M0 0 C3.84002931 2.10825138 6.73003778 4.21672964 9 8 C9 8.66 9 9.32 9 10 C8.34 10 7.68 10 7 10 C7 9.01 7 8.02 7 7 C3.5836981 5.96025594 0.43573988 5.86625125 -3.125 5.875 C-4.17945313 5.87242188 -5.23390625 5.86984375 -6.3203125 5.8671875 C-8.97226654 5.818471 -8.97226654 5.818471 -11 7 C-11.90343684 8.88263881 -11.90343684 8.88263881 -12.625 11.0625 C-12.88539062 11.79597656 -13.14578125 12.52945312 -13.4140625 13.28515625 C-13.60742188 13.85105469 -13.80078125 14.41695312 -14 15 C-14.33 15 -14.66 15 -15 15 C-15.3259948 10.32740781 -14.92675987 7.70722917 -12 4 C-7.97731702 0.69246066 -5.22654139 -0.87109023 0 0 Z " fill="#1E1423" transform="translate(38,7)"></path><path d="M0 0 C2.8203125 -0.29296875 2.8203125 -0.29296875 6.125 -0.1875 C7.76855469 -0.14689453 7.76855469 -0.14689453 9.4453125 -0.10546875 C10.28835937 -0.07066406 11.13140625 -0.03585937 12 0 C12 0.33 12 0.66 12 1 C9.69 1 7.38 1 5 1 C5 1.66 5 2.32 5 3 C4.360625 3.268125 3.72125 3.53625 3.0625 3.8125 C0.66868314 4.88667752 0.66868314 4.88667752 0 8 C3.63 8.33 7.26 8.66 11 9 C11.33 10.65 11.66 12.3 12 14 C10.35 13.67 8.7 13.34 7 13 C6.01 14.485 6.01 14.485 5 16 C5 15.34 5 14.68 5 14 C3.02 14 1.04 14 -1 14 C-0.67 13.34 -0.34 12.68 0 12 C0.99 12.33 1.98 12.66 3 13 C3 12.34 3 11.68 3 11 C1.35 10.67 -0.3 10.34 -2 10 C-2.25 3.375 -2.25 3.375 0 0 Z " fill="#884F3D" transform="translate(29,12)"></path><path d="M0 0 C1.9375 0.625 1.9375 0.625 4 2 C4.75 5.125 4.75 5.125 5 8 C4.34 8 3.68 8 3 8 C3 7.34 3 6.68 3 6 C2.113125 6.350625 1.22625 6.70125 0.3125 7.0625 C-3.07480539 8.02117134 -4.69567599 8.03850183 -8 7 C-9 6 -9 6 -9.0625 3.4375 C-9.041875 2.633125 -9.02125 1.82875 -9 1 C-6.36 1.33 -3.72 1.66 -1 2 C-0.67 1.34 -0.34 0.68 0 0 Z " fill="#A56654" transform="translate(35,24)"></path><path d="M0 0 C3.53647504 1.67517239 4.7911563 2.49280817 6.3125 6.1875 C6.539375 7.115625 6.76625 8.04375 7 9 C9.64 9 12.28 9 15 9 C14.67 9.66 14.34 10.32 14 11 C8.58461538 11.36923077 8.58461538 11.36923077 5.625 9.5 C5.08875 9.005 4.5525 8.51 4 8 C3.01 9.485 3.01 9.485 2 11 C1.34 10.67 0.68 10.34 0 10 C0 6.7 0 3.4 0 0 Z " fill="#3D232D" transform="translate(24,32)"></path><path d="M0 0 C0.99 0 1.98 0 3 0 C4.04976964 3.14930893 4.10131595 5.38814456 4.0625 8.6875 C4.05347656 9.68136719 4.04445313 10.67523438 4.03515625 11.69921875 C4.02355469 12.45847656 4.01195312 13.21773437 4 14 C3.01 14.33 2.02 14.66 1 15 C1.33 12.69 1.66 10.38 2 8 C1.34 8 0.68 8 0 8 C-0.38063221 5.6739143 -0.71269945 3.33944736 -1 1 C-0.67 0.67 -0.34 0.34 0 0 Z " fill="#BD9797" transform="translate(41,15)"></path><path d="M0 0 C0.33 0 0.66 0 1 0 C1 1.65 1 3.3 1 5 C1.66 5 2.32 5 3 5 C3 5.99 3 6.98 3 8 C2.34 8 1.68 8 1 8 C1.33 9.65 1.66 11.3 2 13 C1.34 13 0.68 13 0 13 C-0.103125 13.61875 -0.20625 14.2375 -0.3125 14.875 C-1 17 -1 17 -4 19 C-3.74438677 16.6568787 -3.40729228 14.32156597 -3 12 C-2.34 11.67 -1.68 11.34 -1 11 C-0.5316735 8.41394668 -0.5316735 8.41394668 -0.375 5.4375 C-0.30023438 4.42558594 -0.22546875 3.41367187 -0.1484375 2.37109375 C-0.09945312 1.58863281 -0.05046875 0.80617188 0 0 Z " fill="#976762" transform="translate(45,18)"></path><path d="M0 0 C0.66 0 1.32 0 2 0 C2 0.66 2 1.32 2 2 C3.65 2 5.3 2 7 2 C7 4.31 7 6.62 7 9 C3.7 9 0.4 9 -3 9 C-3 8.67 -3 8.34 -3 8 C-0.36 7.67 2.28 7.34 5 7 C4.34 6.67 3.68 6.34 3 6 C3 5.01 3 4.02 3 3 C1.68 3 0.36 3 -1 3 C-0.67 2.01 -0.34 1.02 0 0 Z " fill="#D3DCE4" transform="translate(63,61)"></path><path d="M0 0 C-0.99 0.66 -1.98 1.32 -3 2 C-2.814375 2.61875 -2.62875 3.2375 -2.4375 3.875 C-2 6 -2 6 -3 8 C-6.3 7.34 -9.6 6.68 -13 6 C-13 5.34 -13 4.68 -13 4 C-10.69 4 -8.38 4 -6 4 C-6 2.68 -6 1.36 -6 0 C-3.50907189 -1.24546405 -2.58919267 -0.7767578 0 0 Z " fill="#AE7F78" transform="translate(44,15)"></path><path d="M0 0 C2.31 0 4.62 0 7 0 C7.33 1.65 7.66 3.3 8 5 C6.35 4.67 4.7 4.34 3 4 C2.34 4.99 1.68 5.98 1 7 C0.67 4.69 0.34 2.38 0 0 Z " fill="#87554A" transform="translate(33,21)"></path><path d="M0 0 C2.4375 2.375 2.4375 2.375 4 5 C4 5.66 4 6.32 4 7 C3.34 7 2.68 7 2 7 C2 6.01 2 5.02 2 4 C-3.28 3.34 -8.56 2.68 -14 2 C-14 1.67 -14 1.34 -14 1 C-4.65041783 -0.5264624 -4.65041783 -0.5264624 0 0 Z " fill="#352125" transform="translate(43,10)"></path><path d="M0 0 C2 3 2 3 1.875 5 C0.74467946 7.5835898 -0.61175724 8.55258015 -3 10 C-3.66 10 -4.32 10 -5 10 C-3.33333333 6.66666667 -1.66666667 3.33333333 0 0 Z " fill="#A07471" transform="translate(42,38)"></path><path d="M0 0 C0.99 0 1.98 0 3 0 C4.16552619 4.19589427 4.08954032 4.82091936 2 9 C-2.455 8.01 -2.455 8.01 -7 7 C-6.34 6.67 -5.68 6.34 -5 6 C-5 5.34 -5 4.68 -5 4 C-2.61435923 4.57584432 -0.33317216 5.22227595 2 6 C2 4.35 2 2.7 2 1 C1.34 0.67 0.68 0.34 0 0 Z " fill="#6A413F" transform="translate(38,34)"></path><path d="M0 0 C2.64 0.33 5.28 0.66 8 1 C8 2.65 8 4.3 8 6 C6.68 5.67 5.36 5.34 4 5 C4.33 4.34 4.66 3.68 5 3 C3.35 2.67 1.7 2.34 0 2 C0 1.34 0 0.68 0 0 Z " fill="#AD8082" transform="translate(32,34)"></path><path d="M0 0 C3.3 0 6.6 0 10 0 C10 0.66 10 1.32 10 2 C8.02 2.33 6.04 2.66 4 3 C3.67 4.32 3.34 5.64 3 7 C2.67 6.01 2.34 5.02 2 4 C1.34 4 0.68 4 0 4 C0 2.68 0 1.36 0 0 Z " fill="#76463E" transform="translate(27,31)"></path><path d="M0 0 C1.9375 0.625 1.9375 0.625 4 2 C4.75 5.125 4.75 5.125 5 8 C4.34 8 3.68 8 3 8 C3 7.34 3 6.68 3 6 C1.35 6 -0.3 6 -2 6 C-2 5.34 -2 4.68 -2 4 C-1.34 4 -0.68 4 0 4 C0 2.68 0 1.36 0 0 Z " fill="#C39289" transform="translate(35,24)"></path><path d="M0 0 C5.75 0.875 5.75 0.875 8 2 C7.34 3.32 6.68 4.64 6 6 C5.34 6 4.68 6 4 6 C2.61061923 4.03852126 1.2739589 2.03833424 0 0 Z " fill="#D0D5E0" transform="translate(53,46)"></path><path d="M0 0 C0.99 0.33 1.98 0.66 3 1 C3 1.99 3 2.98 3 4 C3.99 4.33 4.98 4.66 6 5 C5 6 5 6 2.4375 6.0625 C1.2309375 6.0315625 1.2309375 6.0315625 0 6 C-0.38218767 4.34385343 -0.71395102 2.67542976 -1 1 C-0.67 0.67 -0.34 0.34 0 0 Z " fill="#C4CDD5" transform="translate(63,63)"></path><path d="M0 0 C1.32 0.33 2.64 0.66 4 1 C3.01 1.495 3.01 1.495 2 2 C1.09656316 3.88263881 1.09656316 3.88263881 0.375 6.0625 C0.11460938 6.79597656 -0.14578125 7.52945312 -0.4140625 8.28515625 C-0.60742188 8.85105469 -0.80078125 9.41695312 -1 10 C-1.33 10 -1.66 10 -2 10 C-2.17942163 6.05272412 -2.09350689 3.4019487 0 0 Z " fill="#321B22" transform="translate(25,12)"></path><path d="M0 0 C1.52453435 2.94017338 2.95157395 5.85472185 4 9 C3.67 9.99 3.34 10.98 3 12 C1.09598862 10.09598862 0.06479561 8.66574314 -0.19921875 5.953125 C-0.1886578 3.96766727 -0.09915043 1.9830086 0 0 Z " fill="#CDD5DC" transform="translate(53,50)"></path><path d="M0 0 C2.64 0 5.28 0 8 0 C7.01 0.495 7.01 0.495 6 1 C5.67 1.99 5.34 2.98 5 4 C4.01 4 3.02 4 2 4 C2 3.34 2 2.68 2 2 C1.34 1.34 0.68 0.68 0 0 Z " fill="#C1BDC2" transform="translate(30,48)"></path><path d="M0 0 C3.875 1.75 3.875 1.75 5 4 C4.01 5.485 4.01 5.485 3 7 C2.01 6.34 1.02 5.68 0 5 C-0.1875 2.375 -0.1875 2.375 0 0 Z " fill="#D2D8E2" transform="translate(44,42)"></path><path d="M0 0 C0.99 0.99 1.98 1.98 3 3 C2.34 3 1.68 3 1 3 C1 4.32 1 5.64 1 7 C0.01 7 -0.98 7 -2 7 C-2.33 6.01 -2.66 5.02 -3 4 C-2.34 3.67 -1.68 3.34 -1 3 C-0.67 2.01 -0.34 1.02 0 0 Z " fill="#7F4B43" transform="translate(27,39)"></path><path d="M0 0 C0.66 0 1.32 0 2 0 C2.33 0.99 2.66 1.98 3 3 C5.00016466 4.20882096 5.00016466 4.20882096 7 5 C5.68 5 4.36 5 3 5 C3 5.66 3 6.32 3 7 C2.01 6.67 1.02 6.34 0 6 C0 4.02 0 2.04 0 0 Z " fill="#8F5552" transform="translate(30,33)"></path><path d="M0 0 C1.60031344 3.20062687 0.03173691 5.72271806 -1 9 C-1.99 9 -2.98 9 -4 9 C-2.68 6.03 -1.36 3.06 0 0 Z " fill="#6B3729" transform="translate(27,13)"></path><path d="M0 0 C2.97 0 5.94 0 9 0 C9 0.33 9 0.66 9 1 C6.69 1 4.38 1 2 1 C2 1.66 2 2.32 2 3 C0.68 3.33 -0.64 3.66 -2 4 C-1.34 2.68 -0.68 1.36 0 0 Z " fill="#9C5A3E" transform="translate(32,12)"></path></svg>