<svg xmlns="http://www.w3.org/2000/svg" id="Layer_1" data-name="Layer 1" viewBox="0 0 321.05 329.54"><path d="M219.83,157.16c0,5,0,9.68,0,14.41,0,5.12-1.87,7-6.88,7q-47.3,0-94.6,0c-5.25,0-7-1.84-7-7.19v-121c0-5.75,1.69-7.41,7.5-7.42h57.62c0-5.1,0-9.92,0-14.74,0-5.1,1.85-7,6.93-7H278c5.11,0,7,1.86,7,6.9,0,4.75,0,9.49,0,14.8H342.5c5.95,0,7.57,1.64,7.57,7.69V171c0,6-1.65,7.6-7.67,7.6q-46.62,0-93.25,0c-6,0-7.6-1.63-7.61-7.64,0-4.51,0-9,0-13.8Zm54-11.27V32.35H187.44V145.89Zm11.32-40.42v13.61h37.57v10.77H285.22v10.9H322.7v10.72H285.32c-1.94,4.77-2.89,5.42-7.91,5.43H252.59v10.62H339V53.8h-53.8V67.19c12.75-4.35,22.05-2.15,28.3,6.59a21.51,21.51,0,0,1-.35,25.61C306.73,107.85,297.4,109.94,285.18,105.47ZM176.35,129.68H138.7V118.79h37.52V105.52c-12.7,4.24-21.51,2.3-27.88-6a21.68,21.68,0,0,1,9.52-33.41c6.27-2.43,12.37-1.59,18.34,1.35V54.06H122.33V167.54h86.39V156.9c-8.28,0-16.3-.14-24.31.06-4.22.1-7.38-.87-8.25-5.61H138.65V140.46h37.7Zm.05-42.82a10.85,10.85,0,1,0-11.26,10.33A10.95,10.95,0,0,0,176.4,86.86Zm130.24-.37a10.84,10.84,0,1,0-10.9,10.7A10.94,10.94,0,0,0,306.64,86.49Z" transform="translate(-64.47 -21.23)"></path><path d="M71.78,290.81,64.47,283c.57-.6,1.36-1.49,2.19-2.33q25.07-25.06,50.09-50.15a9.68,9.68,0,0,1,7.47-3.14c19.9.1,39.79.26,59.69,0,10.88-.16,19.66,3.33,26.27,12.7,1-.9,1.85-1.66,2.68-2.49q15.48-15.45,30.94-30.92c11.2-11.18,22.53-12.22,35.69-3.17,10.67-7.93,21.5-8.1,32.55,0,10.74-7.93,21.69-8.09,32.67.09,6.57-5.34,13.94-7.37,22.2-5.33a24.5,24.5,0,0,1,13.83,38.3,39,39,0,0,1-3.82,4.31q-29.6,29.64-59.18,59.28a10.46,10.46,0,0,1-8.06,3.37c-37.08-.09-74.16,0-111.23-.1a7.52,7.52,0,0,0-5.92,2.4c-13.91,14.06-27.94,28-41.91,42-.87.88-1.57,1.92-2.44,3l-7.56-8.25c.42-.45,1.16-1.28,1.95-2.07Q165,318,187.37,295.57a9.75,9.75,0,0,1,7.51-3.06c37.19.08,74.38,0,111.57.1a7.18,7.18,0,0,0,5.64-2.23c19.29-19.41,38.68-38.7,58-58.09,7.9-7.94,5.13-20.33-5.19-23.38-5.46-1.61-10.2-.12-14.24,3.93-14.44,14.5-29,28.9-43.34,43.46a11.48,11.48,0,0,1-8.93,3.77c-26.68-.13-53.35-.07-80-.07H214c-.31,1-.59,1.9-.92,2.82-3.85,10.8-11.46,17.78-22.8,18.53-13.48.89-27.06.21-40.8.21v-10.7h3.46c11.07,0,22.15,0,33.23,0,10.06,0,17.43-7,17.37-16.41s-7.39-16.12-17.3-16.13c-19.66,0-39.33-.06-59,.08a7.91,7.91,0,0,0-4.91,2.1c-16,15.82-31.87,31.76-47.78,47.66C73.7,289,72.79,289.85,71.78,290.81Zm199.73-79.35c-5.9-4.5-13.1-4-18.36,1.23q-17.31,17.2-34.51,34.51a18.43,18.43,0,0,0-1.41,2c5.32,0,10.18,0,15-.05A4.19,4.19,0,0,0,234.9,248C247.08,235.92,259.2,223.77,271.51,211.46Zm32.42-.05c-5.48-4.58-12.75-4.14-18.11,1.18q-17.44,17.31-34.77,34.76a22.84,22.84,0,0,0-1.42,1.8c5.06,0,9.57.17,14.06-.09a7.73,7.73,0,0,0,4.63-1.95c11.36-11.17,22.6-22.47,33.86-33.75C302.8,212.74,303.35,212.06,303.93,211.41Zm32.71,0c-5.89-4.62-13-4.13-18.32,1.19Q301,229.85,283.79,247.17a17.54,17.54,0,0,0-1.47,2c5.33,0,10.18,0,15-.05A4.21,4.21,0,0,0,300,248C312.19,235.93,324.32,223.77,336.64,211.45Z" transform="translate(-64.47 -21.23)"></path><path d="M252.38,64.72A21.7,21.7,0,1,1,230.68,43,21.75,21.75,0,0,1,252.38,64.72ZM230.8,53.81a10.84,10.84,0,1,0,10.72,10.87A10.87,10.87,0,0,0,230.8,53.81Z" transform="translate(-64.47 -21.23)"></path><path d="M203.71,107.83V97.38h53.84v10.45Z" transform="translate(-64.47 -21.23)"></path><path d="M257.82,119.15c0,2.92,0,5.61,0,8.31,0,.65-.06,1.3-.1,2.13h-54V119.15Z" transform="translate(-64.47 -21.23)"></path></svg>