<svg xmlns="http://www.w3.org/2000/svg" id="uuid-850759b8-9929-4e49-8c61-20dcb9e31ee8" viewBox="0 0 182 160"><rect x="17.65" y="20.76" width="121.87" height="109.61" rx="6" ry="6" transform="translate(-24.57 40.29) rotate(-25)" style="fill:none; stroke:#7b84ff; stroke-linejoin:round; stroke-width:4px;"></rect><path d="m9.17,68.39L118.57,17.38" style="fill:none; stroke:#7b84ff; stroke-width:4px;"></path><path d="m60.12,112.52c4.53-7.49,7.75-14.32,9.68-20.5,1.91-6.22,1.99-11.21.24-14.97-1.08-2.32-2.55-3.9-4.4-4.74-1.83-.89-4.06-.72-6.7.51-2.71,1.26-4.36,3.09-4.94,5.49-.6,2.36-.27,5.08.98,8.17l-5.23,2.44c-1.86-4.7-2.08-8.86-.66-12.5,1.4-3.67,4.12-6.45,8.15-8.33,3.84-1.79,7.36-2.18,10.56-1.17,3.2,1.01,5.68,3.39,7.44,7.15,1.45,3.1,1.91,6.73,1.4,10.88-.49,4.1-1.61,8.23-3.35,12.39-1.72,4.1-3.72,7.84-6.02,11.22l20.81-9.7,2.03,4.36-28.19,13.14-1.79-3.84Z" style="fill:#b8b9ff;"></path><path d="m104.06,51.77l1.8,44.37-5.58,2.6-1.32-43.96-21.5,10.03-2.14-4.59,26.85-12.52,1.9,4.07Z" style="fill:#b8b9ff;"></path><rect x="62" y="96" width="118" height="62" rx="4" ry="4" style="fill:#b8b9ff; stroke:#7b84ff; stroke-linejoin:round; stroke-width:4px;"></rect><path d="m76,110h16" style="fill:none; stroke:#7b84ff; stroke-linecap:round; stroke-linejoin:round; stroke-width:4px;"></path><path d="m100,110h16" style="fill:none; stroke:#7b84ff; stroke-linecap:round; stroke-linejoin:round; stroke-width:4px;"></path><path d="m124,110h16" style="fill:none; stroke:#7b84ff; stroke-linecap:round; stroke-linejoin:round; stroke-width:4px;"></path><path d="m148,110h16" style="fill:none; stroke:#7b84ff; stroke-linecap:round; stroke-linejoin:round; stroke-width:4px;"></path><path d="m76,130h33" style="fill:none; stroke:#7b84ff; stroke-linecap:round; stroke-linejoin:round; stroke-width:4px;"></path><path d="m76,142h51.5" style="fill:none; stroke:#7b84ff; stroke-linecap:round; stroke-linejoin:round; stroke-width:4px;"></path><circle cx="160" cy="137" r="8" style="fill:#7b84ff;"></circle></svg>