<svg xmlns="http://www.w3.org/2000/svg" id="uuid-3947fd75-b1d1-4f6b-9c74-3ed63008e9f3" viewBox="0 0 182 160"><rect x="3" y="3.16" width="100.36" height="153.68" rx="6" ry="6" style="fill:none; stroke:#7b84ff; stroke-linejoin:round; stroke-width:4px;"></rect><rect x="12.06" y="11.54" width="82.25" height="72.09" rx="4" ry="4" style="fill:none; stroke:#7b84ff; stroke-linejoin:round; stroke-width:4px;"></rect><path d="m13.63,96.94h50.1" style="fill:none; stroke:#7b84ff; stroke-linecap:round; stroke-linejoin:round; stroke-width:4px;"></path><rect x="13.63" y="105.92" width="78.16" height="8.98" style="fill:#b8b9ff; stroke:#b8b9ff; stroke-linecap:round; stroke-linejoin:round; stroke-width:4px;"></rect><path d="m13.63,140.69h6.85" style="fill:none; stroke:#7b84ff; stroke-linecap:round; stroke-linejoin:round; stroke-width:4px;"></path><path d="m28.91,140.69h29.97" style="fill:none; stroke:#b8b9ff; stroke-linecap:round; stroke-linejoin:round; stroke-width:4px;"></path><path d="m70.92,43.5c-1.13-6.79-6.79-14.34-16.23-15.1-7.92-.63-13.98,3.02-17.36,10.19-4.98,1.31-9.44,6.68-9.44,12.08,0,6.42,4.83,12.14,11.24,12.14h1.59s26.8.01,26.8.01h.01s.44-.01.44-.01c6.42,0,10.49-3.46,10.49-9.5,0-5.39-3.02-8.3-7.55-9.81Zm-17.58-5.08c.09.04.16.1.22.18l8.87,11.23c.32.41.03,1.02-.5,1.02h-5.87v7.11c0,.35-.29.63-.63.63h-4.75c-.35,0-.63-.29-.63-.63v-7.12h-5.85c-.12,0-.23-.03-.34-.1-.1-.06-.18-.15-.23-.26-.05-.11-.07-.23-.06-.34.01-.12.06-.23.13-.32l8.87-11.22c.06-.08.13-.14.22-.18.09-.04.18-.06.28-.06s.19.02.28.06Z" style="fill:#b8b9ff; fill-rule:evenodd;"></path><path d="m103.36,11.11h68.81c3.31,0,6,2.69,6,6v125.78c0,3.31-2.69,6-6,6h-68.81V11.11h0Z" style="fill:#b8b9ff;"></path><path d="m172.17,150.89h-70.81V9.11h70.81c4.41,0,8,3.59,8,8v125.78c0,4.41-3.59,8-8,8Zm-66.81-4h66.81c2.21,0,4-1.79,4-4V17.11c0-2.21-1.79-4-4-4h-66.81v133.78Z" style="fill:#7b84ff;"></path><path d="m115.56,28.33h33" style="fill:none; stroke:#7b84ff; stroke-linecap:round; stroke-linejoin:round; stroke-width:6px;"></path><path d="m114.54,42.89h45.5" style="fill:none; stroke:#7b84ff; stroke-linecap:round; stroke-linejoin:round; stroke-width:4px;"></path><path d="m115.56,95.86h33" style="fill:none; stroke:#7b84ff; stroke-linecap:round; stroke-linejoin:round; stroke-width:6px;"></path><path d="m114.54,110.42h45.5" style="fill:none; stroke:#7b84ff; stroke-linecap:round; stroke-linejoin:round; stroke-width:4px;"></path></svg>