<svg xmlns="http://www.w3.org/2000/svg" id="uuid-09d6ed37-1522-4578-ba96-06c8caf8cee6" viewBox="0 0 182 160"><path d="m13.34,66.81v81.74c0,4.86,3.94,8.8,8.8,8.8h137.72c4.86,0,8.8-3.94,8.8-8.8v-81.74" style="fill:none; stroke:#7b84ff; stroke-linejoin:round; stroke-width:4px;"></path><path d="m165.88,154.95l-69.13-59.62c-3.3-2.85-8.19-2.85-11.5,0l-69.14,59.62" style="fill:none; stroke:#7b84ff; stroke-linejoin:round; stroke-width:4px;"></path><path d="m116.16,112.07l52.5-45.27L96.75,4.79c-3.3-2.85-8.19-2.85-11.5,0L13.34,66.81l52.5,45.27" style="fill:none; stroke:#7b84ff; stroke-linejoin:round; stroke-width:4px;"></path><path d="m149.17,29.91v53.7l-33.24,28.27-19.19-16.55c-3.32-2.85-8.2-2.85-11.5,0l-19.19,16.55-33.24-28.27V29.91c0-4.86,3.95-8.8,8.8-8.8h98.75c4.86,0,8.8,3.95,8.8,8.8Z" style="fill:#b8b9ff; stroke:#7b84ff; stroke-linejoin:round; stroke-width:4px;"></path><path d="m83.99,67.53l-2.42-3c-1.84-2.26-2.84-5.05-2.84-7.94v-5.52c0-6.63-4.68-12.15-10.88-13.51v-2.63c0-1.63-1.31-2.94-2.94-2.94s-2.94,1.31-2.94,2.94v2.63c-6.2,1.37-10.88,6.89-10.88,13.51v5.52c0,2.89-1,5.68-2.84,7.94l-2.42,3c-1.68,2.1-.21,5.21,2.47,5.21h33.23c2.68,0,4.15-3.1,2.47-5.21Z" style="fill:#7b84ff;"></path><path d="m68.53,75.99h-7.26c-1.63,0-2.94,1.31-2.94,2.94s1.31,2.94,2.94,2.94h7.26c1.63,0,2.94-1.31,2.94-2.94s-1.31-2.94-2.94-2.94Z" style="fill:#7b84ff;"></path><line x1="96.4" y1="40" x2="119.94" y2="40" style="fill:none; stroke:#7b84ff; stroke-linecap:round; stroke-linejoin:round; stroke-width:4px;"></line><line x1="96.4" y1="54.72" x2="129.41" y2="54.72" style="fill:none; stroke:#7b84ff; stroke-linecap:round; stroke-linejoin:round; stroke-width:4px;"></line></svg>