<?xml version="1.0" encoding="utf-8"?>
<!-- Generator: Adobe Illustrator 27.6.1, SVG Export Plug-In . SVG Version: 6.00 Build 0)  -->
<svg version="1.1" id="Layer_1" xmlns="http://www.w3.org/2000/svg" xmlns:xlink="http://www.w3.org/1999/xlink" x="0px" y="0px"
	 viewBox="0 0 150 150" style="enable-background:new 0 0 150 150;" xml:space="preserve">
<style type="text/css">
	.st0{fill:#FFFFFF;}
	.st1{fill:#110C19;}
	.st2{fill:#5F28BC;}
</style>
<path class="st0" d="M123,150H27c-14.9,0-27-12.1-27-27V27C0,12.1,12.1,0,27,0h96c14.9,0,27,12.1,27,27v96
	C150,137.9,137.9,150,123,150z"/>
<g>
	<path class="st1" d="M47.2,102.2V69.7l19.5-3.9v35.6c0,6,3.2,9.5,8.4,9.5s8.3-3.6,8.3-9.5V65.8l19.5,3.9v32.5
		c0,15.8-11.1,26.1-27.8,26.1C58.3,128.3,47.2,118,47.2,102.2z"/>
	<path class="st2" d="M111,47.9L79.8,19.5c-2.7-2.5-6.8-2.5-9.5,0L39,47.9c-2.1,1.9-3.3,4.6-3.3,7.5v7.6l31.7-14.6v-9.2
		c0-3.2,1.3-6.2,3.7-8.3l2.1-1.9c1-0.9,2.5-0.9,3.5,0l2.1,1.9c2.3,2.1,3.7,5.1,3.7,8.3v9.2l31.8,14.6v-7.5
		C114.3,52.5,113.1,49.8,111,47.9z"/>
</g>
</svg>
