<svg xmlns="http://www.w3.org/2000/svg" width="13" height="13" viewBox="0 0 13 13" fill="none"><path d="M1.28657 10.9301C0.855875 11.3608 0.855875 12.0591 1.28657 12.4898C1.71726 12.9205 2.41555 12.9205 2.84624 12.4898L1.28657 10.9301ZM12.9571 1.92212C12.9571 1.31303 12.4634 0.819261 11.8543 0.819261H1.92855C1.31946 0.819261 0.825691 1.31303 0.825691 1.92212C0.825691 2.53121 1.31946 3.02498 1.92855 3.02498H10.7514V11.8478C10.7514 12.4569 11.2452 12.9507 11.8543 12.9507C12.4634 12.9507 12.9571 12.4569 12.9571 11.8478V1.92212ZM2.06641 11.71L2.84624 12.4898L12.6341 2.70196L11.8543 1.92212L11.0744 1.14228L1.28657 10.9301L2.06641 11.71Z" fill="#6D48FF"></path></svg>