<svg xmlns="http://www.w3.org/2000/svg" width="58" height="24" viewBox="0 0 58 24" fill="none"><g clip-path="url(#clip0_8819_52291)"><path d="M20.7861 20.7235H25.4805L28.4977 2.0791H23.4686L20.7861 20.7235Z" fill="#1565C0"></path><path d="M16.7636 1.74451L12.4051 15.0621L11.5822 11.3109C9.23566 5.65051 5.21191 3.32011 5.21191 3.32011L9.38791 20.3889H14.417L21.458 1.74331H16.7636V1.74451ZM54.3125 1.74451H49.2835L41.5719 20.3901H46.265L47.2704 17.7261H53.3048L53.9754 20.3901H58.0004L54.3125 1.74451ZM48.2781 14.3961L50.9606 7.40491L52.3019 14.3961H48.2781ZM34.8668 7.07131C34.8668 6.07291 35.5375 5.07331 37.884 5.07331C39.56 5.07331 41.2372 6.40531 41.2372 6.40531L42.2425 2.41051C42.2425 2.41051 39.8959 1.41211 37.884 1.41211C32.855 1.41211 30.5084 4.07611 30.5084 7.07251C30.5084 13.0653 37.2134 12.0669 37.2134 15.0633C37.2134 15.7293 36.8787 16.7277 34.1962 16.7277C31.5137 16.7277 29.503 15.7293 29.503 15.7293L28.8324 19.7241C28.8324 19.7241 30.5084 20.7225 33.8615 20.7225C36.8787 21.0549 41.5731 18.3921 41.5731 14.3961C41.5731 9.73531 34.8668 9.40291 34.8668 7.07131Z" fill="#1565C0"></path><path d="M11.7341 12.0667L10.0582 3.7435C10.0582 3.7435 9.38754 2.0791 7.37567 2.0791C5.36379 2.0791 0 2.0791 0 2.0791C0 2.0791 9.72225 5.0755 11.7341 12.0667Z" fill="#FF9800"></path></g><defs><clipPath id="clip0_8819_52291"><rect width="58" height="24" fill="white"></rect></clipPath></defs></svg>