<svg xmlns="http://www.w3.org/2000/svg" id="Layer_2" viewBox="0 0 73.37 60.25"><g id="Layer_2-2"><path d="m29.51,6.97l7.17,7.17,7.17-7.17c1.59-1.59,1.59-4.18,0-5.78-1.59-1.59-4.18-1.59-5.78,0l-1.39,1.39-1.39-1.39c-.8-.8-1.84-1.19-2.89-1.19s-2.09.4-2.89,1.19c-1.59,1.59-1.59,4.18,0,5.78Z" stroke-width="0"></path><path d="m0,38.56c0,11.96,9.73,21.69,21.69,21.69,4.88,0,9.67-1.68,13.49-4.72-.48-.47-.94-.95-1.38-1.46l-.02.02c-3.48,2.72-7.66,4.16-12.09,4.16-10.86,0-19.69-8.83-19.69-19.69s8.83-19.7,19.69-19.7c4.43,0,8.61,1.44,12.09,4.16,1.64,1.28,3.07,2.81,4.25,4.54,2.2,3.27,3.37,7.07,3.37,11s-1.16,7.74-3.37,10.99l-.08.12c.43.53.88,1.04,1.37,1.52,2.67-3.69,4.08-8.05,4.08-12.63s-1.43-8.99-4.12-12.69c-1.15-1.6-2.51-3.03-4.05-4.24-3.88-3.12-8.56-4.76-13.53-4.76C9.73,16.86,0,26.59,0,38.56Z" stroke-width="0"></path><path d="m38.14,55.5c3.88,3.11,8.56,4.75,13.53,4.75,11.96,0,21.7-9.73,21.7-21.69s-9.73-21.7-21.7-21.7c-4.94,0-9.6,1.64-13.47,4.73.48.46.93.95,1.37,1.45l.02-.02c3.48-2.72,7.66-4.16,12.08-4.16,10.86,0,19.7,8.84,19.7,19.7s-8.84,19.69-19.7,19.69c-4.42,0-8.6-1.44-12.08-4.16-1.64-1.27-3.07-2.79-4.25-4.53-2.2-3.26-3.37-7.06-3.37-11s1.16-7.74,3.37-11.01l.08-.12c-.43-.53-.88-1.03-1.37-1.5-2.67,3.69-4.08,8.05-4.08,12.63s1.42,8.98,4.11,12.69c1.13,1.57,2.49,3,4.05,4.25Z" stroke-width="0"></path></g></svg>