<svg xmlns="http://www.w3.org/2000/svg" id="uuid-4801eb30-4dae-41e4-86c4-abf735c12860" viewBox="0 0 182 160"><rect x="3.28" y="26.31" width="42.68" height="30" rx="6" ry="6" style="fill:#b8b9ff; stroke:#7b84ff; stroke-linejoin:round; stroke-width:4px;"></rect><rect x="3.28" y="65" width="42.68" height="30" rx="6" ry="6" style="fill:#b8b9ff; stroke:#7b84ff; stroke-linejoin:round; stroke-width:4px;"></rect><rect x="3.28" y="103.7" width="42.68" height="30" rx="6" ry="6" style="fill:#b8b9ff; stroke:#7b84ff; stroke-linejoin:round; stroke-width:4px;"></rect><rect x="98.75" y="85.44" width="14.43" height="41.33" rx="2" ry="2" style="fill:#b8b9ff;"></rect><path d="m111.19,87.44v37.33h-10.43v-37.33h10.43m0-4h-10.43c-2.21,0-4,1.79-4,4v37.33c0,2.21,1.79,4,4,4h10.43c2.21,0,4-1.79,4-4v-37.33c0-2.21-1.79-4-4-4h0Z" style="fill:#7b84ff;"></path><rect x="73.25" y="106.7" width="14.43" height="20.07" rx="2" ry="2" style="fill:#b8b9ff;"></rect><path d="m85.69,108.7v16.07h-10.43v-16.07h10.43m0-4h-10.43c-2.21,0-4,1.79-4,4v16.07c0,2.21,1.79,4,4,4h10.43c2.21,0,4-1.79,4-4v-16.07c0-2.21-1.79-4-4-4h0Z" style="fill:#7b84ff;"></path><rect x="124.25" y="93" width="14.43" height="33.76" rx="2" ry="2" style="fill:#b8b9ff;"></rect><path d="m136.69,95.01v29.76h-10.43v-29.76h10.43m0-4h-10.43c-2.21,0-4,1.79-4,4v29.76c0,2.21,1.79,4,4,4h10.43c2.21,0,4-1.79,4-4v-29.76c0-2.21-1.79-4-4-4h0Z" style="fill:#7b84ff;"></path><rect x="149.75" y="68" width="14.43" height="58.76" rx="2" ry="2" style="fill:#b8b9ff;"></rect><path d="m162.19,70v54.76h-10.43v-54.76h10.43m0-4h-10.43c-2.21,0-4,1.79-4,4v54.76c0,2.21,1.79,4,4,4h10.43c2.21,0,4-1.79,4-4v-54.76c0-2.21-1.79-4-4-4h0Z" style="fill:#7b84ff;"></path><rect x="58.72" y="20" width="120" height="120" rx="6" ry="6" style="fill:none; stroke:#7b84ff; stroke-linejoin:round; stroke-width:4px;"></rect><polyline points="77.47 86.73 102.97 62.1 128.47 71.88 155.97 43.15" style="fill:none; stroke:#7b84ff; stroke-linecap:round; stroke-linejoin:round; stroke-width:4px;"></polyline><path d="m162.48,35.26l-11.66,2.75c-.67.16-.9,1-.4,1.47l9.46,9.03c.5.48,1.33.21,1.45-.47l2.2-11.78c.12-.62-.44-1.15-1.05-1.01Z" style="fill:#7b84ff;"></path></svg>