<svg xmlns="http://www.w3.org/2000/svg" id="uuid-5cdfc3e3-90f3-4591-8de6-7b2f5bb84cf7" viewBox="0 0 228.38 160"><rect x="3.28" y="11.09" width="54.78" height="38.5" rx="6" ry="6" style="fill:#b8b9ff; stroke:#7b84ff; stroke-linejoin:round; stroke-width:4px;"></rect><rect x="3.28" y="60.75" width="54.78" height="38.5" rx="6" ry="6" style="fill:#b8b9ff; stroke:#7b84ff; stroke-linejoin:round; stroke-width:4px;"></rect><rect x="3.28" y="110.41" width="54.78" height="38.5" rx="6" ry="6" style="fill:#b8b9ff; stroke:#7b84ff; stroke-linejoin:round; stroke-width:4px;"></rect><rect x="122.24" y="86.41" width="19.65" height="54.17" rx="2" ry="2" style="fill:#b8b9ff;"></rect><path d="m139.89,88.41v50.17h-15.65v-50.17h15.65m0-4h-15.65c-2.21,0-4,1.79-4,4v50.17c0,2.21,1.79,4,4,4h15.65c2.21,0,4-1.79,4-4v-50.17c0-2.21-1.79-4-4-4h0Z" style="fill:#7b84ff;"></path><rect x="89.52" y="113.69" width="19.65" height="26.89" rx="2" ry="2" style="fill:#b8b9ff;"></rect><path d="m107.17,115.69v22.89h-15.65v-22.89h15.65m0-4h-15.65c-2.21,0-4,1.79-4,4v22.89c0,2.21,1.79,4,4,4h15.65c2.21,0,4-1.79,4-4v-22.89c0-2.21-1.79-4-4-4h0Z" style="fill:#7b84ff;"></path><rect x="154.97" y="96.12" width="19.65" height="44.46" rx="2" ry="2" style="fill:#b8b9ff;"></rect><path d="m172.62,98.12v40.46h-15.65v-40.46h15.65m0-4h-15.65c-2.21,0-4,1.79-4,4v40.46c0,2.21,1.79,4,4,4h15.65c2.21,0,4-1.79,4-4v-40.46c0-2.21-1.79-4-4-4h0Z" style="fill:#7b84ff;"></path><rect x="187.69" y="64.04" width="19.65" height="76.55" rx="2" ry="2" style="fill:#b8b9ff;"></rect><path d="m205.35,66.04v72.55h-15.65v-72.55h15.65m0-4h-15.65c-2.21,0-4,1.79-4,4v72.55c0,2.21,1.79,4,4,4h15.65c2.21,0,4-1.79,4-4v-72.55c0-2.21-1.79-4-4-4h0Z" style="fill:#7b84ff;"></path><rect x="71.43" y="3" width="154" height="154" rx="6" ry="6" style="fill:none; stroke:#7b84ff; stroke-linejoin:round; stroke-width:4px;"></rect><polyline points="95.49 88.64 128.22 57.03 160.94 69.59 196.24 32.7" style="fill:none; stroke:#7b84ff; stroke-linecap:round; stroke-linejoin:round; stroke-width:4px;"></polyline><path d="m204.59,22.59l-14.96,3.53c-.86.2-1.15,1.28-.51,1.89l12.14,11.58c.64.61,1.7.27,1.87-.6l2.82-15.11c.15-.79-.57-1.48-1.35-1.29Z" style="fill:#7b84ff;"></path></svg>